<svg width="10" height="10" fill="none" xmlns="http://www.w3.org/2000/svg"><path d="M9.789 7.67a.78.78 0 0 1 .235.571.78.78 0 0 1-.235.573L8.644 9.959a.78.78 0 0 1-.572.235.78.78 0 0 1-.573-.235L5.024 7.484 2.55 9.959a.78.78 0 0 1-.573.235.78.78 0 0 1-.572-.235L.26 8.814a.78.78 0 0 1-.236-.573.78.78 0 0 1 .236-.572l2.475-2.475L.26 2.72a.78.78 0 0 1-.236-.573.78.78 0 0 1 .236-.572L1.405.43a.78.78 0 0 1 .572-.236.78.78 0 0 1 .573.236l2.474 2.475L7.5.43a.78.78 0 0 1 .573-.236.78.78 0 0 1 .572.236l1.145 1.145a.78.78 0 0 1 .235.572.78.78 0 0 1-.235.573L7.314 5.194 9.789 7.67Z" fill="#5E7491"/></svg>