<svg width="14" height="15" fill="none" xmlns="http://www.w3.org/2000/svg"><path d="M13.48 1.434c.165.027.274.109.383.218a.814.814 0 0 1 .137.41c0 2.297-.574 4.43-1.723 6.399-1.148 1.914-2.652 3.445-4.566 4.566a12.479 12.479 0 0 1-6.399 1.723c-.164 0-.3-.027-.41-.137a.437.437 0 0 1-.218-.383l-.657-2.843c-.054-.137-.027-.274.055-.438a.516.516 0 0 1 .328-.3l3.063-1.313a.6.6 0 0 1 .382-.027c.137.054.274.109.383.218l1.34 1.641a9.39 9.39 0 0 0 2.844-1.996 9.893 9.893 0 0 0 1.996-2.844l-1.64-1.34c-.11-.11-.192-.218-.22-.355-.054-.137-.027-.274.028-.41L9.898 1.16A.582.582 0 0 1 10.2.832c.137-.055.274-.082.438-.055l2.843.657z" fill="#028DD8"/></svg>
