<svg xmlns="http://www.w3.org/2000/svg" width="22" height="24" fill="none"><path fill="#4CAF50" d="M19.91 8.585h-.577v-2.78c0-.018-.002-.036-.005-.053a.462.462 0 0 0-.111-.305L14.59.161l-.004-.003a.464.464 0 0 0-.094-.079l-.03-.018a.492.492 0 0 0-.094-.04l-.025-.007A.469.469 0 0 0 14.235 0H2.863a.942.942 0 0 0-.942.941v7.643h-.576C.602 8.584 0 9.186 0 9.93v6.996c0 .742.602 1.345 1.345 1.345h.576v4.789c0 .519.422.941.942.941h15.529a.942.942 0 0 0 .941-.941V18.27h.576c.743 0 1.346-.602 1.346-1.345V9.93c-.001-.743-.603-1.345-1.346-1.345ZM2.863.94h10.901v4.816c0 .26.211.47.47.47h4.158v2.358H2.862V.94Zm9.534 12.832c-.924-.322-1.528-.833-1.528-1.643 0-.95.793-1.676 2.106-1.676.628 0 1.09.132 1.42.28l-.28 1.016a2.648 2.648 0 0 0-1.165-.264c-.544 0-.809.248-.809.537 0 .355.314.512 1.032.784.983.364 1.445.875 1.445 1.66 0 .933-.718 1.726-2.246 1.726-.636 0-1.263-.165-1.577-.339l.256-1.04c.338.173.859.347 1.396.347.578 0 .883-.24.883-.603 0-.347-.264-.545-.933-.785Zm-2.13 1.28v1.058H6.79v-5.567h1.264v4.51h2.213Zm-7.514 1.058H1.316l1.61-2.817-1.553-2.75H2.82l.487 1.016c.165.339.289.61.421.925h.016c.133-.355.24-.603.38-.925l.47-1.016h1.438l-1.57 2.717 1.652 2.85H4.66l-.504-1.008c-.206-.388-.338-.677-.495-1h-.017c-.116.323-.256.612-.43 1l-.461 1.008Zm15.639 6.693H2.862V18.27h15.53v4.534Zm.009-6.693-.504-1.008c-.207-.388-.339-.677-.496-.999h-.016c-.116.322-.256.611-.43 1l-.462 1.007h-1.437l1.61-2.817-1.553-2.75h1.446l.487 1.016c.166.339.289.61.421.925h.017c.132-.355.239-.603.38-.925l.47-1.016h1.437l-1.569 2.717 1.652 2.85H18.4Z"/></svg>
