<svg xmlns="http://www.w3.org/2000/svg" width="22" height="24" fill="none"><path fill="#F7974A" d="M5.022 12.057c0-.61-.423-.974-1.172-.974-.304 0-.51.03-.619.059v1.957c.128.03.285.04.502.04.796 0 1.289-.404 1.289-1.082Z"/><path fill="#F7974A" d="M19.91 8.584h-.577v-2.78c0-.018-.003-.035-.005-.053a.462.462 0 0 0-.111-.304L14.588.16l-.004-.004a.464.464 0 0 0-.217-.135l-.025-.009A.476.476 0 0 0 14.235 0H2.863a.942.942 0 0 0-.942.941v7.643h-.576C.602 8.584 0 9.186 0 9.93v6.995c0 .742.602 1.345 1.345 1.345h.576v4.789c0 .519.422.941.942.941h15.529a.942.942 0 0 0 .941-.941V18.27h.577c.742 0 1.345-.602 1.345-1.345V9.93c0-.743-.603-1.346-1.345-1.346ZM2.863.941h10.901v4.815c0 .26.211.47.47.47h4.158v2.358H2.862V.941Zm5.975 13.693v1.997H7.461v-6.63h1.751l1.378 2.43c.393.698.787 1.524 1.081 2.272h.03c-.099-.876-.128-1.771-.128-2.765v-1.937h1.377v6.63h-1.573L9.96 14.073a24.608 24.608 0 0 1-1.152-2.34l-.03.009c.041.876.06 1.81.06 2.892Zm-7.093 1.997v-6.542c.463-.078 1.112-.137 2.027-.137.924 0 1.584.177 2.026.531.423.334.709.885.709 1.535 0 .649-.216 1.2-.61 1.574-.512.482-1.27.698-2.155.698-.197 0-.374-.01-.511-.03v2.372l-1.486-.001Zm16.647 6.173H2.862V18.27h15.53v4.534Zm1.396-6.478a7.427 7.427 0 0 1-2.213.374c-1.21 0-2.086-.305-2.695-.895-.61-.57-.945-1.437-.935-2.41.01-2.204 1.613-3.463 3.787-3.463.856 0 1.516.167 1.84.325l-.315 1.2c-.364-.158-.817-.286-1.545-.286-1.248 0-2.193.709-2.193 2.145 0 1.367.856 2.174 2.086 2.174.344 0 .62-.04.738-.098v-1.388h-1.024v-1.17h2.47v3.492Z"/></svg>