<svg xmlns="http://www.w3.org/2000/svg" width="22" height="24" fill="none"><path fill="#E91E63" fill-rule="evenodd" d="M19.335 8.584h.577a1.346 1.346 0 0 1 1.345 1.346v6.995a1.345 1.345 0 0 1-1.345 1.345h-.577v4.789a.943.943 0 0 1-.94.941H2.862a.942.942 0 0 1-.941-.941V18.27h-.576A1.346 1.346 0 0 1 0 16.925V9.93a1.345 1.345 0 0 1 1.345-1.346h.577V.941c0-.519.421-.941.94-.941h11.374a.49.49 0 0 1 .12.017l.014.004c.032.01.063.024.093.04a.462.462 0 0 1 .128.1l4.628 5.285c.075.086.11.195.111.305l.002.008.003.044v2.781ZM13.765.941H2.864v7.644h15.531V6.227h-4.158a.47.47 0 0 1-.47-.47V.94ZM2.864 22.804h15.531V18.27H2.863v4.534Zm4.264-8.892c.424-.359.637-.876.637-1.553 0-.651-.2-1.14-.599-1.468-.395-.33-.975-.494-1.738-.494h-2.01v6.29h1.334V14.45h.573c.78 0 1.381-.18 1.803-.538Zm-2.376-.555h.439c.41 0 .718-.08.921-.24.204-.164.306-.401.306-.711 0-.313-.086-.543-.259-.693-.169-.149-.436-.223-.8-.223h-.607v1.867Zm8.106-.998c0 .677-.212 1.194-.637 1.553-.421.359-1.023.538-1.803.538h-.572v2.238H8.51v-6.291h2.01c.763 0 1.342.165 1.738.495.399.326.598.816.598 1.467Zm-2.573.998h-.44V11.49h.608c.364 0 .63.074.8.223.172.15.258.38.258.693 0 .31-.101.547-.305.71-.204.16-.511.241-.921.241Zm4.413 3.33h1.335v-5.18h1.708v-1.11h-4.751v1.11h1.708v5.18Z" clip-rule="evenodd"/></svg>
