<svg xmlns="http://www.w3.org/2000/svg" width="23" height="24" fill="none"><path fill="#5B92E5" fill-rule="evenodd" d="M20.1 8.58h.57c.75 0 1.35.6 1.35 1.35v7c0 .74-.6 1.34-1.35 1.34h-.57v4.79c0 .52-.43.94-.94.94H3.63a.94.94 0 0 1-.95-.94v-4.79h-.57c-.74 0-1.35-.6-1.35-1.35v-7c0-.73.6-1.34 1.35-1.34h.57V.94c0-.52.43-.94.95-.94H15a.47.47 0 0 1 .12.02h.01a.43.43 0 0 1 .12.06l.1.08 4.63 5.29c.08.08.11.2.11.3V8.58ZM3.63.94h10.9v4.82c0 .26.2.47.47.47h4.16v2.35H3.63V.94ZM19.16 22.8H3.63v-4.53h15.53v4.53Zm-9.93-6.73H6.02V10.5h3.2v.97H7.2v1.22h1.88v.97H7.2v1.43h2.03v.98ZM15 13.23c0 .63-.12 1.15-.36 1.58-.24.41-.58.73-1.04.94-.45.21-1 .32-1.64.32h-1.58V10.5h1.75c.58 0 1.1.1 1.52.31.43.2.76.51 1 .92.23.4.35.9.35 1.5Zm-1.22.03c0-.4-.06-.75-.19-1.01a1.2 1.2 0 0 0-.53-.6 1.8 1.8 0 0 0-.87-.18h-.63v3.62h.5c.59 0 1.01-.15 1.3-.46.28-.3.42-.76.42-1.37Zm2.38-2.76v5.57h1.18V10.5h-1.18Z" clip-rule="evenodd"/></svg>
