<svg xmlns="http://www.w3.org/2000/svg" width="22" height="24" fill="none"><path fill="#E91E63" d="M2.632 13.293h.405c.38 0 .663-.074.851-.223.188-.15.283-.37.283-.655 0-.29-.08-.502-.24-.64-.155-.138-.402-.207-.738-.207h-.56v1.725ZM7.742 13.293h-.405v-1.725h.56c.337 0 .583.069.74.207.159.137.238.35.238.64 0 .286-.094.504-.282.655-.188.149-.472.223-.85.223Z"/><path fill="#E91E63" fill-rule="evenodd" d="M19.912 8.584h-.577v-2.78a.342.342 0 0 0-.004-.045V5.75a.463.463 0 0 0-.112-.305L14.59.161l-.002-.002a.462.462 0 0 0-.125-.098h-.001a.514.514 0 0 0-.093-.04l-.012-.003h-.001a.49.49 0 0 0-.12-.017H2.862a.942.942 0 0 0-.941.94v7.643h-.577A1.345 1.345 0 0 0 0 9.93v6.995a1.345 1.345 0 0 0 1.346 1.345h.576v4.789a.942.942 0 0 0 .941.941h15.531a.943.943 0 0 0 .941-.941V18.27h.577a1.345 1.345 0 0 0 1.345-1.345V9.93a1.345 1.345 0 0 0-1.345-1.346ZM2.862.941h10.904v4.815a.47.47 0 0 0 .47.47h4.158v2.359H2.863V.94Zm15.532 21.863H2.863V18.27h15.531v4.534ZM5.414 12.37c0 .625-.196 1.104-.588 1.435-.39.33-.944.497-1.665.497h-.529v2.066H1.4v-5.81h1.856c.705 0 1.24.152 1.606.457.368.302.553.754.553 1.355Zm4.117 1.435c.392-.331.588-.81.588-1.435 0-.601-.184-1.053-.552-1.355-.366-.305-.901-.457-1.606-.457H6.105v5.81h1.232v-2.066h.528c.721 0 1.276-.166 1.666-.497Zm3.52 2.563h-1.232v-4.785H10.24v-1.025h4.388v1.025h-1.578v4.785Zm5.371 0-.526-1.051c-.16-.303-.278-.548-.396-.792v-.001l-.12-.25h-.018c-.094.26-.202.5-.33.782l-.118.26-.483 1.052h-1.5l1.68-2.94-1.62-2.87h1.51l.508 1.06c.172.353.301.638.44.966h.016c.137-.368.249-.626.393-.958l.004-.008.491-1.06h1.5l-1.638 2.836 1.725 2.974h-1.518Z" clip-rule="evenodd"/></svg>
