<svg xmlns="http://www.w3.org/2000/svg" width="22" height="24" fill="none"><path fill="#FF7043" fill-rule="evenodd" d="M19.984 8.585h-.579v-2.78c0-.015-.002-.029-.003-.043l-.002-.01a.462.462 0 0 0-.112-.305L14.644.161 14.64.158a.463.463 0 0 0-.094-.079l-.029-.017-.002-.001a.497.497 0 0 0-.093-.04c-.005 0-.009-.002-.013-.003A.472.472 0 0 0 14.288 0H2.872a.944.944 0 0 0-.944.941v7.643H1.35C.605 8.584 0 9.186 0 9.93v6.996c0 .742.605 1.345 1.35 1.345h.579v4.789c0 .519.423.941.944.941H18.46c.521 0 .945-.422.945-.941V18.27h.578c.746 0 1.35-.602 1.35-1.345V9.93c0-.743-.604-1.345-1.35-1.345ZM13.815.94H2.873v7.644H18.46V6.227h-4.172a.471.471 0 0 1-.473-.47V.94ZM2.873 22.804H18.46V18.27H2.873v4.534Zm1.48-12.47H3l2.083 3.94v2.156h1.2v-2.155l2.083-3.942H7.013L5.711 12.96h-.056l-1.302-2.626Zm4.672 6.096v-6.097h2.254c.431 0 .8.083 1.104.247.307.163.54.394.7.694.162.298.243.648.243 1.05 0 .406-.082.754-.246 1.046a1.63 1.63 0 0 1-.763.691l1.212 2.369h-1.333l-1.082-2.161h-.881v2.16H9.025Zm2.028-3.197h-.82v-1.846h.814c.232 0 .425.037.577.11a.717.717 0 0 1 .343.316c.077.139.115.31.115.512 0 .2-.038.368-.115.503a.696.696 0 0 1-.34.304 1.424 1.424 0 0 1-.574.1Zm3.126 3.197v-6.097h1.208v5.034h2.448v1.063H14.18Z" clip-rule="evenodd"/></svg>
