<svg xmlns="http://www.w3.org/2000/svg" width="22" height="24" fill="none"><path fill="#F7974A" d="M9.635 10.916c-.323 0-.542.032-.657.063v2.075c.136.031.303.042.532.042.845 0 1.366-.428 1.366-1.147 0-.646-.448-1.033-1.24-1.033Z"/><path fill="#F7974A" d="M19.91 8.584h-.577v-2.78c0-.018-.003-.035-.005-.053a.462.462 0 0 0-.111-.304L14.588.16l-.004-.004a.464.464 0 0 0-.217-.135l-.025-.009A.476.476 0 0 0 14.235 0H2.863a.942.942 0 0 0-.942.941v7.643h-.576C.602 8.584 0 9.186 0 9.93v6.995c0 .742.602 1.345 1.345 1.345h.576v4.789c0 .519.422.941.942.941h15.529a.942.942 0 0 0 .941-.941V18.27h.577c.742 0 1.345-.602 1.345-1.345V9.93c0-.743-.603-1.346-1.345-1.346ZM2.863.941h10.901v4.815c0 .26.211.47.47.47h4.158v2.358H2.862V.941Zm9.587 10.965c0 .688-.229 1.272-.646 1.669-.542.51-1.345.74-2.283.74-.209 0-.397-.01-.543-.031v2.512H7.404V9.863c.49-.084 1.178-.146 2.148-.146.98 0 1.679.187 2.148.563.448.354.75.938.75 1.626ZM2.42 16.744l.177-1.282c.22.073.5.125.813.125.668 0 1.085-.303 1.085-1.397V9.769h1.584v4.441c0 2.002-.96 2.7-2.502 2.7-.365.001-.845-.06-1.158-.166Zm15.972 6.06H2.862v-4.535h15.53v4.534Zm.94-6.33a7.863 7.863 0 0 1-2.346.395c-1.282 0-2.21-.323-2.856-.948-.647-.605-1.002-1.522-.99-2.555.01-2.335 1.709-3.67 4.014-3.67.907 0 1.606.177 1.95.344l-.334 1.272c-.386-.167-.866-.302-1.638-.302-1.324 0-2.324.75-2.324 2.273 0 1.449.907 2.304 2.21 2.304.365 0 .657-.042.782-.104v-1.47h-1.085v-1.241h2.618v3.701Z"/></svg>
