<svg width="10" height="10" fill="none" xmlns="http://www.w3.org/2000/svg"><path d="M5 0C2.238 0 0 2.258 0 5a5 5 0 005 5c2.742 0 5-2.238 5-5 0-2.742-2.258-5-5-5zm0 9.032A4.018 4.018 0 01.968 5 4.031 4.031 0 015 .968 4.044 4.044 0 019.032 5 4.031 4.031 0 015 9.032zm2.157-5.14c0-1.009-1.068-1.795-2.056-1.795-.948 0-1.553.403-2.016 1.109-.081.1-.06.242.04.322l.565.424c.1.08.262.06.342-.04.303-.384.524-.606.988-.606.363 0 .807.222.807.585 0 .262-.222.383-.585.585-.403.242-.948.524-.948 1.25v.161c0 .141.101.242.242.242h.908c.14 0 .241-.1.241-.242v-.12c0-.505 1.472-.525 1.472-1.876zm-1.31 3.366A.852.852 0 005 6.411a.839.839 0 00-.847.847c0 .484.363.847.847.847a.839.839 0 00.847-.847z" fill="#C1C1C1"/></svg>
