<svg xmlns="http://www.w3.org/2000/svg" width="18" height="18" fill="none"><path fill="url(#a)" d="M5 5.73c-.08.85-.14 2.37.37 3.01 0 0-.24-1.66 1.9-3.75a2.76 2.76 0 0 0 .75-2.84A3.3 3.3 0 0 0 7.27 1C7.1.82 8.35.83 8.57.84c1.4.07 2.52.17 3.48 2.57a5.8 5.8 0 0 1 .25 3.24c-.13.7-.58 2.28.45 2.47.73.14 1.09-.45 1.24-.87.07-.17.3-.21.42-.07a5.15 5.15 0 0 1 1.1 4.49c-.5 2.76-3.3 4.77-6.07 4.77-3.47 0-6.23-1.99-6.95-5.58a7 7 0 0 1 2.1-6.34c.16-.16.43-.02.41.2Z"/><path fill="url(#b)" d="M10.7 10.89c-1.28-1.65-.7-3.53-.39-4.27.04-.1-.07-.2-.16-.13a6.22 6.22 0 0 0-2.2 2.49c-.7 1.67-.66 2.5-.24 3.5.26.6-.04.73-.19.75-.14.02-.27-.07-.38-.17-.3-.3-.52-.67-.62-1.07-.02-.09-.14-.11-.19-.04-.4.54-.6 1.41-.6 2.03a3.43 3.43 0 0 0 3.44 3.46c2.4 0 4.16-2.66 2.78-4.88-.4-.65-.78-1.07-1.25-1.67Z"/><defs><radialGradient id="a" cx="0" cy="0" r="1" gradientTransform="rotate(-179.75 4.4 8.73) scale(9.92639 16.2872)" gradientUnits="userSpaceOnUse"><stop offset=".31" stop-color="#FF9800"/><stop offset=".66" stop-color="#FF6D00"/><stop offset=".97" stop-color="#F44336"/></radialGradient><radialGradient id="b" cx="0" cy="0" r="1" gradientTransform="matrix(-.1049 10.38557 -7.8159 -.07894 9.3 7.6)" gradientUnits="userSpaceOnUse"><stop offset=".21" stop-color="#FFF176"/><stop offset=".33" stop-color="#FFF27D"/><stop offset=".49" stop-color="#FFF48F"/><stop offset=".67" stop-color="#FFF7AD"/><stop offset=".79" stop-color="#FFF9C4"/><stop offset=".82" stop-color="#FFF8BD" stop-opacity=".8"/><stop offset=".86" stop-color="#FFF6AB" stop-opacity=".53"/><stop offset=".91" stop-color="#FFF38D" stop-opacity=".21"/><stop offset=".94" stop-color="#FFF176" stop-opacity="0"/></radialGradient></defs></svg>
