<svg width="80" height="80" fill="none" xmlns="http://www.w3.org/2000/svg"><path fill-rule="evenodd" clip-rule="evenodd" d="M0 5.333A5.333 5.333 0 015.333 0h69.334A5.333 5.333 0 0180 5.333v69.334A5.333 5.333 0 0174.667 80H5.333A5.333 5.333 0 010 74.667V5.333zm5.333-1.777c-.982 0-1.777.795-1.777 1.777v69.334c0 .982.795 1.777 1.777 1.777h69.334c.982 0 1.777-.795 1.777-1.777V5.333c0-.982-.795-1.777-1.777-1.777H5.333z" fill="#E0E0E0"/><path d="M10.778 57.667h57.778V41.61L45.389 21.778 27.333 38.833 21.89 32.89 10.778 44v13.667zM20.556 21.778a4.889 4.889 0 11-9.778 0 4.889 4.889 0 019.778 0z" fill="#E0E0E0"/></svg>
