<svg width="17" height="17" fill="none" xmlns="http://www.w3.org/2000/svg"><path d="M16.163 4.438c.28-.282.437-.625.437-1.063 0-.406-.156-.75-.438-1.063L14.289.438C13.974.156 13.63 0 13.224 0c-.438 0-.781.156-1.063.438l-1.437 1.437a.382.382 0 00-.125.281c0 .125.031.188.125.25l3.469 3.469c.062.094.125.125.25.125a.382.382 0 00.281-.125l1.438-1.438zM9.475 3.125A.396.396 0 019.756 3c.094 0 .188.063.25.125l3.469 3.469c.063.062.125.156.125.25a.396.396 0 01-.125.281l-8.188 8.188L1.475 16c-.25.063-.469-.031-.656-.219-.188-.187-.281-.406-.219-.656l.688-3.813 8.187-8.187zm-5 7.5c.063.094.188.125.313.125a.401.401 0 00.312-.125l4.813-4.813a.477.477 0 00.124-.312c0-.125-.062-.219-.125-.313-.093-.062-.187-.125-.312-.125a.477.477 0 00-.313.125L4.475 10a.401.401 0 00-.125.313c0 .124.031.25.125.312zM3.35 13.25v-1.5H2.225l-.375 2 1 1 2-.375V13.25h-1.5z" fill="#5E7491"/></svg>
