<svg xmlns="http://www.w3.org/2000/svg" fill="none" viewBox="0 0 20 20"><path fill="#F60" d="M2.8 17c-.2 0-.4 0-.6-.2a.8.8 0 0 1-.2-.5c0-.2 0-.4.2-.6l.6-.2h1V7.7c0-1.4.5-2.6 1.4-3.7.8-1 2-1.7 3.3-2v-.7c0-.4.1-.7.4-1 .2-.2.6-.3 1-.3.3 0 .6.1.8.4.3.2.4.5.4.9V2a5.8 5.8 0 0 1 4.6 5.8v7.7h1.1c.3 0 .5 0 .6.2.2.2.2.4.2.6 0 .2 0 .4-.2.5-.1.2-.3.3-.6.3h-14Zm7 3c-.5 0-1-.2-1.3-.6-.4-.3-.6-.8-.6-1.3h3.8c0 .5-.2 1-.6 1.3-.3.4-.8.6-1.3.6Zm-4.4-4.5h8.8V7.7c0-1.2-.4-2.2-1.3-3a4.2 4.2 0 0 0-3-1.3c-1.3 0-2.3.4-3.2 1.2-.8.9-1.3 2-1.3 3.1v7.8Z"/></svg>
