<svg xmlns="http://www.w3.org/2000/svg" width="16" height="16" fill="none"><path fill="#08C" fill-rule="evenodd" d="M8 13.2c1.45 0 2.68-.5 3.69-1.51 1-1 1.51-2.24 1.51-3.69 0-1.45-.5-2.68-1.51-3.69-1-1-2.24-1.51-3.69-1.51-1.45 0-2.68.5-3.69 1.51-1 1-1.51 2.24-1.51 3.69 0 1.45.5 2.68 1.51 3.69 1 1 2.24 1.51 3.69 1.51ZM5.7 7.77l1.39 1.4 3.22-3.22a.62.62 0 0 1 .45-.18.62.62 0 0 1 .63.63c0 .2-.05.34-.17.46l-3.68 3.67a.62.62 0 0 1-.9 0L4.77 8.69a.62.62 0 0 1-.18-.45.62.62 0 0 1 .63-.63c.2 0 .34.05.46.17Z" clip-rule="evenodd"/><path fill="#08C" fill-rule="evenodd" d="M5.46 13.99c.8.34 1.64.51 2.54.51a6.56 6.56 0 0 0 5.99-3.96c.34-.8.51-1.64.51-2.54a6.56 6.56 0 0 0-3.96-5.99A6.33 6.33 0 0 0 8 1.5a6.56 6.56 0 0 0-5.99 3.96C1.67 6.26 1.5 7.1 1.5 8a6.56 6.56 0 0 0 3.96 5.99Zm6.23-2.3c-1 1-2.24 1.51-3.69 1.51-1.45 0-2.68-.5-3.69-1.51-1-1-1.51-2.24-1.51-3.69 0-1.45.5-2.68 1.51-3.69 1-1 2.24-1.51 3.69-1.51 1.45 0 2.68.5 3.69 1.51 1 1 1.51 2.24 1.51 3.69 0 1.45-.5 2.68-1.51 3.69Z" clip-rule="evenodd"/></svg>
