<svg xmlns="http://www.w3.org/2000/svg" fill="none" viewBox="0 0 20 20"><g clip-path="url(#a)"><path fill="#F60" fill-rule="evenodd" d="M12.25 15H7.49a3 3 0 0 1-5.981-.017A1.75 1.75 0 0 1 0 13.25v-9.5C0 2.784.784 2 1.75 2h10.5c.966 0 1.75.784 1.75 1.75v2h1.27a1.75 1.75 0 0 1 1.366.656l2.73 3.409c.248.31.384.696.384 1.094V13.5a1.75 1.75 0 0 1-1.282 1.687 3 3 0 0 1-5.96-.206c-.084.012-.17.019-.258.019ZM1.5 3.75a.25.25 0 0 1 .25-.25h10.5a.25.25 0 0 1 .25.25v9.5a.25.25 0 0 1-.25.25H7.228a3 3 0 0 0-5.456 0H1.75a.25.25 0 0 1-.25-.25v-9.5Zm16.747 9.791a.255.255 0 0 0 .003-.041v-2.591a.25.25 0 0 0-.055-.157l-2.73-3.408a.25.25 0 0 0-.195-.094H14v4.901a3 3 0 0 1 4.247 1.39ZM17 14.75a1.5 1.5 0 1 1-3 0 1.5 1.5 0 0 1 3 0Zm-11 .001a1.5 1.5 0 1 1 0-.002v.002Z" clip-rule="evenodd"/></g><defs><clipPath id="a"><path fill="#fff" d="M0 0h20v20H0z"/></clipPath></defs></svg>
