<svg xmlns="http://www.w3.org/2000/svg" fill="none" viewBox="0 0 20 20"><path fill="#F60" d="M17.9 19c-2 0-4-.5-6-1.4-2-1-3.9-2.2-5.6-4-1.7-1.6-3-3.5-4-5.5-.8-2-1.3-4-1.3-6A1 1 0 0 1 2.1 1h3.5c.2 0 .5 0 .7.3.2.1.3.4.4.6L7.3 5v.8l-.4.5-2.4 2.4a14.7 14.7 0 0 0 3 3.9 18.3 18.3 0 0 0 4 3l2.3-2.4.6-.4h.8l2.9.6c.3 0 .5.2.6.4.2.2.3.4.3.7v3.4c0 .3-.1.6-.3.8a1 1 0 0 1-.8.3ZM3.7 7.2l2-1.8v-.2l-.5-2.4v-.2H2.6a.1.1 0 0 0-.1.1 13.5 13.5 0 0 0 1.1 4.5Zm9.2 9.1a10.9 10.9 0 0 0 4.5 1v-2.4h-.2l-2.2-.5h-.2l-1.9 2Z"/></svg>
