<svg xmlns="http://www.w3.org/2000/svg" fill="none" viewBox="0 0 20 20"><path fill="#FC4000" d="M17.88 19c-2 0-4-.46-6.02-1.4a19.14 19.14 0 0 1-5.55-3.92C4.63 12 3.32 10.14 2.4 8.13a14.24 14.24 0 0 1-1.39-6A1.1 1.1 0 0 1 2.11 1h3.46a1.15 1.15 0 0 1 1.1.9l.6 3.12c.04.3.03.54-.03.75-.06.2-.16.38-.32.52L4.48 8.67c.39.72.84 1.4 1.34 2.05a20.17 20.17 0 0 0 3.5 3.46c.65.5 1.36.96 2.12 1.39l2.38-2.4c.16-.17.36-.3.6-.36.23-.07.48-.09.73-.05l2.94.6c.27.07.49.2.66.4.17.2.25.44.25.7v3.43A1.1 1.1 0 0 1 17.88 19ZM3.72 7.17l1.9-1.8a.19.19 0 0 0 .06-.12v-.13L5.2 2.75a.22.22 0 0 0-.07-.12.2.2 0 0 0-.13-.04H2.75a.14.14 0 0 0-.15.14 13.54 13.54 0 0 0 1.12 4.44Zm9.22 9.15a12.46 12.46 0 0 0 4.33 1.06c.04 0 .07-.01.1-.04a.14.14 0 0 0 .04-.1V15a.2.2 0 0 0-.04-.13.22.22 0 0 0-.12-.07l-2.22-.46a.17.17 0 0 0-.11 0 .26.26 0 0 0-.1.06l-1.88 1.91Z"/><path fill="#FC4000" d="M12.94 16.32a12.46 12.46 0 0 0 4.33 1.06c.04 0 .07-.01.1-.04a.14.14 0 0 0 .04-.1V15a.2.2 0 0 0-.04-.13.22.22 0 0 0-.12-.07l-2.22-.46a.17.17 0 0 0-.11 0 .26.26 0 0 0-.1.06l-1.88 1.91ZM3.72 7.17l1.9-1.8a.19.19 0 0 0 .06-.12v-.13L5.2 2.75a.22.22 0 0 0-.07-.12.2.2 0 0 0-.13-.04H2.75a.14.14 0 0 0-.15.14 13.54 13.54 0 0 0 1.12 4.44Z"/></svg>
