<svg xmlns="http://www.w3.org/2000/svg" fill="none" viewBox="0 0 20 20"><g clip-path="url(#a)"><path fill="#F60" d="M10.8 9.7V5.5c0-.2 0-.4-.2-.5a.8.8 0 0 0-.6-.3l-.6.3-.2.5V10a1 1 0 0 0 .3.7l3.6 3.6c.1.2.3.2.6.2.2 0 .4 0 .5-.2.2-.1.2-.3.2-.5 0-.3 0-.4-.2-.6l-3.4-3.4ZM10 20a9.7 9.7 0 0 1-7-3A10.1 10.1 0 0 1 .7 6.2 10.1 10.1 0 0 1 10 0a9.7 9.7 0 0 1 7 3 10.1 10.1 0 0 1 2.2 10.9A10.1 10.1 0 0 1 10 20Zm0-1.6c2.3 0 4.3-.8 6-2.4a8.1 8.1 0 0 0 2.4-6c0-2.3-.8-4.3-2.4-6a8.1 8.1 0 0 0-6-2.4c-2.3 0-4.3.8-6 2.4a8.1 8.1 0 0 0-2.4 6c0 2.3.8 4.3 2.4 6a8.1 8.1 0 0 0 6 2.4Z"/></g><defs><clipPath id="a"><path fill="#fff" d="M0 0h20v20H0z"/></clipPath></defs></svg>
