<svg xmlns="http://www.w3.org/2000/svg" width="20" height="20" fill="none"><path fill="#FFC107" d="m5.85 16.11 4.15-2.5 4.15 2.54-1.08-4.75 3.66-3.16-4.82-.43L10 3.32 8.09 7.77l-4.82.43 3.66 3.2-1.08 4.71Zm4.15-.95-4.79 2.9a.7.7 0 0 1-.39.08.85.85 0 0 1-.35-.13.66.66 0 0 1-.26-.3.56.56 0 0 1-.01-.42l1.27-5.42-4.21-3.65a.68.68 0 0 1-.24-.35.56.56 0 0 1 .03-.38.82.82 0 0 1 .22-.3c.09-.08.21-.13.37-.16l5.56-.49 2.16-5.13a.61.61 0 0 1 .26-.31c.11-.07.24-.1.38-.1s.27.03.38.1c.11.06.2.17.26.31l2.16 5.13 5.56.49c.16.03.28.08.37.16.1.07.17.17.22.3.06.12.06.25.03.38a.68.68 0 0 1-.24.35l-4.21 3.65 1.27 5.42c.05.15.05.3-.01.42a.66.66 0 0 1-.26.3.85.85 0 0 1-.35.13.7.7 0 0 1-.4-.09L10 15.16Z"/><path fill="#FFC107" d="m5.85 16.11 4.15-2.5 4.15 2.54-1.08-4.75 3.66-3.16-4.82-.43L10 3.32 8.09 7.77l-4.82.43 3.66 3.2-1.08 4.71Z"/></svg>
