<svg xmlns="http://www.w3.org/2000/svg" width="18" height="18" fill="none"><path fill="#FFC107" d="M4.85 15.12 9 12.6l4.15 2.54-1.08-4.75 3.66-3.16-4.82-.43L9 2.32 7.09 6.77l-4.82.43 3.66 3.2-1.08 4.71ZM9 14.16l-4.79 2.9a.7.7 0 0 1-.39.08.85.85 0 0 1-.35-.13.66.66 0 0 1-.26-.3.56.56 0 0 1-.01-.42l1.27-5.42L.26 7.22a.68.68 0 0 1-.24-.35.56.56 0 0 1 .03-.38.82.82 0 0 1 .22-.3c.09-.08.21-.13.37-.16l5.56-.49L8.36.41A.61.61 0 0 1 8.62.1C8.73.03 8.86 0 9 0s.27.03.38.1c.11.06.2.17.26.31l2.16 5.13 5.56.49c.16.03.28.08.37.16.1.07.17.17.22.3.06.12.06.25.03.38a.68.68 0 0 1-.24.35l-4.21 3.65 1.27 5.42c.05.15.05.3-.01.42a.66.66 0 0 1-.26.3.85.85 0 0 1-.35.13.7.7 0 0 1-.4-.09L9 14.16Z"/><path fill="#FFC107" d="M4.85 15.12 9 12.6l4.15 2.54-1.08-4.75 3.66-3.16-4.82-.43L9 2.32 7.09 6.77l-4.82.43 3.66 3.2-1.08 4.71Z"/></svg>
