<svg xmlns="http://www.w3.org/2000/svg" width="20" height="20" fill="none"><path fill="#7E57C2" d="M14.52 11.84c-.52-.45-.77-.59-1.5-1.02-.3-.19-.77-.34-1.01-.34-.17 0-.37.12-.49.25-.31.3-.41.7-.96.7-.54 0-1.47-.55-2.14-1.25-.7-.67-1.25-1.6-1.25-2.14 0-.55.38-.66.7-.97.12-.13.25-.32.25-.5 0-.23-.16-.7-.34-1-.44-.73-.57-.97-1.02-1.5a.65.65 0 0 0-.5-.26c-.3 0-.7.15-.98.35-.4.3-.83.72-.94 1.23l-.03.21c-.02.54.19 1.08.42 1.54a16.27 16.27 0 0 0 2 3.08c.25.3.52.58.8.85a16.27 16.27 0 0 0 3.92 2.8c.46.22 1 .43 1.53.42l.22-.03c.52-.12.93-.54 1.23-.95.2-.27.36-.67.36-.97a.65.65 0 0 0-.27-.5Zm.27-2.32a.48.48 0 0 1-.48-.47v-.48a4.3 4.3 0 0 0-4.29-4.28.48.48 0 0 1 0-.96 5.24 5.24 0 0 1 5.24 5.24v.48c0 .26-.21.47-.47.47Zm-2.93-.95a.48.48 0 0 1-.46-.35c-.13-.5-.52-.9-1.02-1.02a.48.48 0 0 1 .24-.93c.83.22 1.48.87 1.7 1.7a.48.48 0 0 1-.46.6Z"/><path fill="#7E57C2" d="M13.36 9.05a.48.48 0 0 1-.48-.48 2.85 2.85 0 0 0-2.7-2.85.48.48 0 1 1 .05-.95 3.8 3.8 0 0 1 3.6 3.8c0 .26-.2.48-.47.48Z"/><path fill="#7E57C2" d="M10.02 0C7.88 0 4.54.2 2.51 2.06 1.07 3.49.5 5.5.5 8.1v1.42c0 2.6.56 4.61 2 6.04.77.71 1.74 1.18 2.75 1.48v2.19c0 .76.5.77.6.77.23 0 .44-.12.64-.3.08-.07.96-1.05 1.93-2.13.57.04 1.11.05 1.6.05 2.14 0 5.48-.2 7.51-2.06 1.44-1.43 2-3.44 2-6.04V8.1c0-2.6-.56-4.6-2-6.04C15.51.2 12.17 0 10.02 0Zm8.1 9.36v.16c0 2.34-.5 3.93-1.57 5-1.84 1.67-5.37 1.67-6.53 1.67-.35 0-.92 0-1.6-.05l-2.2 2.47v-2.8c-1-.23-2-.63-2.73-1.28-1.06-1.08-1.56-2.67-1.56-5V8.1c0-2.34.5-3.93 1.56-5.01 1.85-1.66 5.37-1.66 6.53-1.66 1.17 0 4.69 0 6.53 1.66 1.07 1.08 1.57 2.67 1.57 5v1.27Z"/></svg>
