<svg xmlns="http://www.w3.org/2000/svg" fill="none" viewBox="0 0 20 20"><path fill="#F60" d="M10 20a9.7 9.7 0 0 1-7-3 10.1 10.1 0 0 1-3-7 9.7 9.7 0 0 1 3-7 10.1 10.1 0 0 1 7-3 9.7 9.7 0 0 1 7 3 10.2 10.2 0 0 1 3 7 9.7 9.7 0 0 1-3 7 10.2 10.2 0 0 1-7 3Zm0-1.6a14.4 14.4 0 0 0 2.3-4.5H7.7a13.4 13.4 0 0 0 2.3 4.5Zm-2-.3A11.4 11.4 0 0 1 6 14H2.6c.5 1 1.3 2 2.2 2.7 1 .8 2 1.3 3.2 1.5Zm4 0c1.2-.2 2.3-.7 3.2-1.5 1-.7 1.7-1.6 2.2-2.7H14A16.5 16.5 0 0 1 12 18ZM2 12.3h4a13.1 13.1 0 0 1 0-4.6h-4a8.3 8.3 0 0 0 0 4.6Zm5.5 0h5.2a13.2 13.2 0 0 0 0-4.6H7.4a13.2 13.2 0 0 0 0 4.6Zm6.8 0h4a8.3 8.3 0 0 0 0-4.6h-4a13 13 0 0 1 0 4.6ZM13.9 6h3.5A7.8 7.8 0 0 0 12 1.8 13 13 0 0 1 14 6.2Zm-6.2 0h4.6A13.5 13.5 0 0 0 10 1.6a12.3 12.3 0 0 0-2.3 4.5Zm-5.1 0H6A14.5 14.5 0 0 1 8 2c-1.3.2-2.3.8-3.2 1.5C3.8 4 3 5 2.6 6Z"/></svg>
