<svg width="40" height="29" viewBox="0 0 40 29" fill="none" xmlns="http://www.w3.org/2000/svg"><path d="M26.2143 16.7857C26.2143 16.9665 26.1339 17.1272 26.0134 17.2679L18.9621 24.3192C18.8415 24.4397 18.6607 24.5 18.5 24.5C18.3192 24.5 18.1585 24.4397 18.0379 24.3192L10.9665 17.2478C10.846 17.1272 10.7857 16.9464 10.7857 16.7857C10.7857 16.4442 11.067 16.1429 11.4286 16.1429H15.9286V9.07143C15.9286 8.72991 16.2299 8.42857 16.5714 8.42857H20.4286C20.7701 8.42857 21.0714 8.72991 21.0714 9.07143V16.1429H25.5714C25.933 16.1429 26.2143 16.4241 26.2143 16.7857ZM39.0714 21.2857C39.0714 17.7098 36.6004 14.596 33.1049 13.7723C33.6473 12.9487 33.9286 11.9844 33.9286 11C33.9286 8.16741 31.6183 5.85714 28.7857 5.85714C27.5603 5.85714 26.375 6.29911 25.4509 7.10268C23.8638 3.24554 20.1071 0.714286 15.9286 0.714286C10.2433 0.714286 5.64286 5.31473 5.64286 11C5.64286 11.2812 5.66295 11.5625 5.68304 11.8638C2.52902 13.3304 0.5 16.5045 0.5 20C0.5 24.9621 4.53795 29 9.5 29H31.3571C35.6161 29 39.0714 25.5446 39.0714 21.2857Z" fill="#61656F"/></svg>
