<svg width="40" height="29" fill="none" xmlns="http://www.w3.org/2000/svg"><path d="M26.214 16.786c0 .18-.08.341-.2.482l-7.052 7.051a.67.67 0 01-.462.181.637.637 0 01-.462-.18l-7.072-7.072a.67.67 0 01-.18-.462c0-.342.281-.643.643-.643h4.5V9.07c0-.341.3-.642.642-.642h3.858c.341 0 .642.3.642.642v7.072h4.5c.362 0 .643.281.643.643zm12.857 4.5a7.731 7.731 0 00-5.966-7.514A5.034 5.034 0 0033.929 11a5.153 5.153 0 00-5.143-5.143c-1.226 0-2.411.442-3.335 1.246A10.303 10.303 0 0015.929.714 10.28 10.28 0 005.643 11c0 .281.02.563.04.864A8.975 8.975 0 00.5 20c0 4.962 4.038 9 9 9h21.857a7.716 7.716 0 007.714-7.714z" fill="#61656F"/></svg>
