<svg width="14" height="14" fill="none" xmlns="http://www.w3.org/2000/svg"><path d="M7 0C3.133 0 0 3.161 0 7c0 3.867 3.133 7 7 7 3.839 0 7-3.133 7-7 0-3.839-3.161-7-7-7zm0 12.645A5.626 5.626 0 011.355 7 5.644 5.644 0 017 1.355c3.105 0 5.645 2.54 5.645 5.645A5.644 5.644 0 017 12.645zm3.02-7.197c0-1.412-1.496-2.513-2.879-2.513-1.326 0-2.173.565-2.822 1.553a.318.318 0 00.056.452l.79.592a.352.352 0 00.48-.056c.424-.536.734-.847 1.383-.847.508 0 1.13.31 1.13.819 0 .367-.311.536-.82.818-.564.339-1.326.734-1.326 1.75v.226c0 .198.141.339.339.339h1.27a.326.326 0 00.339-.34v-.168c0-.706 2.06-.734 2.06-2.625zM8.185 10.16c0-.649-.536-1.185-1.185-1.185-.677 0-1.185.536-1.185 1.185 0 .678.508 1.186 1.185 1.186.65 0 1.185-.508 1.185-1.186z" fill="#028DD8"/></svg>
