<svg width="16" height="12" viewBox="0 0 16 12" fill="none" xmlns="http://www.w3.org/2000/svg">
<path d="M15.6823 0.495579C16.1059 0.998511 16.1059 1.72467 15.6823 2.2276L7.86902 11.5044C7.3125 12.1652 6.27826 12.1652 5.72173 11.5044C5.29814 11.0015 5.29814 10.2753 5.72173 9.7724L13.535 0.495578C14.0915 -0.165193 15.1258 -0.165193 15.6823 0.495579Z" fill="#829A3A"/>
<path d="M0.317692 3.34197C0.874218 2.6812 1.90846 2.6812 2.46498 3.34197L7.87409 9.76427C8.29767 10.2672 8.29767 10.9934 7.87408 11.4963C7.31756 12.1571 6.28332 12.1571 5.72679 11.4963L0.317692 5.074C-0.105897 4.57106 -0.105897 3.84491 0.317692 3.34197Z" fill="#829A3A"/>
</svg>
