<svg width="14" height="14" viewBox="0 0 14 14" fill="none" xmlns="http://www.w3.org/2000/svg">
<path d="M13.1977 1.53117C13.6004 1.93387 13.6004 2.58678 13.1977 2.98947L2.98947 13.1977C2.58678 13.6004 1.93387 13.6004 1.53117 13.1977L0.802024 12.4686C0.399325 12.0659 0.399325 11.413 0.802024 11.0103L11.0103 0.802024C11.413 0.399326 12.0659 0.399325 12.4686 0.802024L13.1977 1.53117Z" fill="#DC6263"/>
<path d="M12.4688 13.1983C12.0661 13.601 11.4132 13.601 11.0105 13.1983L0.802257 2.99007C0.399558 2.58738 0.399558 1.93447 0.802257 1.53177L1.53141 0.802624C1.93411 0.399926 2.58701 0.399926 2.98971 0.802624L13.198 11.0109C13.6007 11.4136 13.6007 12.0665 13.198 12.4692L12.4688 13.1983Z" fill="#DC6263"/>
</svg>
