<svg width="12" height="14" fill="none" xmlns="http://www.w3.org/2000/svg"><path d="M3.964 7.813c.161 0 .322-.127.322-.305V6.492c0-.152-.161-.304-.322-.304H2.893a.317.317 0 00-.322.304v1.016c0 .178.134.304.322.304h1.071zm2.893-.305V6.492c0-.152-.16-.304-.321-.304H5.464a.317.317 0 00-.321.304v1.016c0 .178.134.304.321.304h1.072c.16 0 .321-.126.321-.304zm2.572 0V6.492c0-.152-.161-.304-.322-.304H8.036a.317.317 0 00-.322.304v1.016c0 .178.134.304.322.304h1.071c.16 0 .322-.126.322-.304zM6.857 9.945V8.93c0-.153-.16-.305-.321-.305H5.464a.317.317 0 00-.321.305v1.015c0 .178.134.305.321.305h1.072c.16 0 .321-.127.321-.305zm-2.571 0V8.93c0-.153-.161-.305-.322-.305H2.893a.317.317 0 00-.322.305v1.015c0 .178.134.305.322.305h1.071c.161 0 .322-.127.322-.305zm5.143 0V8.93c0-.153-.161-.305-.322-.305H8.036a.317.317 0 00-.322.305v1.015c0 .178.134.305.322.305h1.071c.16 0 .322-.127.322-.305zM12 3.344c0-.66-.59-1.219-1.286-1.219H9.43V.805C9.429.652 9.268.5 9.107.5H8.036a.317.317 0 00-.322.305v1.32H4.286V.805C4.286.652 4.125.5 3.964.5H2.893a.317.317 0 00-.322.305v1.32H1.286C.562 2.125 0 2.684 0 3.344v8.937c0 .686.563 1.219 1.286 1.219h9.428c.697 0 1.286-.533 1.286-1.219V3.344zm-1.286 8.785c0 .101-.08.152-.16.152H1.446c-.107 0-.16-.05-.16-.152V4.563h9.428v7.566z" fill="#61656F"/></svg>
