<svg width="12" height="14" viewBox="0 0 12 14" fill="none" xmlns="http://www.w3.org/2000/svg">
<path d="M3.96429 7.8125C4.125 7.8125 4.28571 7.68555 4.28571 7.50781V6.49219C4.28571 6.33984 4.125 6.1875 3.96429 6.1875H2.89286C2.70536 6.1875 2.57143 6.33984 2.57143 6.49219V7.50781C2.57143 7.68555 2.70536 7.8125 2.89286 7.8125H3.96429ZM6.85714 7.50781V6.49219C6.85714 6.33984 6.69643 6.1875 6.53571 6.1875H5.46429C5.27679 6.1875 5.14286 6.33984 5.14286 6.49219V7.50781C5.14286 7.68555 5.27679 7.8125 5.46429 7.8125H6.53571C6.69643 7.8125 6.85714 7.68555 6.85714 7.50781ZM9.42857 7.50781V6.49219C9.42857 6.33984 9.26786 6.1875 9.10714 6.1875H8.03572C7.84821 6.1875 7.71429 6.33984 7.71429 6.49219V7.50781C7.71429 7.68555 7.84821 7.8125 8.03572 7.8125H9.10714C9.26786 7.8125 9.42857 7.68555 9.42857 7.50781ZM6.85714 9.94531V8.92969C6.85714 8.77734 6.69643 8.625 6.53571 8.625H5.46429C5.27679 8.625 5.14286 8.77734 5.14286 8.92969V9.94531C5.14286 10.123 5.27679 10.25 5.46429 10.25H6.53571C6.69643 10.25 6.85714 10.123 6.85714 9.94531ZM4.28571 9.94531V8.92969C4.28571 8.77734 4.125 8.625 3.96429 8.625H2.89286C2.70536 8.625 2.57143 8.77734 2.57143 8.92969V9.94531C2.57143 10.123 2.70536 10.25 2.89286 10.25H3.96429C4.125 10.25 4.28571 10.123 4.28571 9.94531ZM9.42857 9.94531V8.92969C9.42857 8.77734 9.26786 8.625 9.10714 8.625H8.03572C7.84821 8.625 7.71429 8.77734 7.71429 8.92969V9.94531C7.71429 10.123 7.84821 10.25 8.03572 10.25H9.10714C9.26786 10.25 9.42857 10.123 9.42857 9.94531ZM12 3.34375C12 2.68359 11.4107 2.125 10.7143 2.125H9.42857V0.804688C9.42857 0.652344 9.26786 0.5 9.10714 0.5H8.03572C7.84821 0.5 7.71429 0.652344 7.71429 0.804688V2.125H4.28571V0.804688C4.28571 0.652344 4.125 0.5 3.96429 0.5H2.89286C2.70536 0.5 2.57143 0.652344 2.57143 0.804688V2.125H1.28571C0.5625 2.125 0 2.68359 0 3.34375V12.2812C0 12.9668 0.5625 13.5 1.28571 13.5H10.7143C11.4107 13.5 12 12.9668 12 12.2812V3.34375ZM10.7143 12.1289C10.7143 12.2305 10.6339 12.2812 10.5536 12.2812H1.44643C1.33929 12.2812 1.28571 12.2305 1.28571 12.1289V4.5625H10.7143V12.1289Z" fill="#61656F"/>
</svg>
