<svg xmlns="http://www.w3.org/2000/svg" width="13" height="13" fill="none"><path fill="#028DD8" fill-rule="evenodd" d="M5.925 1.214a4.144 4.144 0 1 1 5.861 5.86l-1.21 1.21a.813.813 0 0 1-1.15-1.148l1.211-1.21a2.52 2.52 0 0 0-3.562-3.564L5.866 3.58a.812.812 0 0 1-1.153-1.145l1.21-1.218.002-.002ZM9.18 3.82a.813.813 0 0 1 0 1.15L5.174 8.975a.813.813 0 0 1-1.15-1.149L8.03 3.821a.813.813 0 0 1 1.15 0Zm-5.598.886a.813.813 0 0 1 0 1.149L2.363 7.075a2.52 2.52 0 0 0 3.562 3.562l1.21-1.21a.813.813 0 1 1 1.15 1.149l-1.21 1.21a4.144 4.144 0 1 1-5.861-5.86l1.218-1.22a.813.813 0 0 1 1.15 0Z" clip-rule="evenodd"/></svg>
