<svg width="24" height="24" fill="none" xmlns="http://www.w3.org/2000/svg"><path d="M24 12c0-2.129-.58-4.161-1.645-6A11.753 11.753 0 0018 1.645C16.161.581 14.129 0 12 0 9.823 0 7.839.58 6 1.645 4.161 2.71 2.661 4.161 1.597 6A11.853 11.853 0 000 12c0 2.177.532 4.161 1.597 6A12.01 12.01 0 006 22.403C7.839 23.468 9.823 24 12 24c2.129 0 4.161-.532 6-1.597 1.839-1.064 3.29-2.564 4.355-4.403C23.419 16.161 24 14.177 24 12zm-13.403 6.339c-.145.193-.339.242-.532.242-.242 0-.436-.049-.533-.242L4.5 13.307c-.194-.097-.242-.29-.242-.533 0-.193.048-.387.242-.532l1.065-1.113a.777.777 0 01.532-.242c.193 0 .387.097.58.242l3.388 3.387 7.258-7.258a.777.777 0 01.532-.242c.193 0 .387.097.58.242L19.5 8.371a.777.777 0 01.242.532c0 .242-.097.436-.242.532l-8.903 8.904z" fill="#A3BD49"/></svg>
