<svg width="110" height="30" xmlns="http://www.w3.org/2000/svg" xmlns:xlink="http://www.w3.org/1999/xlink"><use xlink:href="#path0_fill" transform="translate(0 6.148)" fill="#028dd8"/><use xlink:href="#path1_fill" transform="translate(10.347)" fill="#028dd8"/><use xlink:href="#path2_fill" transform="translate(29.649 11.98)" fill="#028dd8"/><use xlink:href="#path3_fill" transform="translate(42.639 15.488)" fill="#028dd8"/><use xlink:href="#path4_fill" transform="translate(53.679 15.488)" fill="#028dd8"/><use xlink:href="#path5_fill" transform="translate(66.969 11.771)" fill="#028dd8"/><use xlink:href="#path6_fill" transform="translate(76.449 13.3)" fill="#028dd8"/><use xlink:href="#path7_fill" transform="translate(83.515 15.495)" fill="#028dd8"/><use xlink:href="#path8_fill" transform="translate(94.709 15.51)" fill="#028dd8"/><use xlink:href="#path9_fill" transform="translate(100.833 15.504)" fill="#028dd8"/><use xlink:href="#path10_fill" transform="translate(30.439 .67)" fill="#028dd8"/><use xlink:href="#path11_fill" transform="translate(36.699 2.5)" fill="#028dd8"/><use xlink:href="#path12_fill" transform="translate(42.119 2.368)" fill="#028dd8"/><use xlink:href="#path13_fill" transform="translate(47.619 .461)" fill="#028dd8"/><use xlink:href="#path14_fill" transform="translate(50.699 .33)" fill="#028dd8"/><use xlink:href="#path15_fill" transform="translate(53.219 2.394)" fill="#028dd8"/><use xlink:href="#path16_fill" transform="translate(58.819 .33)" fill="#028dd8"/><use xlink:href="#path17_fill" transform="translate(64.959 .33)" fill="#028dd8"/><use xlink:href="#path18_fill" transform="translate(67.477 2.4)" fill="#028dd8"/><use xlink:href="#path19_fill" transform="translate(75.731 2.399)" fill="#028dd8"/><use xlink:href="#path20_fill" transform="translate(81.999 2.4)" fill="#028dd8"/><use xlink:href="#path21_fill" transform="translate(89.959 1.32)" fill="#028dd8"/><use xlink:href="#path22_fill" transform="translate(94.399 .33)" fill="#028dd8"/><use xlink:href="#path23_fill" transform="translate(99.587 2.4)" fill="#028dd8"/><defs><path id="path0_fill" d="M17.349 7.412a5.8 5.8 0 0 1 2.76-4.86 5.94 5.94 0 0 0-4.68-2.53c-2-.21-3.87 1.18-4.88 1.18-1.01 0-2.56-1.16-4.23-1.12a6.22 6.22 0 0 0-5.24 3.2c-2.27 3.92-.58 9.69 1.59 12.86 1.09 1.55 2.35 3.29 4 3.23 1.65-.06 2.23-1 4.19-1 1.96 0 2.51 1 4.21 1 1.7 0 2.84-1.56 3.89-3.13a12.823 12.823 0 0 0 1.78-3.62 5.61 5.61 0 0 1-3.39-5.21z"/><path id="path1_fill" d="M3.802 4.09A5.71 5.71 0 0 0 5.112 0a5.81 5.81 0 0 0-3.76 1.94 5.43 5.43 0 0 0-1.34 3.94 4.8 4.8 0 0 0 3.79-1.79z"/><path id="path2_fill" d="M11.24 13.3H8.96L7.72 9.39H3.4L2.21 13.3H0L4.28 0h2.65l4.31 13.3zm-3.9-5.5L6.22 4.33c-.12-.387-.337-1.23-.65-2.53-.133.567-.343 1.403-.63 2.51L3.77 7.8h3.57z"/><path id="path3_fill" d="M9.24 4.882a5.43 5.43 0 0 1-1.33 3.87 3.9 3.9 0 0 1-3 1.26 3 3 0 0 1-2.74-1.36v5H.08v-10.3C.08 2.326.053 1.276 0 .202h1.88L2 1.722a3.79 3.79 0 0 1 6.07-.38 5.31 5.31 0 0 1 1.17 3.54zm-2.17.08a4 4 0 0 0-.63-2.31 2.18 2.18 0 0 0-1.86-.95 2.22 2.22 0 0 0-1.43.52 2.42 2.42 0 0 0-.84 1.37 2.79 2.79 0 0 0-.1.65v1.6a2.57 2.57 0 0 0 .64 1.77 2.13 2.13 0 0 0 1.67.72 2.18 2.18 0 0 0 1.87-.93 4.08 4.08 0 0 0 .68-2.44z"/><path id="path4_fill" d="M9.24 4.882a5.44 5.44 0 0 1-1.33 3.87 3.9 3.9 0 0 1-3 1.26 3 3 0 0 1-2.74-1.36v5H.08v-10.3C.08 2.326.053 1.276 0 .202h1.88L2 1.722a3.79 3.79 0 0 1 6.07-.38 5.31 5.31 0 0 1 1.17 3.54zm-2.17.08a4 4 0 0 0-.63-2.31 2.18 2.18 0 0 0-1.9-.95 2.22 2.22 0 0 0-1.43.52 2.42 2.42 0 0 0-.84 1.37 2.83 2.83 0 0 0-.1.65v1.6a2.57 2.57 0 0 0 .64 1.77 2.14 2.14 0 0 0 1.73.68 2.18 2.18 0 0 0 1.87-.93 4.09 4.09 0 0 0 .66-2.4z"/><path id="path5_fill" d="M8.25 9.78a3.55 3.55 0 0 1-1.18 2.76 5.24 5.24 0 0 1-3.62 1.17A6.33 6.33 0 0 1 0 12.88l.49-1.78a5.93 5.93 0 0 0 3.08.83 2.9 2.9 0 0 0 1.87-.54 1.77 1.77 0 0 0 .67-1.45 1.86 1.86 0 0 0-.55-1.36 5.15 5.15 0 0 0-1.84-1C1.407 6.691.25 5.411.25 3.74A3.37 3.37 0 0 1 1.5 1.01a4.88 4.88 0 0 1 3.27-1 6.46 6.46 0 0 1 3 .63l-.52 1.74a5.28 5.28 0 0 0-2.56-.61 2.6 2.6 0 0 0-1.76.55 1.58 1.58 0 0 0-.54 1.21A1.63 1.63 0 0 0 3 4.83a6.9 6.9 0 0 0 1.93 1 6.56 6.56 0 0 1 2.53 1.62c.548.648.83 1.48.79 2.33z"/><path id="path6_fill" d="M5.88 3.99H3.53v4.66c0 1.187.413 1.78 1.24 1.78.32.008.639-.026.95-.1l.05 1.61a4.82 4.82 0 0 1-1.66.24 2.56 2.56 0 0 1-2-.77 3.78 3.78 0 0 1-.71-2.59V3.98H0v-1.6h1.4V.63L3.49 0v2.38h2.35l.04 1.61z"/><path id="path7_fill" d="M9.394 4.915a5.26 5.26 0 0 1-1.26 3.63 4.51 4.51 0 0 1-3.51 1.46 4.29 4.29 0 0 1-3.37-1.4 5.1 5.1 0 0 1-1.25-3.53 5.23 5.23 0 0 1 1.29-3.65 4.48 4.48 0 0 1 3.49-1.42 4.39 4.39 0 0 1 3.4 1.4 5 5 0 0 1 1.21 3.51zm-2.21 0a4.3 4.3 0 0 0-.57-2.26 2.11 2.11 0 0 0-1.91-1.1 2.14 2.14 0 0 0-2 1.14 4.36 4.36 0 0 0-.57 2.3 4.28 4.28 0 0 0 .57 2.29 2.19 2.19 0 0 0 3.85 0 4.32 4.32 0 0 0 .63-2.32v-.05z"/><path id="path8_fill" d="M5.13 2.05a3.699 3.699 0 0 0-.67-.06 2 2 0 0 0-1.74.85 3.2 3.2 0 0 0-.53 1.89v5H.06V3.2c0-1.1 0-2.11-.06-3h1.86l.08 1.84H2A3.29 3.29 0 0 1 3.07.52 2.58 2.58 0 0 1 4.61.01a3.5 3.5 0 0 1 .53 0v2l-.01.04z"/><path id="path9_fill" d="M8.546 4.526a5 5 0 0 1-.08 1h-6.4a2.78 2.78 0 0 0 .93 2.17 3.17 3.17 0 0 0 2.09.67 7.06 7.06 0 0 0 2.59-.45l.33 1.48a8 8 0 0 1-3.22.59 4.66 4.66 0 0 1-3.51-1.31 4.85 4.85 0 0 1-1.27-3.52 5.5 5.5 0 0 1 1.19-3.61 4.09 4.09 0 0 1 3.36-1.54 3.57 3.57 0 0 1 3.14 1.54 5.17 5.17 0 0 1 .85 2.98zm-2-.55a2.89 2.89 0 0 0-.41-1.64 1.86 1.86 0 0 0-1.7-.89 2 2 0 0 0-1.7.87 3.19 3.19 0 0 0-.63 1.66h4.44z"/><path id="path10_fill" d="M5.53 6.54H4.41l-.63-1.92H1.67l-.58 1.92H0L2.11 0h1.3l2.12 6.54zM3.62 3.81l-.56-1.7C3 1.94 2.9 1.53 2.73.88c-.07.28-.16.69-.31 1.23l-.54 1.71 1.74-.01z"/><path id="path11_fill" d="M4.52 0L2.73 4.72h-1L0 0h1.13l.81 2.49c.14.42.25.81.34 1.19.08-.34.19-.74.34-1.19L3.42 0h1.1z"/><path id="path12_fill" d="M2.91 4.842l-.08-.54a1.61 1.61 0 0 1-1.38.65A1.37 1.37 0 0 1 0 3.562c0-1.16 1-1.77 2.76-1.77v-.08c0-.62-.33-.93-1-.93a2.2 2.2 0 0 0-1.23.35L.31.412a3 3 0 0 1 1.62-.41c1.23 0 1.85.65 1.85 2v1.74c-.007.378.016.756.07 1.13l-.94-.03zm-.15-2.35c-1.16 0-1.75.28-1.75 1a.67.67 0 0 0 .72.74 1 1 0 0 0 1-1l.03-.74z"/><path id="path13_fill" d="M.6 1.26a.63.63 0 1 1 .66-.63.62.62 0 0 1-.66.63zm.54 5.49h-1V2.04h1v4.71z"/><path id="path14_fill" d="M1 6.88H0V0h1v6.88z"/><path id="path15_fill" d="M2.93 4.816l-.08-.54a1.61 1.61 0 0 1-1.38.65A1.37 1.37 0 0 1 0 3.536c0-1.16 1-1.77 2.76-1.77v-.08c0-.62-.33-.93-1-.93a2.2 2.2 0 0 0-1.23.35l-.2-.72A3 3 0 0 1 2 .006c1.23 0 1.85.65 1.85 2v1.74a7.29 7.29 0 0 0 .07 1.13l-.99-.06zm-.15-2.35c-1.16 0-1.75.28-1.75 1a.67.67 0 0 0 .72.74 1 1 0 0 0 1-1l.03-.74z"/><path id="path16_fill" d="M2.45 6.99a1.6 1.6 0 0 1-1.48-.83l-.06.73H0V0h1v2.86a1.62 1.62 0 0 1 1.5-.79c1.14 0 1.93 1 1.93 2.39a2.27 2.27 0 0 1-1.98 2.53zm-.21-4.1a1.21 1.21 0 0 0-1.16 1.25v.83a1.16 1.16 0 0 0 1.14 1.18c.79 0 1.25-.64 1.25-1.66s-.48-1.6-1.23-1.6z"/><path id="path17_fill" d="M1 6.88H0V0h1v6.88z"/><path id="path18_fill" d="M4.182 2.71h-3.15a1.35 1.35 0 0 0 1.48 1.4 3.54 3.54 0 0 0 1.27-.22l.16.73a3.93 3.93 0 0 1-1.58.29 2.19 2.19 0 0 1-2.35-2.38A2.3 2.3 0 0 1 2.242 0a2 2 0 0 1 2 2.24 2 2 0 0 1-.06.47zm-1-.75c0-.73-.37-1.24-1-1.24a1.24 1.24 0 0 0-1.15 1.24h2.15z"/><path id="path19_fill" d="M2.278 4.92a2.25 2.25 0 0 1-2.27-2.43A2.3 2.3 0 0 1 2.358 0a2.23 2.23 0 0 1 2.27 2.38 2.31 2.31 0 0 1-2.35 2.54zm0-4.15c-.76 0-1.24.71-1.24 1.7s.5 1.68 1.23 1.68 1.23-.76 1.23-1.7S3.058.77 2.318.77h-.04z"/><path id="path20_fill" d="M4 4.81H3v-2.7C3 1.28 2.68.86 2 .86a1.09 1.09 0 0 0-1 1.15v2.81H0V1.44.09h.92v.73A1.69 1.69 0 0 1 2.41 0c1 0 1.64.76 1.64 2v2.83L4 4.81z"/><path id="path21_fill" d="M2.89 1.96H1.74v2.29c0 .58.203.87.61.87.156.018.314.018.47 0v.8a2.33 2.33 0 0 1-.81.12c-.83 0-1.32-.46-1.32-1.65V1.96H0v-.78h.69V.31l1-.31v1.18h1.15l.05.78z"/><path id="path22_fill" d="M4 6.88H3V4.2c0-.84-.32-1.27-1-1.27a1 1 0 0 0-1 1.12v2.84H0V0h1v2.84a1.59 1.59 0 0 1 1.42-.77c1 0 1.61.78 1.61 2L4 6.88z"/><path id="path23_fill" d="M4.172 2.71h-3.14a1.35 1.35 0 0 0 1.48 1.4 3.52 3.52 0 0 0 1.27-.22l.16.73a3.93 3.93 0 0 1-1.58.29 2.19 2.19 0 0 1-2.35-2.38A2.3 2.3 0 0 1 2.242 0a2 2 0 0 1 2 2.24 2 2 0 0 1-.07.47zm-1-.75c0-.73-.37-1.24-1-1.24a1.24 1.24 0 0 0-1.15 1.24h2.15z"/></defs></svg>