<svg width="113" height="30" xmlns="http://www.w3.org/2000/svg" xmlns:xlink="http://www.w3.org/1999/xlink"><use xlink:href="#path0_fill" transform="translate(32.685 1.28)" fill="#fff"/><use xlink:href="#path1_fill" transform="translate(38.861 2.91)" fill="#fff"/><use xlink:href="#path2_fill" transform="translate(43.59 1.74)" fill="#fff"/><use xlink:href="#path3_fill" transform="translate(49.647 .77)" fill="#fff"/><use xlink:href="#path4_fill" transform="translate(51.87 1.74)" fill="#fff"/><use xlink:href="#path5_fill" transform="translate(57.731 2.91)" fill="#fff"/><use xlink:href="#path6_fill" transform="translate(63.55 2.91)" fill="#fff"/><use xlink:href="#path7_fill" transform="translate(86.5 16.887)" fill="#fff"/><use xlink:href="#path8_fill" transform="translate(95.13 13.68)" fill="#fff"/><use xlink:href="#path9_fill" transform="translate(97.756 16.919)" fill="#fff"/><use xlink:href="#path10_fill" transform="translate(104.9 17.04)" fill="#fff"/><use xlink:href="#path11_fill" transform="translate(61.55 17.183)" fill="#fff"/><use xlink:href="#path12_fill" transform="translate(53.19 16.936)" fill="#fff"/><use xlink:href="#path13_fill" transform="translate(44.14 16.936)" fill="#fff"/><use xlink:href="#path14_fill" transform="translate(31.289 13.15)" fill="#fff"/><use xlink:href="#path15_fill" transform="translate(69.52 12.78)" fill="#fff"/><use xlink:href="#path16_fill" transform="translate(73.879 16.95)" fill="#fff"/><use xlink:href="#path17_fill" transform="translate(81.04 16.95)" fill="#fff"/><use xlink:href="#path18_fill" transform="translate(82.13 16.95)" fill="#fff"/><use xlink:href="#path19_fill" transform="translate(0 .1)" fill="url(#paint19_linear)"/><use xlink:href="#path20_fill" fill="url(#paint20_linear)"/><use xlink:href="#path21_fill" transform="translate(0 13.33)" fill="url(#paint21_linear)"/><use xlink:href="#path22_fill" transform="translate(13.91 9.78)" fill="url(#paint22_linear)"/><defs><linearGradient id="paint19_linear" x2="1" gradientUnits="userSpaceOnUse" gradientTransform="matrix(0 26.46 -26.46 0 20.19 0)"><stop offset="0" stop-color="#207CB0"/><stop offset=".38" stop-color="#3CB2BF"/><stop offset=".8" stop-color="#58E9CE"/><stop offset="1" stop-color="#63FFD4"/></linearGradient><linearGradient id="paint20_linear" x2="1" gradientUnits="userSpaceOnUse" gradientTransform="translate(0 -2.165) scale(17.65)"><stop offset="0" stop-color="#4BC3AE"/><stop offset="1" stop-color="#DEE999"/></linearGradient><linearGradient id="paint21_linear" x2="1" gradientUnits="userSpaceOnUse" gradientTransform="matrix(0 13.33 -13.33 0 15.495 0)"><stop offset="0" stop-color="#EC403D"/><stop offset=".38" stop-color="#C93B75"/><stop offset=".8" stop-color="#A636AC"/><stop offset="1" stop-color="#9934C2"/></linearGradient><linearGradient id="paint22_linear" x2="1" gradientUnits="userSpaceOnUse" gradientTransform="matrix(0 7.1 -7.1 0 8.63 0)"><stop offset="0" stop-color="#F87"/><stop offset=".61" stop-color="#FFB175"/><stop offset="1" stop-color="#FFC774"/></linearGradient><path id="path0_fill" d="M3.135 0a2.65 2.65 0 0 1 1.95.83l-.64.72a1.71 1.71 0 0 0-1.3-.54c-1.16 0-1.94.9-1.94 2.37 0 1.47.7 2.39 2 2.39a1.44 1.44 0 0 0 .93-.29V4.06h-1.22v-.95h2.27v2.88a3.16 3.16 0 0 1-2.11.78c-1.74 0-3.06-1.2-3.06-3.37A3.1 3.1 0 0 1 3.135 0z"/><path id="path1_fill" d="M2.279 0c1.33 0 2 1 2 2.33.02.18.02.36 0 .54h-3.17a1.41 1.41 0 0 0 1.45 1.39 2 2 0 0 0 1.14-.36l.41.73a3.1 3.1 0 0 1-1.68.53 2.37 2.37 0 0 1-2.42-2.57A2.39 2.39 0 0 1 2.279 0zm1 2.14c0-.78-.33-1.25-1-1.25-.67 0-1.05.42-1.17 1.24l2.17.01z"/><path id="path2_fill" d="M.7 2.19H0v-.85h.76L.9 0h1v1.29h1.25v.91H1.86v2.34c0 .58.22.86.69.86a1.41 1.41 0 0 0 .51-.11l.2.85a3.13 3.13 0 0 1-1 .18C1.12 6.32.7 5.6.7 4.54V2.19z"/><path id="path3_fill" d="M.003.77a.71.71 0 1 1 .71.65.66.66 0 0 1-.71-.65zm.13 1.51h1.19v4.91H.133V2.28z"/><path id="path4_fill" d="M.7 2.19H0v-.85h.76L.9 0h1v1.29h1.2v.91H1.86v2.34c0 .58.22.86.69.86a1.41 1.41 0 0 0 .51-.11l.2.85a3.13 3.13 0 0 1-1 .18C1.12 6.32.7 5.6.7 4.54V2.19z"/><path id="path5_fill" d="M2.34 0a2.38 2.38 0 0 1 2.34 2.58 2.34 2.34 0 1 1-4.67 0A2.37 2.37 0 0 1 2.34 0zm0 4.21c.72 0 1.16-.65 1.16-1.63C3.5 1.6 3.06.93 2.34.93s-1.1.7-1.1 1.64.38 1.63 1.1 1.63v.01z"/><path id="path6_fill" d="M0 .12h.95l.08.66A2.28 2.28 0 0 1 2.64 0c1.05 0 1.51.71 1.51 1.95v3.08H3.04V2.09c0-.81-.23-1.11-.77-1.11a1.55 1.55 0 0 0-1.12.61v3.43H0V.12z"/><path id="path7_fill" d="M3.72 8.293a3.45 3.45 0 0 1-1.43-.29 2.67 2.67 0 0 1-1.08-.89h-.09c.058.441.088.886.09 1.33v3.29H0V.153h1l.17 1.09h.06a2.82 2.82 0 0 1 1.09-.95 3.33 3.33 0 0 1 1.42-.29 3 3 0 0 1 2.46 1.09 4.8 4.8 0 0 1 .86 3.05 4.77 4.77 0 0 1-.88 3.06 3 3 0 0 1-2.46 1.09zm-.18-7.26a2.14 2.14 0 0 0-1.77.68 3.49 3.49 0 0 0-.56 2.16v.27a4 4 0 0 0 .56 2.41 2.14 2.14 0 0 0 1.8.73 1.87 1.87 0 0 0 1.62-.84 4 4 0 0 0 .59-2.31 3.82 3.82 0 0 0-.59-2.29 1.93 1.93 0 0 0-1.65-.81z"/><path id="path8_fill" d="M1.21 11.35H0V0h1.21v11.35z"/><path id="path9_fill" d="M5.544 8.11l-.24-1.14h-.09a3.33 3.33 0 0 1-1.19 1 3.64 3.64 0 0 1-1.48.27 2.68 2.68 0 0 1-1.86-.61 2.24 2.24 0 0 1-.68-1.74c0-1.613 1.29-2.46 3.87-2.54h1.36v-.5a2 2 0 0 0-.41-1.39 1.67 1.67 0 0 0-1.3-.45 5.27 5.27 0 0 0-2.26.61L.894.69a5.86 5.86 0 0 1 1.29-.5c.46-.119.934-.18 1.41-.18a3 3 0 0 1 2.12.64 2.65 2.65 0 0 1 .69 2v5.46h-.86zm-2.73-.85a2.46 2.46 0 0 0 1.78-.62 2.3 2.3 0 0 0 .64-1.74v-.72h-1.21a4.39 4.39 0 0 0-2.08.45 1.35 1.35 0 0 0-.64 1.24 1.24 1.24 0 0 0 .4 1c.31.263.704.402 1.11.39z"/><path id="path10_fill" d="M0 0h1.3l1.77 4.56c.287.733.525 1.485.71 2.25h.06c.06-.25.2-.67.4-1.27s.86-2.45 2-5.54h1.3L4.07 9.1a4.55 4.55 0 0 1-1.19 1.92 2.53 2.53 0 0 1-1.67.57 4.921 4.921 0 0 1-1.14-.09v-1c.296.063.598.093.9.09a1.85 1.85 0 0 0 1.78-1.4l.45-1.14L0 0z"/><path id="path11_fill" d="M6.24.597a2.73 2.73 0 0 1-.22 4.63 1.18 1.18 0 0 0-.47.82.92.92 0 0 0 .44.72l.6.47a2.91 2.91 0 0 1 1.4 2.34c0 1.57-1.52 3.16-4.4 3.16-2.43 0-3.59-1.15-3.59-2.39a2.41 2.41 0 0 1 1.29-2 7.21 7.21 0 0 1 3.19-.77 1.75 1.75 0 0 1-.5-1.13 1.52 1.52 0 0 1 .17-.66h-.54a2.64 2.64 0 0 1-2.78-2.62A3 3 0 0 1 1.9.927a4.56 4.56 0 0 1 3-.92h3.44l-1.07.6-1.03-.01zm-1.19 7.43a2.58 2.58 0 0 0-.38 0 6.63 6.63 0 0 0-1.76.27 1.88 1.88 0 0 0-1.44 1.72c0 1.19 1.15 2 2.94 2 1.61 0 2.46-.77 2.46-1.81 0-.85-.55-1.28-1.82-2.18zm.48-3.18a1.69 1.69 0 0 0 .42-1.22c0-1.2-.72-3.08-2.11-3.08a1.57 1.57 0 0 0-1.17.55 1.93 1.93 0 0 0-.36 1.26c0 1.12.65 3 2.09 3a1.7 1.7 0 0 0 1.13-.51z"/><path id="path12_fill" d="M4.07 8.004A3.94 3.94 0 0 1 0 4.064 4.14 4.14 0 0 1 4.32.004a3.9 3.9 0 0 1 4 3.94 4.08 4.08 0 0 1-4.25 4.06zm2.09-1.4a3 3 0 0 0 .5-1.85c0-1.47-.7-4.27-2.77-4.27a2.32 2.32 0 0 0-1.5.57 2.53 2.53 0 0 0-.77 2c0 1.65.82 4.37 2.84 4.37a2.13 2.13 0 0 0 1.7-.82z"/><path id="path13_fill" d="M4.07 8.004A3.94 3.94 0 0 1 0 4.064 4.14 4.14 0 0 1 4.32.004a3.9 3.9 0 0 1 4 3.94 4.08 4.08 0 0 1-4.25 4.06zm2.09-1.4a3 3 0 0 0 .5-1.85c0-1.47-.7-4.27-2.77-4.27a2.33 2.33 0 0 0-1.5.57 2.52 2.52 0 0 0-.77 2c0 1.65.82 4.37 2.84 4.37a2.14 2.14 0 0 0 1.7-.82z"/><path id="path14_fill" d="M11.57 11.53l-2.4.55a17.83 17.83 0 0 1-2.77.28A6 6 0 0 1 0 6.28C0 3.02 2.5 0 6.78 0a9.68 9.68 0 0 1 2.57.35 6.53 6.53 0 0 1 2.22 1l-1.39 1.38-.59.13.42-.67A4.8 4.8 0 0 0 6.42.61a4.64 4.64 0 0 0-4.65 5 5.94 5.94 0 0 0 5.91 6.09 5 5 0 0 0 2.13-.42v-2.7l-2.53.13 1.4-.73h3.56l-.44.42a.39.39 0 0 0-.17.27v.8l-.06 2.06z"/><path id="path15_fill" d="M3.57 11.42c-.55-.05-.67-.15-.67-.81V1c.07-.59.24-.69.76-1h-2.4L0 .6h1.28v10.38c0 .33-.07.39-.45.89h3l.62-.37-.88-.08z"/><path id="path16_fill" d="M6.09 7.4c-.18.1-.37.22-.55.3a3.86 3.86 0 0 1-1.62.32 3.56 3.56 0 0 1-2.22-.65A4.31 4.31 0 0 1 0 3.85 3.78 3.78 0 0 1 3.82 0a3.25 3.25 0 0 1 1.72.47c.581.385.995.974 1.16 1.65L2.78 3.7l-1.29.1c.42 2.12 1.85 3.35 3.43 3.35a4.32 4.32 0 0 0 2-.58l-.83.83zm-1.57-5c.32-.12.48-.22.48-.45A1.65 1.65 0 0 0 3.31.59a2.05 2.05 0 0 0-1.92 2.32c0 .28 0 .58.05.88L4.52 2.4z"/><path id="path17_fill" d="M.49.11v1.1H.36V.11H0V0h.86v.11H.49z"/><path id="path18_fill" d="M.9 1.21V.1L.56 1.21h-.1L.12.1v1.11H0V0h.21l.31 1 .31-1h.21v1.21H.9z"/><path id="path19_fill" d="M0 0v26.46l13.91-13.23L0 0z"/><path id="path20_fill" d="M17.65 9.78l-5.61-3.11L0 0v.1l13.91 13.23 3.74-3.55z"/><path id="path21_fill" d="M0 13.23v.1l12.04-6.67 5.61-3.1L13.91 0 0 13.23z"/><path id="path22_fill" d="M3.74 0L0 3.55l3.74 3.56 6.42-3.56L3.74 0z"/></defs></svg>