<svg width="10" height="15" fill="none" xmlns="http://www.w3.org/2000/svg"><path d="M5.833 4.219V.5H.625C.26.5 0 .8 0 1.156v12.688c0 .383.26.656.625.656h8.75c.339 0 .625-.273.625-.656V4.875H6.458c-.364 0-.625-.273-.625-.656zM7.5 10.672a.325.325 0 01-.313.328H2.813c-.182 0-.312-.137-.312-.328v-.219c0-.164.13-.328.313-.328h4.374c.157 0 .313.164.313.328v.219zm0-1.75a.325.325 0 01-.313.328H2.813c-.182 0-.312-.137-.312-.328v-.219c0-.164.13-.328.313-.328h4.374c.157 0 .313.164.313.328v.219zm0-1.969v.219a.325.325 0 01-.313.328H2.813c-.182 0-.312-.137-.312-.328v-.219c0-.164.13-.328.313-.328h4.374c.157 0 .313.164.313.328zM10 3.836a.797.797 0 00-.182-.465L7.266.691C7.136.582 6.979.5 6.823.5h-.156V4H10v-.164z" fill="#028DD8"/></svg>
