<svg width="15" height="17" fill="none" xmlns="http://www.w3.org/2000/svg"><path d="M5.568 6.964v5.786c0 .094-.03.17-.09.231a.313.313 0 01-.232.09h-.643a.313.313 0 01-.23-.09.313.313 0 01-.091-.231V6.964c0-.093.03-.17.09-.23.06-.061.138-.091.231-.091h.643c.094 0 .171.03.231.09s.09.138.09.231zm2.571 0v5.786c0 .094-.03.17-.09.231a.313.313 0 01-.231.09h-.643a.313.313 0 01-.231-.09.313.313 0 01-.09-.231V6.964c0-.093.03-.17.09-.23.06-.061.137-.091.23-.091h.644c.093 0 .17.03.23.09.061.06.091.138.091.231zm2.572 0v5.786c0 .094-.03.17-.09.231a.313.313 0 01-.232.09h-.643a.313.313 0 01-.23-.09.313.313 0 01-.091-.231V6.964c0-.093.03-.17.09-.23.06-.061.137-.091.231-.091h.643c.094 0 .17.03.231.09.06.06.09.138.09.231zm1.285 7.273V4.714h-9v9.523a1.182 1.182 0 00.211.683c.054.053.09.08.11.08h8.358c.02 0 .053-.027.1-.08a.908.908 0 00.15-.272c.048-.127.071-.264.071-.411zM5.246 3.429h4.5l-.482-1.176a.283.283 0 00-.17-.11H5.908a.283.283 0 00-.17.11L5.245 3.43zm9.322.321v.643c0 .094-.03.17-.09.23a.313.313 0 01-.232.091h-.964v9.523c0 .555-.157 1.034-.472 1.436-.315.408-.693.613-1.135.613H3.318c-.442 0-.82-.198-1.135-.593-.315-.388-.472-.86-.472-1.416V4.714H.746a.313.313 0 01-.23-.09.313.313 0 01-.091-.231V3.75c0-.094.03-.17.09-.231.06-.06.137-.09.231-.09H3.85l.703-1.678c.1-.248.281-.459.543-.633.26-.174.525-.26.793-.26h3.214c.268 0 .533.086.794.26.261.174.442.385.542.633l.703 1.678h3.104c.094 0 .171.03.231.09s.09.137.09.231z" fill="#9A9A9A"/></svg>
