<svg viewBox="0 0 26 26" xmlns="http://www.w3.org/2000/svg"><path d="M10.988 20.977v-.052c.937-.242 1.787-1.155 2.46-2.528l.659 1.951c-.98.36-2.027.578-3.119.629zm9.296-6.702c.398-1.027.638-2.132.692-3.286h-5.993c-.012.607-.047 1.2-.101 1.775l5.402 1.511zm-6.382-1.78c.043-.489.07-.992.08-1.506h-2.994v4h1.31l-.222-.657c-.36-1.07.674-2.08 1.826-1.838zm-1.267 3.494h-1.647v3.872c.169-.084.352-.215.55-.41.416-.41.837-1.056 1.213-1.932.075-.175.147-.357.217-.546l-.333-.984zM9.988 19.86V15.99H7.691c.157.556.336 1.069.534 1.53.376.876.797 1.521 1.214 1.933.197.194.38.325.549.41zm0-4.872v-4H6.993c.03 1.446.191 2.8.45 4h2.545zm3.995-5h-2.995v-4h2.545c.259 1.2.42 2.553.45 4zm-3.995 0v-4H7.443c-.259 1.2-.42 2.553-.45 4h2.995zm3.297-5h-2.297V1.116c.169.084.352.215.55.41.416.411.837 1.056 1.213 1.932.198.461.377.974.534 1.53zm-3.297 0V1.116a2.176 2.176 0 0 0-.55.41c-.416.411-.837 1.056-1.213 1.932a12.58 12.58 0 0 0-.534 1.53h2.297zm4.334 0C13.612 2.3 12.398.417 10.988.053V0a10.495 10.495 0 0 1 8.446 4.989h-5.112zm-12.78 0A10.495 10.495 0 0 1 9.988 0v.053C8.578.417 7.364 2.3 6.654 4.989H1.542zm8.446 15.988v-.053c-1.41-.363-2.624-2.248-3.334-4.936H1.542a10.495 10.495 0 0 0 8.446 4.989zm-3.567-5.989a22.435 22.435 0 0 1-.428-4H0c.067 1.427.418 2.779.998 4h5.423zm14.555-5h-5.993a22.44 22.44 0 0 0-.428-4h5.422c.58 1.222.932 2.574.999 4zm-14.555-4a22.44 22.44 0 0 0-.428 4H0c.067-1.426.418-2.778.998-4h5.423z" clip-rule="evenodd" fill="#333" fill-rule="evenodd"/><path d="M13.238 14.271a.5.5 0 0 1 .587-.66l7.75 1.886a.5.5 0 0 1 .256.818l-4.96 5.586a.5.5 0 0 1-.842-.157l-2.791-7.473z" fill="#333"/><path d="m19.605 16.917-2.271 2.524a.5.5 0 0 0 .037.706l2.577 2.318a.5.5 0 0 0 .706-.037l2.27-2.524a.5.5 0 0 0-.036-.706L20.31 16.88a.5.5 0 0 0-.706.037z" fill="#333"/></svg>