<svg xmlns="http://www.w3.org/2000/svg" width="22" height="24" fill="none"><path fill="#EC5757" fill-rule="evenodd" d="M19.333 8.584h.577a1.346 1.346 0 0 1 1.345 1.346v6.995a1.346 1.346 0 0 1-1.345 1.345h-.577v4.789a.943.943 0 0 1-.941.941H2.862a.942.942 0 0 1-.94-.941V18.27h-.576A1.346 1.346 0 0 1 0 16.925V9.93a1.345 1.345 0 0 1 1.345-1.346h.576V.941c0-.519.422-.941.942-.941h11.372a.488.488 0 0 1 .12.017l.013.004c.032.01.063.024.093.04h.001a.462.462 0 0 1 .127.1l4.628 5.285c.075.086.11.195.111.305l.001.008c.002.015.004.03.004.044v2.781ZM13.764.941H2.863v7.644h15.529V6.227h-4.157a.47.47 0 0 1-.47-.47V.94ZM2.863 22.804h15.53V18.27H2.862v4.534Zm1.513-8.53v2.414H3.042v-6.291h1.833c.855 0 1.487.156 1.897.469.41.31.616.781.616 1.415 0 .37-.102.7-.306.99a2.028 2.028 0 0 1-.865.675c.7 1.046 1.22 1.819 1.56 2.317l-.15.425h-1.04l-1.501-2.414h-.71Zm3.692 2.414-.292-.425 2.071-5.892h1.631l2.23 6.317H12.27l-.456-1.498H9.52l-.456 1.498h-.996Zm-3.692-3.499h.43c.422 0 .733-.07.934-.21.2-.141.3-.362.3-.663 0-.299-.102-.51-.309-.637-.203-.126-.52-.19-.95-.19h-.405v1.7Zm6.405-1.42c.054.178.293.945.714 2.302H9.857c.448-1.448.719-2.356.813-2.723.023.103.06.243.112.421Zm4.616 4.919v-2.414h.71l1.501 2.414h1.48c-.286-.413-.903-1.327-1.85-2.741.373-.164.662-.39.865-.676.204-.29.306-.62.306-.99 0-.634-.205-1.106-.616-1.415-.41-.313-1.042-.47-1.897-.47h-1.833v6.292h1.334Zm0-3.499h.43c.422 0 .733-.07.934-.21.2-.141.3-.362.3-.663 0-.299-.102-.51-.309-.637-.204-.126-.52-.19-.95-.19h-.405v1.7Z" clip-rule="evenodd"/></svg>
