<svg width="68" height="37" fill="none" xmlns="http://www.w3.org/2000/svg"><rect y=".5" width="67.2" height="36" rx="3" fill="#DDE1ED"/><path d="M41.131 13.969c.594-.594.594-1.563 0-2.125l-1.875-1.875c-.562-.594-1.531-.594-2.125 0l-1.437 1.437c-.125.125-.125.375 0 .531l3.468 3.47c.157.124.407.124.532 0l1.437-1.438zm-6.656-1.344l-8.219 8.219-.656 3.781a.743.743 0 00.875.875l3.781-.656 8.219-8.219c.156-.125.156-.375 0-.531l-3.469-3.469c-.156-.125-.406-.125-.531 0zm-5 7.5a.384.384 0 010-.594l4.813-4.812a.384.384 0 01.593 0 .384.384 0 010 .594l-4.812 4.812a.384.384 0 01-.594 0zM28.35 22.75h1.5v1.156l-2.031.344-.969-.969.344-2.031h1.156v1.5z" fill="#61656F"/></svg>
