<svg width="22" height="17" fill="none" xmlns="http://www.w3.org/2000/svg"><path d="M11 .375c1.828 0 3.515.352 5.062.984 1.547.668 2.778 1.547 3.692 2.672.914 1.125 1.37 2.32 1.37 3.657 0 1.335-.456 2.566-1.37 3.69-.914 1.126-2.145 2.005-3.692 2.638-1.547.668-3.234.984-5.062.984-1.125 0-2.18-.105-3.2-.387a14.129 14.129 0 0 1-5.519 1.512 1.362 1.362 0 0 1-.844-.176c-.28-.14-.421-.386-.492-.668-.14-.316-.07-.597.14-.879.106-.14.317-.351.634-.562l.07-.07c.352-.211.598-.422.738-.563.211-.246.422-.563.563-.95-.703-.632-1.266-1.335-1.653-2.109a5.483 5.483 0 0 1-.562-2.46c0-1.336.457-2.532 1.371-3.657.914-1.125 2.145-2.004 3.691-2.672A13.257 13.257 0 0 1 11 .375zm0 12.938c1.687 0 3.234-.282 4.605-.915 1.196-.527 2.145-1.23 2.848-2.144.633-.844.984-1.688.984-2.566 0-.844-.351-1.723-.984-2.567-.703-.879-1.652-1.582-2.848-2.144-1.37-.598-2.918-.914-4.605-.914-1.723 0-3.27.316-4.606.914C5.2 3.539 4.25 4.242 3.547 5.12c-.668.844-.985 1.723-.985 2.566 0 .774.211 1.547.704 2.25.421.633.984 1.196 1.722 1.688-.07.492-.316 1.02-.703 1.582a6.56 6.56 0 0 1-1.441 1.512c.843-.106 1.757-.387 2.672-.809.527-.21 1.23-.598 2.074-1.09 1.054.352 2.215.492 3.41.492z" fill="#028DD8"/><path d="M8 8a1 1 0 1 1-2 0 1 1 0 0 1 2 0zM12 8a1 1 0 1 1-2 0 1 1 0 0 1 2 0zM16 8a1 1 0 1 1-2 0 1 1 0 0 1 2 0z" fill="#028DD8"/></svg>
