<svg width="12" height="13" viewBox="0 0 12 13" fill="none" xmlns="http://www.w3.org/2000/svg"><path d="M6 0.6875C7.03125 0.6875 8.01562 0.96875 8.90625 1.48438C9.79688 2 10.5 2.70312 11.0156 3.59375C11.5312 4.48438 11.8125 5.46875 11.8125 6.5C11.8125 7.55469 11.5312 8.51562 11.0156 9.40625C10.5 10.2969 9.79688 11.0234 8.90625 11.5391C8.01562 12.0547 7.03125 12.3125 6 12.3125C4.94531 12.3125 3.98438 12.0547 3.09375 11.5391C2.20312 11.0234 1.47656 10.2969 0.960938 9.40625C0.445312 8.51562 0.1875 7.55469 0.1875 6.5C0.1875 5.46875 0.445312 4.48438 0.960938 3.59375C1.47656 2.70312 2.20312 2 3.09375 1.48438C3.98438 0.96875 4.94531 0.6875 6 0.6875ZM6 11.1875C6.84375 11.1875 7.61719 10.9766 8.34375 10.5547C9.04688 10.1328 9.63281 9.57031 10.0547 8.84375C10.4766 8.14062 10.6875 7.34375 10.6875 6.5C10.6875 5.65625 10.4766 4.88281 10.0547 4.15625C9.63281 3.45312 9.04688 2.86719 8.34375 2.44531C7.61719 2.02344 6.84375 1.8125 6 1.8125C5.15625 1.8125 4.35938 2.02344 3.65625 2.44531C2.92969 2.86719 2.36719 3.45312 1.94531 4.15625C1.52344 4.88281 1.3125 5.65625 1.3125 6.5C1.3125 7.34375 1.52344 8.14062 1.94531 8.84375C2.36719 9.57031 2.92969 10.1328 3.65625 10.5547C4.35938 10.9766 5.15625 11.1875 6 11.1875ZM8.50781 5.21094C8.50781 4.83594 8.39062 4.48438 8.15625 4.15625C7.92188 3.85156 7.64062 3.59375 7.26562 3.40625C6.89062 3.21875 6.51562 3.125 6.14062 3.125C5.60156 3.125 5.15625 3.24219 4.78125 3.45312C4.40625 3.66406 4.05469 3.96875 3.77344 4.39062C3.72656 4.46094 3.72656 4.53125 3.72656 4.60156C3.72656 4.69531 3.77344 4.74219 3.84375 4.78906L4.5 5.28125C4.54688 5.32812 4.61719 5.35156 4.6875 5.32812C4.75781 5.32812 4.82812 5.28125 4.875 5.23438C5.0625 4.97656 5.25 4.78906 5.39062 4.69531C5.55469 4.60156 5.76562 4.53125 6 4.53125C6.23438 4.53125 6.46875 4.60156 6.65625 4.71875C6.84375 4.85938 6.96094 5 6.96094 5.1875C6.96094 5.32812 6.89062 5.46875 6.79688 5.5625C6.70312 5.65625 6.53906 5.75 6.30469 5.89062L6.25781 5.91406C5.92969 6.10156 5.69531 6.26562 5.55469 6.40625C5.29688 6.66406 5.17969 6.96875 5.17969 7.32031V7.53125C5.17969 7.625 5.20312 7.69531 5.25 7.74219C5.29688 7.78906 5.36719 7.8125 5.46094 7.8125H6.53906C6.60938 7.8125 6.67969 7.78906 6.72656 7.74219C6.77344 7.69531 6.82031 7.625 6.82031 7.53125V7.39062C6.82031 7.29688 6.86719 7.20312 6.98438 7.10938C7.03125 7.0625 7.17188 6.96875 7.35938 6.85156C7.71094 6.66406 7.96875 6.47656 8.13281 6.28906C8.36719 6.00781 8.50781 5.63281 8.50781 5.21094ZM6.98438 9.125C6.98438 8.86719 6.86719 8.63281 6.67969 8.44531C6.49219 8.25781 6.25781 8.14062 6 8.14062C5.71875 8.14062 5.48438 8.25781 5.29688 8.44531C5.10938 8.63281 5.01562 8.86719 5.01562 9.125C5.01562 9.40625 5.10938 9.64062 5.29688 9.82812C5.48438 10.0156 5.71875 10.1094 6 10.1094C6.25781 10.1094 6.49219 10.0156 6.67969 9.82812C6.86719 9.64062 6.98438 9.40625 6.98438 9.125Z" fill="#A2A9B4"/></svg>
