<svg version="1.0" xmlns="http://www.w3.org/2000/svg" width="52" height="52" viewBox="0 0 1440 1440"><path d="M496 1.1c-204.8 4-298.6 24-370.5 78.8-11.9 9-33.4 30.2-42.9 42.1-46 57.8-68.4 134.1-77 263C1.1 451.5 0 515.6 0 720s1.1 268.5 5.6 335c9.5 142.2 35.7 221.3 92.9 280.9 46.6 48.6 111.9 77.1 207 90.5 80 11.3 150.4 13.6 414.5 13.6 204.4 0 268.5-1.1 335-5.6 142.2-9.5 221.3-35.7 280.9-92.9 48.6-46.6 77.1-111.9 90.5-207 11.3-80 13.6-150.4 13.6-414.5 0-204.4-1.1-268.5-5.6-335-9.6-143.9-36.6-224-94.9-282.6a251.3 251.3 0 0 0-64.8-47.9C1205.7 18.4 1118.9 4.7 937 1c-54.3-1.1-384.6-1-441 .1zm-88.6 444.1L409 473c4.4 85.9 23 164.8 53.3 226.4 33.9 69.1 79.8 117.1 136.6 143 7.8 3.5 27.9 10.6 30.2 10.6.5 0 .9-78.2.9-207.5V438h155v118.5c0 74.1.4 118.5.9 118.5.6 0 5.7-.9 11.5-2 38.8-7.5 80.9-32.3 118.1-69.5a390.3 390.3 0 0 0 93-152l4.3-13 77.2-.3 77.3-.2-.7 4.9c-1.1 8.4-7.5 32.8-12.7 48.8A453.7 453.7 0 0 1 1042 670a449.9 449.9 0 0 1-74.2 60.2 67.8 67.8 0 0 0-9.7 6.7c0 .3 3 2 6.7 3.8a429 429 0 0 1 43.7 25.6 480.5 480.5 0 0 1 146.4 155.4 634.8 634.8 0 0 1 31.6 64.8c5 12.6 14.8 41.7 16 47.2l.7 3.3h-169.8l-5.3-14.3c-6.3-17-18.6-42.7-27.5-57.5-48.2-80-123.6-130.6-210.8-141.6l-4.8-.6v214.3l-32.7-.6a547 547 0 0 1-78.3-5.8c-113.5-16.2-209.1-64.7-279.8-141.9-77.6-84.7-126.4-202.8-144.2-349-3.1-25.9-7-80.2-7-98.1V438h163.8l.6 7.2z"/></svg>
