<svg xmlns="http://www.w3.org/2000/svg" width="22" height="24" fill="none"><path fill="#F18334" fill-rule="evenodd" d="M19.588 8.585h.576c.743 0 1.345.602 1.345 1.345v6.995c0 .743-.602 1.345-1.345 1.345h-.577v4.789a.942.942 0 0 1-.94.941H3.116a.942.942 0 0 1-.941-.941v-4.79H1.6a1.346 1.346 0 0 1-1.346-1.344V9.929c0-.743.603-1.345 1.346-1.345h.576V.941c0-.519.422-.941.941-.941H14.49a.468.468 0 0 1 .121.018l.013.004c.032.01.063.023.093.039l.002.001c.01.006.02.01.028.017a.464.464 0 0 1 .094.079l.004.003 4.627 5.286a.462.462 0 0 1 .112.305l.001.01c.002.014.004.028.004.042v2.78ZM3.118.94h10.9v4.816c0 .26.211.47.471.47h4.157v2.358H3.117V.94Zm15.528 21.863H3.117V18.27h15.53v4.534ZM6.461 10.5l-1.198 2.364-1.19-2.364H2.755l1.905 3.545v2.195h1.209v-2.234L7.772 10.5H6.461Zm4.223 5.74-1.382-4.503h-.036l.024.487c.013.214.025.443.035.687.01.243.016.463.016.66v2.669H8.253V10.5H9.91l1.358 4.39h.024l1.44-4.39h1.658v5.74h-1.135v-2.717c0-.18.003-.389.008-.624.008-.236.017-.46.027-.671l.024-.483h-.035l-1.48 4.495h-1.115Zm4.913-5.74v5.74h3.546v-1.005h-2.329V10.5h-1.217Z" clip-rule="evenodd"/></svg>