<svg width="18" height="18" viewBox="0 0 18 17" fill="none" xmlns="http://www.w3.org/2000/svg"><g><rect width="18" height="18" rx="9" fill="#0492de"/><path d="M14.397 5.74c.136.135.203.3.203.493a.672.672 0 0 1-.203.494l-5.252 5.252-.987.986a.672.672 0 0 1-.493.204.672.672 0 0 1-.493-.204l-.987-.986L3.56 9.353a.672.672 0 0 1-.203-.494c0-.193.068-.357.203-.493l.987-.987a.672.672 0 0 1 .493-.203c.193 0 .358.068.493.203l2.133 2.14 4.759-4.766a.672.672 0 0 1 .493-.203c.194 0 .358.068.494.203l.986.987z" fill="#ffffff"/></g></svg>
