<svg width="12" height="12" fill="none" xmlns="http://www.w3.org/2000/svg"><path d="M5 1.5c0-.073.024-.133.07-.18a.244.244 0 01.18-.07h1.5c.073 0 .133.024.18.07.047.047.07.107.07.18v1.25a.243.243 0 01-.07.18.243.243 0 01-.18.07h-1.5a.243.243 0 01-.18-.07.243.243 0 01-.07-.18V1.5zm3 8.25a.244.244 0 01-.07.18.243.243 0 01-.18.07h-3.5a.243.243 0 01-.18-.07.243.243 0 01-.07-.18V8.5c0-.073.024-.133.07-.18a.244.244 0 01.18-.07H5v-2.5h-.75a.243.243 0 01-.18-.07A.243.243 0 014 5.5V4.25c0-.073.024-.133.07-.18A.244.244 0 014.25 4h2.5c.073 0 .133.024.18.07.047.047.07.107.07.18v4h.75c.073 0 .133.024.18.07.047.047.07.107.07.18v1.25z" fill="#fff"/></svg>
