<svg width="8" height="12" viewBox="0 0 8 12" fill="none" xmlns="http://www.w3.org/2000/svg"><path d="M4.00006 1.815C4.81397 1.815 5.47588 2.39012 5.47588 3.0973C5.47588 3.8038 4.81397 4.37905 4.00006 4.37905C3.18694 4.37905 2.52425 3.8038 2.52425 3.0973C2.52425 2.39012 3.18694 1.815 4.00006 1.815ZM4.00006 6.19337C5.96617 6.19337 7.5644 4.80471 7.5644 3.0973C7.5644 1.38921 5.96617 0 4.00006 0C2.03443 0 0.435729 1.38921 0.435729 3.0973C0.435729 4.80464 2.03443 6.19337 4.00006 6.19337ZM5.44214 8.71985C6.16776 8.57619 6.86757 8.32679 7.51198 7.97497C7.99968 7.7079 8.14674 7.14765 7.83936 6.72383C7.53238 6.29906 6.88797 6.17135 6.39941 6.43842C4.93945 7.23635 3.05958 7.23601 1.6004 6.43842C1.11176 6.17135 0.467431 6.29912 0.160765 6.72383C-0.146609 7.14799 -2.36857e-05 7.7079 0.487834 7.97497C1.13216 8.32638 1.83197 8.57619 2.5576 8.71985L0.564815 10.4513C0.15739 10.8056 0.15739 11.38 0.565207 11.7342C0.769311 11.9112 1.03635 12 1.30331 12C1.57074 12 1.83817 11.9113 2.04228 11.7342L3.99959 10.0328L5.95864 11.7342C6.36606 12.0886 7.0271 12.0886 7.43484 11.7342C7.84305 11.38 7.84305 10.8052 7.43484 10.4513C7.43492 10.4513 5.44214 8.71985 5.44214 8.71985Z" fill="#333333"/></svg>
