<svg xmlns="http://www.w3.org/2000/svg" width="22" height="24" fill="none"><path fill="#F7974A" d="M5.355 14.427c0-.61-.547-.853-1.23-.853h-.467v1.706c.135.017.297.017.53.017.619 0 1.167-.233 1.167-.87Z"/><path fill="#F7974A" d="M19.91 8.584h-.577v-2.78c0-.018-.003-.035-.005-.053a.461.461 0 0 0-.111-.305L14.588.161l-.004-.004a.46.46 0 0 0-.124-.097.493.493 0 0 0-.093-.039l-.025-.008A.484.484 0 0 0 14.235 0H2.863a.942.942 0 0 0-.942.941v7.643h-.576C.602 8.584 0 9.186 0 9.93v6.996c0 .742.602 1.345 1.345 1.345h.576v4.789c0 .518.422.94.942.94h15.529a.942.942 0 0 0 .941-.94V18.27h.577c.742 0 1.345-.602 1.345-1.345V9.93c0-.744-.603-1.346-1.345-1.346ZM2.863.941h10.901v4.815c0 .26.211.47.47.47h4.158v2.358H2.862V.941Zm11.405 15.308H12.93l-.09-2.316a68.79 68.79 0 0 1-.054-2.486h-.026a33.08 33.08 0 0 1-.674 2.343l-.736 2.36h-1.067l-.647-2.342c-.197-.71-.404-1.571-.547-2.361H9.07c-.036.817-.064 1.75-.108 2.504l-.108 2.298H7.59l.386-6.05h1.822l.592 2.02c.189.7.377 1.454.512 2.163h.027c.17-.7.377-1.499.574-2.172l.647-2.01h1.785l.333 6.05Zm-11.965-.027V10.28c.359-.072 1.086-.126 1.768-.126.835 0 1.347.081 1.787.341.421.225.727.637.727 1.185 0 .539-.314 1.041-.997 1.292v.018c.692.19 1.203.71 1.203 1.49 0 .548-.25.978-.628 1.284-.44.35-1.176.547-2.379.547a10.69 10.69 0 0 1-1.481-.089Zm16.089 6.582H2.862V18.27h15.53v4.534Zm.714-9.328c-.467.44-1.158.637-1.966.637-.18 0-.341-.01-.466-.027v2.164h-1.356v-5.97c.421-.073 1.014-.126 1.849-.126.843 0 1.445.162 1.849.485.386.305.646.808.646 1.4 0 .592-.197 1.095-.556 1.437Z"/><path fill="#F7974A" d="M17.239 11.186c-.279 0-.467.027-.566.054v1.786c.117.027.26.036.458.036.727 0 1.176-.368 1.176-.987 0-.557-.386-.889-1.068-.889ZM5.211 11.85c0-.457-.35-.7-.97-.7-.296 0-.466.018-.583.036v1.41h.449c.719 0 1.104-.296 1.104-.745Z"/></svg>
