<svg width="592" height="592" fill="none" xmlns="http://www.w3.org/2000/svg"><path fill-rule="evenodd" clip-rule="evenodd" d="M0 39.467C0 17.67 17.67 0 39.467 0h513.066C574.33 0 592 17.67 592 39.467v513.066C592 574.33 574.33 592 552.533 592H39.467C17.67 592 0 574.33 0 552.533V39.467zm39.467-13.156c-7.266 0-13.156 5.89-13.156 13.156v513.066c0 7.266 5.89 13.156 13.156 13.156h513.066c7.266 0 13.156-5.89 13.156-13.156V39.467c0-7.266-5.89-13.156-13.156-13.156H39.467z" fill="#A2A9B4"/><path d="M79.756 426.733h427.555V307.922L335.878 161.156 202.267 287.367l-40.289-43.989L79.756 325.6v101.133zM152.111 161.156c0 19.98-16.197 36.177-36.178 36.177-19.98 0-36.177-16.197-36.177-36.177 0-19.981 16.197-36.178 36.177-36.178 19.981 0 36.178 16.197 36.178 36.178z" fill="#A2A9B4"/></svg>
