<svg width="48" height="49" fill="none" xmlns="http://www.w3.org/2000/svg"><path fill-rule="evenodd" clip-rule="evenodd" d="M24 17.8l-1.4 3.6a6.1 6.1 0 01-.2.4l-.4.5c-.2.2-.5.2-.7.3H21l-3.8.2 3 2.4.3.4c.1 0 .3.3.3.5v1.2l-1 3.7 3.2-2v-.1l.4-.2.7-.2.7.2.4.2 3.2 2-1-3.6V26c0-.2.2-.4.3-.5l.4-.3 2.9-2.5-3.8-.2h-.4c-.2 0-.5-.1-.7-.3l-.4-.5-.2-.4-1.4-3.6zm-1.3-2c.1-.2.5-.8 1.3-.8s1.2.6 1.3.8l.5 1.2v.1l1.4 3.5 3.8.2a13.1 13.1 0 011.4.2c.3 0 1 .2 1.2 1 .3.7-.2 1.2-.4 1.5a10.4 10.4 0 01-1 .9l-3 2.4 1 3.7.3 1.3c0 .3 0 1-.5 1.5-.7.4-1.3.2-1.6 0l-1.2-.6-3.2-2.1-3.2 2c-.4.3-.8.6-1.2.7-.3.2-1 .4-1.6 0-.6-.5-.5-1.2-.5-1.5l.3-1.3 1-3.7-3-2.4-1-1c-.2-.2-.7-.7-.4-1.4.2-.8.9-1 1.2-1a10.4 10.4 0 011.4-.2l3.8-.2 1.3-3.5.6-1.3z" fill="#A3BD49"/><rect x="1" y="1.2" width="46" height="46" rx="5" stroke="#A3BD49" stroke-width="2"/></svg>
