<svg xmlns="http://www.w3.org/2000/svg" width="20" height="20" fill="none"><g fill="#08C" fill-rule="evenodd" clip-path="url(#a)" clip-rule="evenodd"><path d="M10 18c2.23 0 4.13-.77 5.68-2.32A7.72 7.72 0 0 0 18 10c0-2.23-.77-4.13-2.32-5.67A7.72 7.72 0 0 0 10 2c-2.23 0-4.13.77-5.67 2.33A7.72 7.72 0 0 0 2 10c0 2.23.77 4.13 2.33 5.68A7.72 7.72 0 0 0 10 18ZM6.45 9.65 8.6 11.8l4.95-4.95a.95.95 0 0 1 .7-.27c.28 0 .52.09.7.27.18.18.28.42.28.7 0 .28-.1.52-.28.7L9.3 13.9a.96.96 0 0 1-1.4 0l-2.85-2.85a.95.95 0 0 1-.27-.7c0-.28.09-.52.27-.7a.95.95 0 0 1 .7-.28c.28 0 .52.1.7.28Z"/><path d="M6.1 19.21c1.22.53 2.52.79 3.9.79s2.68-.26 3.9-.79a10.1 10.1 0 0 0 5.31-5.31c.53-1.22.79-2.52.79-3.9s-.26-2.68-.79-3.9A10.1 10.1 0 0 0 13.9.79 9.74 9.74 0 0 0 10 0 10.1 10.1 0 0 0 .79 6.1 9.74 9.74 0 0 0 0 10a10.1 10.1 0 0 0 6.1 9.21Zm9.58-3.54A7.72 7.72 0 0 1 10 18a7.72 7.72 0 0 1-5.67-2.32A7.72 7.72 0 0 1 2 10c0-2.23.77-4.13 2.33-5.67A7.72 7.72 0 0 1 10 2c2.23 0 4.13.77 5.68 2.33A7.72 7.72 0 0 1 18 10c0 2.23-.77 4.13-2.32 5.68Z"/></g><defs><clipPath id="a"><path fill="#fff" d="M0 0h20v20H0z"/></clipPath></defs></svg>
