<svg width="12" height="15" fill="none" xmlns="http://www.w3.org/2000/svg"><path d="M3.652 14.613a.44.44 0 0 0 .301.137c.11.027.192 0 .3-.082l1.75-1.094c.11-.054.165-.136.22-.246A.457.457 0 0 0 6.195 13l-.875-2.215a.737.737 0 0 0-.191-.219.623.623 0 0 0-.3-.082l-1.532.164a7.219 7.219 0 0 1-.41-2.433c0-.848.136-1.668.41-2.488l1.531.164c.11 0 .192-.028.3-.082a.507.507 0 0 0 .192-.22l.875-2.214a.457.457 0 0 0 .028-.328c-.055-.11-.11-.192-.22-.246l-1.75-1.094a.623.623 0 0 0-.3-.082 1.01 1.01 0 0 0-.3.137C2.502 2.937 1.71 4.305 1.3 5.89a8.729 8.729 0 0 0 0 4.593 8.48 8.48 0 0 0 2.351 4.13zM7.754 3.348a.287.287 0 0 0-.246-.137.462.462 0 0 0-.274.082l-.164.164c-.054.055-.082.11-.082.164-.027.082-.027.164.028.219a.872.872 0 0 1 0 .82c-.055.082-.055.164-.028.219 0 .082.028.137.082.164l.164.164c.082.082.164.11.274.11.11 0 .191-.055.246-.165C7.918 4.88 8 4.578 8 4.25c0-.3-.082-.602-.246-.902zM10.27.859a.347.347 0 0 0-.247-.109c-.109 0-.191.027-.246.082l-.136.164a.249.249 0 0 0-.11.219c0 .11.028.164.082.219.657.82 1.012 1.777 1.012 2.816 0 1.066-.355 1.996-1.012 2.816a.31.31 0 0 0-.082.22c0 .109.028.163.11.218l.136.164c.055.055.137.082.246.082.11 0 .192-.027.247-.11a5.168 5.168 0 0 0 1.093-2.187 5.945 5.945 0 0 0 0-2.406A5.33 5.33 0 0 0 10.27.859zM9.012 2.09a.347.347 0 0 0-.246-.109c-.11 0-.192.028-.246.083l-.165.164c-.054.054-.109.136-.109.218 0 .082.027.137.082.192.356.492.547 1.011.547 1.613 0 .602-.191 1.148-.547 1.613a.31.31 0 0 0-.082.219c0 .082.055.137.11.191l.164.165c.054.082.136.109.246.109.109 0 .191-.055.246-.137.492-.629.738-1.34.738-2.16 0-.793-.246-1.504-.738-2.16z" fill="#028DD8"/></svg>
