<svg width="29" height="24" fill="none" xmlns="http://www.w3.org/2000/svg"><path d="M0 12l8.494-8.485c4.691-4.687 12.297-4.687 16.988 0 4.69 4.686 4.69 12.284 0 16.97-4.691 4.687-12.297 4.687-16.988 0L0 12z" fill="url(#paint0_linear)"/><path d="M25 12c0-1.42-.387-2.774-1.097-4A7.835 7.835 0 0 0 21 5.097C19.774 4.387 18.42 4 17 4c-1.452 0-2.774.387-4 1.097S10.774 6.774 10.065 8A7.902 7.902 0 0 0 9 12c0 1.452.355 2.774 1.065 4A8.008 8.008 0 0 0 13 18.936 7.816 7.816 0 0 0 17 20c1.42 0 2.774-.355 4-1.064 1.226-.71 2.194-1.71 2.903-2.936.71-1.226 1.097-2.548 1.097-4zm-8.936 4.226c-.096.129-.225.161-.354.161-.162 0-.29-.032-.355-.161L12 12.87c-.129-.065-.161-.194-.161-.355 0-.129.032-.258.161-.355l.71-.742a.518.518 0 0 1 .354-.16c.13 0 .259.064.388.16l2.258 2.258 4.838-4.838a.518.518 0 0 1 .355-.162c.13 0 .258.065.387.162l.71.742a.518.518 0 0 1 .161.354c0 .162-.064.29-.161.355l-5.936 5.936z" fill="#fff"/><defs><linearGradient id="paint0_linear" x1="1.001" y1="11.029" x2="30.03" y2="11.029" gradientUnits="userSpaceOnUse"><stop stop-color="#BFDA60"/><stop offset="1" stop-color="#93B61B"/></linearGradient></defs></svg>
