<svg xmlns="http://www.w3.org/2000/svg" fill="none" viewBox="0 0 20 20"><path fill="#333" fill-rule="evenodd" d="M9.5 11a2 2 0 0 0-2 2v4.3H9V13c0-.3.2-.5.5-.5h2c.3 0 .5.2.5.5v4.2h1.5V13a2 2 0 0 0-2-2h-2Z" clip-rule="evenodd"/><path fill="#333" fill-rule="evenodd" d="M2.2 3a2 2 0 0 1 2-1.5h12.7c1 0 1.8.6 2 1.6l.9 4a2 2 0 0 1-1 2.2V16c0 1.5-1.3 2.8-2.8 2.8H9v-1.6h7c.7 0 1.3-.5 1.3-1.2V9.5H3.7V16c0 .7.6 1.3 1.3 1.3h4v1.4H5A2.7 2.7 0 0 1 2.2 16V9.4A2 2 0 0 1 1.1 7l1.1-4Zm13 0h1.7c.3 0 .5.2.5.4l1 4c0 .3-.2.6-.6.6H16l-.9-5ZM9.6 3H7.3l-.9 5h3.3V3Zm1.5 0v5h3.3l-.9-5h-2.4Zm-7 0h1.6l-1 5H3a.5.5 0 0 1-.5-.6l1.2-4c0-.3.2-.4.4-.4Z" clip-rule="evenodd"/></svg>
