<svg xmlns="http://www.w3.org/2000/svg" fill="none" viewBox="0 0 24 22"><path fill="#FFC107" d="M11.99 20.23c-.24 0-.49-.05-.73-.14a1.72 1.72 0 0 1-.65-.4l-1.64-1.5a74.87 74.87 0 0 1-5.4-5.4 8.43 8.43 0 0 1-2.37-5.7 5.5 5.5 0 0 1 1.63-4.06A5.5 5.5 0 0 1 6.88 1.4 6.3 6.3 0 0 1 12 4.1a6.3 6.3 0 0 1 5.12-2.7 5.5 5.5 0 0 1 4.05 1.63 5.5 5.5 0 0 1 1.63 4.05 8.5 8.5 0 0 1-2.42 5.77A72.5 72.5 0 0 1 15 18.22l-1.62 1.46c-.18.19-.4.33-.65.41-.25.1-.5.14-.74.14Zm-.8-14.4a6.87 6.87 0 0 0-1.95-2.07 4.26 4.26 0 0 0-2.36-.65 3.86 3.86 0 0 0-3.97 3.97c0 .92.29 1.87.88 2.87.59 1 1.32 1.98 2.21 2.97.9.98 1.85 1.94 2.89 2.88l2.88 2.62c.07.05.14.08.23.08s.16-.03.23-.08l2.88-2.62c1.04-.94 2-1.9 2.89-2.88.89-.99 1.62-1.98 2.21-2.97.6-1 .88-1.95.88-2.87a3.86 3.86 0 0 0-3.97-3.97c-.9 0-1.68.21-2.36.65a6.87 6.87 0 0 0-1.94 2.06.93.93 0 0 1-.37.33 1 1 0 0 1-.9 0 .93.93 0 0 1-.37-.33Z"/><path fill="#fff" d="M11.18 5.82a6.87 6.87 0 0 0-1.94-2.06 4.26 4.26 0 0 0-2.36-.65 3.86 3.86 0 0 0-3.97 3.97c0 .92.29 1.87.88 2.87.59 1 1.32 1.98 2.21 2.97.9.98 1.85 1.94 2.89 2.88l2.88 2.62c.07.05.14.08.23.08s.16-.03.23-.08l2.88-2.62c1.04-.94 2-1.9 2.89-2.88.89-.99 1.62-1.98 2.21-2.97.6-1 .88-1.95.88-2.87a3.86 3.86 0 0 0-3.97-3.97c-.9 0-1.68.21-2.36.65a6.87 6.87 0 0 0-1.94 2.06.93.93 0 0 1-.37.33 1 1 0 0 1-.9 0 .93.93 0 0 1-.37-.33Z"/><path fill="#fff" fill-rule="evenodd" d="M8.97 18.2a74.87 74.87 0 0 1-5.4-5.42 8.43 8.43 0 0 1-2.37-5.7 5.5 5.5 0 0 1 1.63-4.05A5.5 5.5 0 0 1 6.88 1.4 6.3 6.3 0 0 1 12 4.1c.26-.35.52-.66.8-.93a6.3 6.3 0 0 1 4.31-1.77 5.5 5.5 0 0 1 4.06 1.63 5.5 5.5 0 0 1 1.63 4.05 8.5 8.5 0 0 1-2.42 5.77A72.5 72.5 0 0 1 15 18.22l-1.62 1.46c-.18.19-.4.33-.65.41a2.22 2.22 0 0 1-1.47 0 1.72 1.72 0 0 1-.65-.4m.24 1.54s-.43-.12-1.14-.67C9 20 7.8 18.8 7.8 18.8a89.39 89.39 0 0 1-5.12-5.22A9.62 9.62 0 0 1 0 7.08a6.7 6.7 0 0 1 1.98-4.9A6.7 6.7 0 0 1 6.88.2 7.5 7.5 0 0 1 12 2.27 7.5 7.5 0 0 1 17.12.2a6.7 6.7 0 0 1 4.9 1.98A6.7 6.7 0 0 1 24 7.08c0 2.4-.95 4.6-2.72 6.57a73.7 73.7 0 0 1-5.48 5.46l-1.6 1.45c-.3.3-.67.52-1.07.67m0 0a3.42 3.42 0 0 1-2.28 0M9.24 3.76a6.87 6.87 0 0 1 1.94 2.06 1 1 0 0 0 1.27.33.93.93 0 0 0 .37-.33 6.87 6.87 0 0 1 1.94-2.06 4.26 4.26 0 0 1 2.36-.65 3.86 3.86 0 0 1 3.97 3.97c0 .92-.29 1.87-.88 2.87-.59 1-1.32 1.98-2.21 2.96-.89.99-1.85 1.95-2.89 2.89l-2.88 2.62a.33.33 0 0 1-.23.08.33.33 0 0 1-.23-.08L8.89 15.8c-1.04-.94-2-1.9-2.89-2.89A18.49 18.49 0 0 1 3.8 9.95c-.6-1-.88-1.95-.88-2.87a3.86 3.86 0 0 1 3.97-3.97c.9 0 1.68.21 2.36.65ZM12 17l-2.3-2.1c-1.01-.9-1.95-1.84-2.8-2.79a17.3 17.3 0 0 1-2.08-2.77c-.5-.86-.71-1.6-.71-2.26A2.66 2.66 0 0 1 6.89 4.3c.68 0 1.23.17 1.7.47.5.32 1.03.86 1.59 1.7v.01a2.13 2.13 0 0 0 1.82.98 2.2 2.2 0 0 0 1.82-.98 5.7 5.7 0 0 1 1.59-1.71c.47-.3 1.02-.46 1.7-.46a2.66 2.66 0 0 1 2.78 2.78c0 .64-.2 1.39-.71 2.25a17.3 17.3 0 0 1-2.07 2.77c-.86.95-1.8 1.89-2.8 2.8L12 17Z" clip-rule="evenodd"/></svg>
