<svg xmlns="http://www.w3.org/2000/svg" width="22" height="24" fill="none"><path fill="#4CAF50" fill-rule="evenodd" d="M19.91 8.585h-.577v-2.78a.307.307 0 0 0-.005-.053.462.462 0 0 0-.111-.305L14.59.161l-.004-.003a.464.464 0 0 0-.094-.079l-.029-.017-.002-.001a.492.492 0 0 0-.093-.04l-.025-.007A.469.469 0 0 0 14.235 0H2.863a.942.942 0 0 0-.942.941v7.643h-.576C.602 8.584 0 9.186 0 9.93v6.996c0 .742.602 1.345 1.345 1.345h.576v4.789c0 .519.422.941.942.941h15.529a.942.942 0 0 0 .941-.941v-4.79h.576c.743 0 1.346-.602 1.346-1.345V9.93a1.345 1.345 0 0 0-1.345-1.345ZM13.764.94H2.863v7.644h15.529V6.227h-4.157a.47.47 0 0 1-.47-.47V.94Zm-.192 11.19c0 .809.603 1.32 1.528 1.643.669.239.933.437.933.784 0 .364-.305.603-.884.603a3.216 3.216 0 0 1-1.396-.347l-.255 1.04c.314.174.941.34 1.577.34 1.528 0 2.246-.794 2.246-1.727 0-.785-.463-1.296-1.445-1.66-.718-.272-1.032-.43-1.032-.784 0-.29.264-.537.81-.537.544 0 .94.157 1.163.264l.281-1.015c-.33-.15-.793-.281-1.42-.281-1.314 0-2.106.726-2.106 1.676Zm-.602 3.98v-1.058h-2.213v-4.51H9.493v5.568h3.477Zm-8.952 0h1.437l.462-1.008c.174-.388.314-.677.43-1h.016c.157.323.29.612.496 1l.504 1.007h1.453l-1.652-2.85 1.57-2.716H7.295l-.47 1.016c-.14.322-.248.57-.38.925H6.43a17.318 17.318 0 0 0-.422-.925l-.487-1.016H4.076l1.553 2.75-1.61 2.817Zm-1.155 6.693h15.529V18.27H2.862v4.534Z" clip-rule="evenodd"/></svg>
