<svg width="29" height="24" fill="none" xmlns="http://www.w3.org/2000/svg"><g clip-path="url(#clip0)"><path d="M0 12l8.494-8.485c4.691-4.687 12.297-4.687 16.988 0 4.69 4.686 4.69 12.284 0 16.97-4.691 4.687-12.297 4.687-16.988 0L0 12z" fill="url(#paint0_linear)"/><path d="M13 15.5a.48.48 0 0 0-.148-.352A.48.48 0 0 0 12.5 15a.49.49 0 0 0-.5.5c0 .14.047.26.14.36.1.093.22.14.36.14a.494.494 0 0 0 .5-.5zm1.25-4v5a.48.48 0 0 1-.148.352.48.48 0 0 1-.352.148H11.5a.48.48 0 0 1-.352-.148A.48.48 0 0 1 11 16.5v-5a.48.48 0 0 1 .148-.352A.48.48 0 0 1 11.5 11h2.25a.48.48 0 0 1 .352.148.48.48 0 0 1 .148.352zm9.25 0c0 .448-.143.836-.43 1.164.078.23.117.427.117.594.016.396-.096.752-.335 1.07.088.292.088.597 0 .914a1.522 1.522 0 0 1-.422.735c.047.583-.081 1.054-.383 1.414-.334.396-.846.599-1.54.609H19.5c-.344 0-.719-.042-1.125-.125a8.736 8.736 0 0 1-.953-.227c-.224-.067-.537-.169-.938-.304-.64-.224-1.052-.339-1.234-.344a.525.525 0 0 1-.352-.148.48.48 0 0 1-.148-.352v-5.008c0-.13.047-.242.14-.336a.505.505 0 0 1 .337-.164c.125-.01.322-.164.593-.46.271-.298.534-.613.79-.946.354-.453.617-.766.788-.938.094-.093.175-.218.243-.375a2.22 2.22 0 0 0 .132-.375c.026-.099.063-.257.11-.476.036-.203.068-.362.094-.477.03-.114.083-.25.156-.406.073-.156.161-.286.265-.39A.48.48 0 0 1 18.75 6c.24 0 .453.029.64.086.193.052.35.12.47.203.124.078.229.182.312.313a1.567 1.567 0 0 1 .281.742c.026.156.04.273.04.351.004.078.007.18.007.305 0 .198-.026.396-.078.594a2.643 2.643 0 0 1-.149.469 5.134 5.134 0 0 1-.289.578 1.323 1.323 0 0 0-.148.359H22c.406 0 .758.148 1.055.445.297.297.445.649.445 1.055z" fill="#fff" filter="url(#filter0_d)"/></g><defs><filter id="filter0_d" x="7" y="6" width="20.5" height="20" filterUnits="userSpaceOnUse" color-interpolation-filters="sRGB"><feFlood flood-opacity="0" result="BackgroundImageFix"/><feColorMatrix in="SourceAlpha" values="0 0 0 0 0 0 0 0 0 0 0 0 0 0 0 0 0 0 127 0"/><feOffset dy="4"/><feGaussianBlur stdDeviation="2"/><feColorMatrix values="0 0 0 0 0 0 0 0 0 0 0 0 0 0 0 0 0 0 0.25 0"/><feBlend in2="BackgroundImageFix" result="effect1_dropShadow"/><feBlend in="SourceGraphic" in2="effect1_dropShadow" result="shape"/></filter><linearGradient id="paint0_linear" x1="1.001" y1="11.029" x2="30.03" y2="11.029" gradientUnits="userSpaceOnUse"><stop stop-color="#BFDA60"/><stop offset="1" stop-color="#93B61B"/></linearGradient><clipPath id="clip0"><path fill="#fff" d="M0 0h29v24H0z"/></clipPath></defs></svg>
