<svg xmlns="http://www.w3.org/2000/svg" fill="none" viewBox="0 0 20 18"><path fill="#333" d="M9.99 16.688c-.202 0-.406-.036-.61-.11a1.437 1.437 0 0 1-.54-.342L7.478 15a62.394 62.394 0 0 1-4.5-4.514C1.66 9.008 1 7.425 1 5.737c0-1.345.453-2.47 1.36-3.377C3.267 1.453 4.392 1 5.737 1A5.25 5.25 0 0 1 8 1.528c.745.353 1.411.925 1.999 1.717.588-.792 1.254-1.364 2-1.717A5.25 5.25 0 0 1 14.262 1c1.345 0 2.47.453 3.377 1.36.907.907 1.36 2.032 1.36 3.377 0 1.706-.671 3.307-2.013 4.801a60.377 60.377 0 0 1-4.49 4.476l-1.346 1.222a1.43 1.43 0 0 1-.544.343c-.208.073-.413.109-.616.109ZM9.32 4.684c-.513-.781-1.052-1.354-1.62-1.717-.566-.364-1.22-.546-1.962-.546-.948 0-1.737.316-2.369.947-.631.632-.947 1.421-.947 2.369 0 .76.245 1.555.735 2.385a15.41 15.41 0 0 0 1.846 2.474c.74.82 1.542 1.62 2.405 2.403.864.782 1.664 1.509 2.402 2.18a.28.28 0 0 0 .191.073.28.28 0 0 0 .191-.072c.738-.672 1.538-1.4 2.402-2.181a33.921 33.921 0 0 0 2.405-2.403 15.41 15.41 0 0 0 1.846-2.474c.49-.83.735-1.625.735-2.385 0-.948-.316-1.737-.947-2.369-.632-.631-1.422-.947-2.369-.947-.742 0-1.396.182-1.963.546-.567.363-1.106.936-1.619 1.717a.775.775 0 0 1-.302.273.837.837 0 0 1-.758 0 .775.775 0 0 1-.302-.273Z"/><path fill="#fff" fill-rule="evenodd" d="M7.479 15a62.394 62.394 0 0 1-4.5-4.514C1.66 9.008 1 7.425 1 5.736c0-1.344.453-2.47 1.36-3.376C3.267 1.453 4.392 1 5.737 1A5.25 5.25 0 0 1 8 1.528c.475.225.92.54 1.33.944.234.229.457.486.669.773.213-.287.435-.544.668-.773A4.872 4.872 0 0 1 12 1.528 5.25 5.25 0 0 1 14.262 1c1.345 0 2.47.453 3.377 1.36.907.907 1.36 2.032 1.36 3.377 0 1.706-.671 3.307-2.013 4.801a60.377 60.377 0 0 1-4.49 4.476l-1.346 1.222a1.43 1.43 0 0 1-.544.343c-.208.073-.413.109-.616.109s-.407-.036-.611-.11a1.437 1.437 0 0 1-.54-.342m.204 1.285s-.36-.096-.952-.559C7.5 16.5 6.5 15.5 6.5 15.5c-1.805-1.738-2.92-2.842-4.266-4.348C.78 9.525 0 7.712 0 5.737c0-1.596.549-2.98 1.653-4.084C2.757.549 4.14 0 5.737 0c.923 0 1.823.214 2.69.624A5.852 5.852 0 0 1 10 1.727c.474-.46.997-.831 1.572-1.103A6.249 6.249 0 0 1 14.263 0c1.596 0 2.98.549 4.084 1.653C19.451 2.757 20 4.14 20 5.737c0 1.996-.793 3.826-2.27 5.47a61.419 61.419 0 0 1-4.561 4.548l-.001.001-1.329 1.206a2.43 2.43 0 0 1-.901.56m0 0a2.85 2.85 0 0 1-.947.166c-.325 0-.642-.059-.947-.167M7.7 2.967c.567.363 1.106.936 1.619 1.717.08.121.18.212.302.273a.837.837 0 0 0 .758 0 .775.775 0 0 0 .302-.273c.513-.781 1.053-1.354 1.62-1.717.566-.364 1.22-.546 1.962-.546.947 0 1.737.316 2.369.947.631.632.947 1.421.947 2.369 0 .76-.245 1.555-.735 2.385a15.41 15.41 0 0 1-1.846 2.474c-.74.82-1.542 1.62-2.405 2.403-.864.782-1.664 1.509-2.402 2.18a.28.28 0 0 1-.191.073.28.28 0 0 1-.191-.072 1098.68 1098.68 0 0 0-2.402-2.181 33.908 33.908 0 0 1-2.405-2.403 15.41 15.41 0 0 1-1.846-2.474c-.49-.83-.735-1.625-.735-2.385 0-.948.316-1.737.947-2.369.632-.631 1.421-.947 2.369-.947.742 0 1.396.182 1.963.546ZM10 14c-.601-.547-1.242-1.128-1.921-1.743a32.915 32.915 0 0 1-2.335-2.332 14.413 14.413 0 0 1-1.727-2.313c-.423-.716-.596-1.337-.596-1.876 0-.7.223-1.23.655-1.661.431-.432.96-.655 1.66-.655.572 0 1.034.137 1.424.387.412.265.86.718 1.323 1.424l.001.003c.17.257.4.472.69.616a1.838 1.838 0 0 0 1.652 0c.29-.144.52-.36.69-.616l.001-.003c.464-.706.911-1.16 1.323-1.424.39-.25.852-.387 1.423-.387.7 0 1.23.223 1.662.655.431.431.654.96.654 1.66 0 .54-.173 1.16-.596 1.877a14.413 14.413 0 0 1-1.727 2.313 32.917 32.917 0 0 1-2.335 2.332c-.68.615-1.32 1.196-1.921 1.743Z" clip-rule="evenodd"/><path fill="#FFC107" d="M9.319 4.684c-.513-.781-1.052-1.354-1.62-1.717-.566-.364-1.22-.546-1.962-.546-.948 0-1.737.316-2.369.947-.631.632-.947 1.421-.947 2.369 0 .76.245 1.555.735 2.385a15.41 15.41 0 0 0 1.846 2.474c.74.82 1.542 1.62 2.405 2.403.864.782 1.664 1.509 2.402 2.18a.28.28 0 0 0 .191.073.28.28 0 0 0 .191-.072c.738-.672 1.538-1.4 2.402-2.181a33.921 33.921 0 0 0 2.405-2.403 15.41 15.41 0 0 0 1.846-2.474c.49-.83.735-1.625.735-2.385 0-.948-.316-1.737-.947-2.369-.632-.631-1.422-.947-2.369-.947-.742 0-1.396.182-1.963.546-.567.363-1.106.936-1.619 1.717a.775.775 0 0 1-.302.273.837.837 0 0 1-.758 0 .775.775 0 0 1-.302-.273Z"/><path fill="#FFC107" fill-rule="evenodd" d="M9.99 16.688c-.202 0-.406-.036-.61-.11a1.437 1.437 0 0 1-.54-.342L7.478 15a62.394 62.394 0 0 1-4.5-4.514C1.66 9.008 1 7.425 1 5.737c0-1.345.453-2.47 1.36-3.377C3.267 1.453 4.392 1 5.737 1A5.25 5.25 0 0 1 8 1.528c.745.353 1.411.925 1.999 1.717.588-.792 1.254-1.364 2-1.717A5.25 5.25 0 0 1 14.262 1c1.345 0 2.47.453 3.377 1.36.907.907 1.36 2.032 1.36 3.377 0 1.706-.671 3.307-2.013 4.801a60.377 60.377 0 0 1-4.49 4.476l-1.346 1.222a1.43 1.43 0 0 1-.544.343c-.208.073-.413.109-.616.109ZM7.7 2.967c.567.363 1.106.936 1.619 1.717.08.121.18.212.302.273a.837.837 0 0 0 .758 0 .775.775 0 0 0 .302-.273c.513-.781 1.053-1.354 1.62-1.717.566-.364 1.22-.546 1.962-.546.947 0 1.737.316 2.369.947.631.632.947 1.421.947 2.369 0 .76-.245 1.555-.735 2.385a15.41 15.41 0 0 1-1.846 2.474c-.74.82-1.542 1.62-2.405 2.403-.864.782-1.664 1.509-2.402 2.18a.28.28 0 0 1-.191.073.28.28 0 0 1-.191-.072 1098.68 1098.68 0 0 0-2.402-2.181 33.908 33.908 0 0 1-2.405-2.403 15.41 15.41 0 0 1-1.846-2.474c-.49-.83-.735-1.625-.735-2.385 0-.948.316-1.737.947-2.369.632-.631 1.421-.947 2.369-.947.742 0 1.396.182 1.963.546Z" clip-rule="evenodd"/></svg>
