<svg xmlns="http://www.w3.org/2000/svg" width="20" height="20" fill="none"><path fill="#333" fill-rule="evenodd" d="M9.5 11a2 2 0 0 0-2 2v4.25H9v-4.2a.5.5 0 0 1 .5-.5h2a.5.5 0 0 1 .5.5v4.2h1.5V13a2 2 0 0 0-2-2h-2Z" clip-rule="evenodd"/><path fill="#333" fill-rule="evenodd" d="M2.21 2.95A2 2 0 0 1 4.14 1.5h12.8a2 2 0 0 1 1.95 1.56l.9 4a2 2 0 0 1-1.04 2.23V16A2.75 2.75 0 0 1 16 18.75H9v-1.5h7c.69 0 1.25-.56 1.25-1.25V9.5H3.75V16c0 .69.56 1.25 1.25 1.25h4v1.5H5A2.75 2.75 0 0 1 2.25 16V9.36a2 2 0 0 1-1.17-2.4l1.13-4ZM15.15 3h1.79a.5.5 0 0 1 .49.39l.9 4a.5.5 0 0 1-.48.61h-1.82l-.88-5ZM9.67 3H7.3l-.88 5h3.26V3Zm1.5 0v5h3.34l-.89-5h-2.45ZM4.14 3h1.63l-.88 5H3a.5.5 0 0 1-.48-.64l1.14-4A.5.5 0 0 1 4.14 3Z" clip-rule="evenodd"/></svg>
