<svg width="48" height="49" fill="none" xmlns="http://www.w3.org/2000/svg"><path d="M22.6 26.8a.8.8 0 01-.8-.8c0-.6.2-1.2.5-1.7.2-.5.8-1 1.5-1.6l1.5-1.3c.2-.4.4-.7.4-1.1 0-.5-.2-.8-.5-1-.4-.3-.9-.4-1.5-.4-.8 0-1.7.2-2.7.6a1 1 0 01-1.3-.5l-.3-.6a1 1 0 01.4-1.3 10 10 0 014.2-.9c1.4 0 2.6.4 3.4 1.1.9.7 1.3 1.6 1.3 2.8 0 .8-.2 1.4-.5 2-.4.6-1 1.2-2 2-.7.4-1.1.8-1.3 1-.2.3-.3.7-.3 1 0 .4-.3.7-.6.7h-1.4zm-1.1 3.6c0-.5.1-1 .5-1.3.3-.3.7-.5 1.3-.5.6 0 1 .2 1.4.5.3.3.5.8.5 1.3 0 .6-.2 1-.5 1.4-.3.3-.8.4-1.4.4a2 2 0 01-1.3-.4c-.4-.3-.5-.8-.5-1.4z" fill="#BA8C4A"/><rect x="1" y="1.2" width="46" height="46" rx="5" stroke="#BA8C4A" stroke-width="2"/></svg>
