<svg width="82" height="30" fill="none" xmlns="http://www.w3.org/2000/svg"><path d="M7.469 2.531c0 .466-.155.847-.464 1.143-.306.296-.73.485-1.275.566v.03c.625.074 1.1.26 1.426.556.329.293.493.677.493 1.153 0 .664-.26 1.183-.78 1.557-.518.374-1.235.562-2.15.562-.95 0-1.71-.129-2.28-.386v-1.02c.316.15.67.265 1.06.346a5.37 5.37 0 0 0 1.08.122c1.252 0 1.879-.41 1.879-1.23 0-.378-.189-.666-.566-.865-.375-.198-.931-.297-1.67-.297h-.86V3.83h.806c1.422 0 2.134-.38 2.134-1.138a.838.838 0 0 0-.366-.717c-.241-.176-.58-.264-1.016-.264-.345 0-.674.046-.986.137a3.699 3.699 0 0 0-.972.464L2.43 1.52c.732-.508 1.595-.762 2.588-.762.755 0 1.352.16 1.792.483.439.322.659.752.659 1.29zM12.742 8l-.23-.752h-.039c-.26.329-.522.553-.786.674-.264.117-.602.176-1.015.176-.531 0-.946-.144-1.246-.43-.296-.286-.444-.692-.444-1.216 0-.556.207-.976.62-1.26.414-.283 1.043-.437 1.89-.463l.932-.03v-.288c0-.345-.081-.602-.244-.771-.16-.173-.408-.26-.747-.26-.277 0-.542.042-.796.123a6.009 6.009 0 0 0-.732.288l-.371-.82c.293-.153.613-.269.962-.347.348-.081.677-.122.986-.122.687 0 1.205.15 1.553.45.351.299.527.769.527 1.41V8h-.82zm-1.71-.781c.418 0 .751-.116 1.002-.347.254-.234.38-.561.38-.981v-.47l-.693.03c-.54.02-.934.11-1.181.274-.244.16-.367.405-.367.737 0 .24.072.428.215.561.143.13.358.196.645.196zM19.055 2.6v.898H16.71V8h-1.147V2.6h3.49zM23.234 8.098c-.683 0-1.214-.246-1.592-.738h-.068c.046.456.068.733.068.83v2.212h-1.147V2.6h.928c.026.1.08.341.16.722h.06c.357-.547.895-.82 1.61-.82.674 0 1.199.244 1.573.732.378.489.566 1.174.566 2.056 0 .882-.192 1.57-.576 2.065-.38.495-.908.743-1.582.743zm-.278-4.659c-.456 0-.79.134-1.001.4-.208.268-.313.694-.313 1.28v.171c0 .658.105 1.134.313 1.43.208.294.548.44 1.02.44.397 0 .703-.163.918-.488.215-.326.323-.79.323-1.392 0-.605-.108-1.063-.323-1.372-.211-.312-.524-.469-.937-.469zM26.305 2.6h1.25l1.099 3.061c.166.436.276.846.332 1.23h.039c.03-.178.083-.395.16-.649.08-.257.492-1.471 1.241-3.642h1.24l-2.31 6.118c-.42 1.123-1.119 1.684-2.099 1.684a3.3 3.3 0 0 1-.742-.083v-.908c.173.04.37.059.59.059.554 0 .943-.32 1.168-.962l.2-.508-2.168-5.4zM34.078 4.758c.524 0 .91-.057 1.157-.171.248-.117.371-.296.371-.537 0-.44-.39-.66-1.171-.66-.521 0-1.053.118-1.597.352l-.371-.854a5.441 5.441 0 0 1 2.08-.386c.67 0 1.191.124 1.562.371.371.244.557.596.557 1.055 0 .605-.347 1.002-1.04 1.191v.04c.433.116.742.284.928.502.188.218.283.488.283.81 0 .495-.218.891-.654 1.187-.433.293-1.039.44-1.817.44-.85 0-1.499-.113-1.948-.337V6.77c.596.28 1.212.42 1.85.42.46 0 .813-.064 1.06-.191.25-.13.376-.327.376-.59 0-.271-.125-.47-.376-.596-.25-.127-.638-.19-1.162-.19h-.66v-.865h.572zM39.58 2.6v2.768c0 .322-.025.796-.078 1.421l2.71-4.19h1.402V8H42.51V5.28c0-.15.009-.392.025-.727.02-.336.036-.58.049-.733L39.884 8h-1.402V2.6h1.099zM49.707 2.6v.898H47.95V8h-1.152V3.498H45.04V2.6h4.668zM53.506 8.098c-.84 0-1.498-.244-1.973-.733-.472-.491-.708-1.167-.708-2.026 0-.882.22-1.576.66-2.08.439-.505 1.043-.757 1.81-.757.714 0 1.277.216 1.69.65.414.432.62 1.028.62 1.786v.62h-3.598c.016.525.157.928.424 1.212.267.28.643.42 1.128.42.32 0 .616-.03.889-.088.277-.062.573-.163.889-.303v.932c-.28.134-.563.228-.85.284a5.209 5.209 0 0 1-.981.083zm-.21-4.727c-.365 0-.658.116-.88.347-.217.23-.347.568-.39 1.01h2.451c-.006-.445-.114-.782-.322-1.01-.208-.231-.495-.347-.86-.347zM64.994 3.981c0 .638-.373 1.024-1.118 1.158v.039c.417.049.736.18.957.395.221.215.332.493.332.835 0 .511-.195.905-.586 1.182-.387.273-.952.41-1.694.41h-2.578V2.6h2.568c1.413 0 2.12.46 2.12 1.381zM63.988 6.34c0-.26-.1-.444-.303-.552-.201-.11-.504-.166-.908-.166h-1.323V7.15h1.353c.787 0 1.181-.27 1.181-.81zm-.141-2.26c0-.216-.085-.37-.254-.465-.166-.097-.415-.146-.747-.146h-1.392v1.299h1.22c.385 0 .676-.05.875-.147.198-.1.298-.281.298-.542zM59.22 25.18a3.45 3.45 0 0 1-1.43-.29 2.67 2.67 0 0 1-1.08-.89h-.09c.058.44.088.885.09 1.33v3.29H55.5V17.04h1l.17 1.09h.06a2.82 2.82 0 0 1 1.09-.95c.446-.2.931-.299 1.42-.29a3 3 0 0 1 2.46 1.09 4.8 4.8 0 0 1 .86 3.05 4.77 4.77 0 0 1-.88 3.06 3.001 3.001 0 0 1-2.46 1.09zm-.18-7.26a2.141 2.141 0 0 0-1.77.68 3.49 3.49 0 0 0-.56 2.16v.27a4 4 0 0 0 .56 2.41 2.14 2.14 0 0 0 1.8.73 1.87 1.87 0 0 0 1.62-.84 4 4 0 0 0 .59-2.31 3.82 3.82 0 0 0-.59-2.29 1.93 1.93 0 0 0-1.65-.81zM65.34 25.03h-1.21V13.68h1.21v11.35zM72.3 25.03l-.24-1.14h-.09c-.313.422-.72.765-1.19 1a3.64 3.64 0 0 1-1.48.27 2.68 2.68 0 0 1-1.86-.61 2.24 2.24 0 0 1-.68-1.74c0-1.613 1.29-2.46 3.87-2.54h1.36v-.5a2 2 0 0 0-.41-1.39 1.671 1.671 0 0 0-1.3-.45 5.27 5.27 0 0 0-2.26.61l-.37-.93a5.857 5.857 0 0 1 1.29-.5c.46-.12.934-.18 1.41-.18a3 3 0 0 1 2.12.64 2.65 2.65 0 0 1 .69 2v5.46h-.86zm-2.73-.85a2.46 2.46 0 0 0 1.78-.62 2.302 2.302 0 0 0 .64-1.74v-.72h-1.21a4.39 4.39 0 0 0-2.08.45 1.35 1.35 0 0 0-.64 1.24 1.241 1.241 0 0 0 .4 1c.31.262.704.4 1.11.39zM73.9 17.04h1.3l1.77 4.56c.288.733.525 1.485.71 2.25h.06c.06-.25.2-.67.4-1.27s.86-2.45 2-5.54h1.3l-3.47 9.1a4.55 4.55 0 0 1-1.19 1.92 2.53 2.53 0 0 1-1.67.57 4.916 4.916 0 0 1-1.14-.09v-1c.296.063.598.093.9.09a1.85 1.85 0 0 0 1.78-1.4l.45-1.14-3.2-8.05zM36.79 17.78a2.73 2.73 0 0 1-.22 4.63 1.18 1.18 0 0 0-.47.82.92.92 0 0 0 .44.72l.6.47a2.912 2.912 0 0 1 1.4 2.34c0 1.57-1.52 3.16-4.4 3.16-2.43 0-3.59-1.15-3.59-2.39a2.41 2.41 0 0 1 1.29-2 7.211 7.211 0 0 1 3.19-.77 1.75 1.75 0 0 1-.5-1.13 1.52 1.52 0 0 1 .17-.66h-.54a2.639 2.639 0 0 1-2.78-2.62 3 3 0 0 1 1.07-2.24 4.56 4.56 0 0 1 3-.92h3.44l-1.07.6-1.03-.01zm-1.19 7.43a2.591 2.591 0 0 0-.38 0 6.634 6.634 0 0 0-1.76.27 1.88 1.88 0 0 0-1.44 1.72c0 1.19 1.15 2 2.94 2 1.61 0 2.46-.77 2.46-1.81 0-.85-.55-1.28-1.82-2.18zm.48-3.18a1.69 1.69 0 0 0 .42-1.22c0-1.2-.72-3.08-2.11-3.08a1.57 1.57 0 0 0-1.17.55 1.93 1.93 0 0 0-.36 1.26c0 1.12.65 3 2.09 3a1.7 1.7 0 0 0 1.13-.51zM26.26 24.94A3.94 3.94 0 0 1 22.19 21a4.14 4.14 0 0 1 4.32-4.06 3.9 3.9 0 0 1 4 3.94 4.08 4.08 0 0 1-4.25 4.06zm2.09-1.4a3 3 0 0 0 .5-1.85c0-1.47-.7-4.27-2.77-4.27a2.32 2.32 0 0 0-1.5.57 2.531 2.531 0 0 0-.77 2c0 1.65.82 4.37 2.84 4.37a2.13 2.13 0 0 0 1.7-.82zM17.21 24.94A3.94 3.94 0 0 1 13.14 21a4.14 4.14 0 0 1 4.32-4.06 3.9 3.9 0 0 1 4 3.94 4.081 4.081 0 0 1-4.25 4.06zm2.09-1.4a3 3 0 0 0 .5-1.85c0-1.47-.7-4.27-2.77-4.27a2.33 2.33 0 0 0-1.5.57 2.521 2.521 0 0 0-.77 2c0 1.65.82 4.37 2.84 4.37a2.14 2.14 0 0 0 1.7-.82zM11.86 24.68l-2.4.55a17.83 17.83 0 0 1-2.77.28 6 6 0 0 1-6.4-6.08c0-3.26 2.5-6.28 6.78-6.28.868 0 1.733.118 2.57.35a6.53 6.53 0 0 1 2.22 1l-1.39 1.38-.59.13.42-.67a4.8 4.8 0 0 0-3.59-1.58 4.64 4.64 0 0 0-4.65 5 5.94 5.94 0 0 0 5.91 6.09 5 5 0 0 0 2.13-.42v-2.7l-2.53.13 1.4-.73h3.56l-.44.42a.39.39 0 0 0-.17.27v.8l-.06 2.06z" fill="#fff"/><path d="M42.09 24.2c-.55-.05-.67-.15-.67-.81v-9.61c.07-.59.24-.69.76-1h-2.4l-1.26.6h1.28v10.38c0 .33-.07.39-.45.89h3l.62-.37-.88-.08zM48.97 24.35c-.18.1-.37.22-.55.3a3.859 3.859 0 0 1-1.62.32 3.56 3.56 0 0 1-2.22-.65 4.31 4.31 0 0 1-1.7-3.52 3.78 3.78 0 0 1 3.82-3.85 3.25 3.25 0 0 1 1.72.47c.58.385.994.974 1.16 1.65l-3.92 1.58-1.29.1c.42 2.12 1.85 3.35 3.43 3.35a4.32 4.32 0 0 0 2-.58l-.83.83zm-1.57-5c.32-.12.48-.22.48-.45a1.65 1.65 0 0 0-1.69-1.36 2.05 2.05 0 0 0-1.92 2.32c0 .28 0 .58.05.88l3.08-1.39zM50.53 17.06v1.1h-.13v-1.1h-.36v-.11h.86v.11h-.37zM52.03 18.16v-1.11l-.34 1.11h-.1l-.34-1.11v1.11h-.12v-1.21h.21l.31 1 .31-1h.21v1.21h-.14z" fill="#fff"/></svg>
