<svg width="10" height="15" fill="none" xmlns="http://www.w3.org/2000/svg"><path d="M8.063.75c.355 0 .656.137.93.383.245.273.382.574.382.93v11.374c0 .383-.137.684-.383.93a1.24 1.24 0 0 1-.93.383H1.939c-.383 0-.684-.11-.93-.383-.274-.246-.383-.547-.383-.93V2.063c0-.356.11-.657.383-.93.246-.246.547-.383.93-.383h6.125zM5 13.875A.89.89 0 0 0 5.875 13a.878.878 0 0 0-.273-.602.878.878 0 0 0-.602-.273.89.89 0 0 0-.629 1.504.866.866 0 0 0 .629.246zm3.063-2.953V2.39c0-.082-.055-.164-.11-.22-.055-.054-.137-.108-.219-.108H2.266a.347.347 0 0 0-.246.109.31.31 0 0 0-.083.219v8.53c0 .11.028.192.083.247.054.055.136.082.246.082h5.468a.31.31 0 0 0 .22-.082.347.347 0 0 0 .109-.246z" fill="#028DD8"/></svg>
