<svg xmlns="http://www.w3.org/2000/svg" width="22" height="24" fill="none"><path fill="#EC5757" fill-rule="evenodd" d="M19.333 8.585h.577a1.345 1.345 0 0 1 1.345 1.345v6.995a1.345 1.345 0 0 1-1.345 1.345h-.577v4.789a.942.942 0 0 1-.941.941H2.862a.942.942 0 0 1-.94-.941v-4.79h-.577A1.345 1.345 0 0 1 0 16.926V9.93a1.345 1.345 0 0 1 1.345-1.346h.576V.941c0-.519.422-.941.942-.941h11.372c.037 0 .073.005.108.013l.013.005a.485.485 0 0 1 .23.14l.001.001.002.002 4.627 5.286c.076.086.111.194.112.304l.001.008c.002.015.004.03.004.045v2.78ZM13.764.94H2.863v7.643h15.529V6.227h-4.157a.47.47 0 0 1-.471-.47V.94ZM2.863 22.804h15.53V18.27H2.862v4.534Zm5.905-7.22h-3.36l3.286-4.774v-.788H3.695v1.113h3.291l-3.295 4.747v.806h5.076v-1.104Zm2.33 1.104H9.723v-6.666h1.373v6.665Zm2.65 0v-2.349h1.204c.79 0 1.408-.187 1.854-.563.448-.378.673-.894.673-1.547 0-.43-.103-.813-.307-1.15a2.015 2.015 0 0 0-.88-.782c-.378-.183-.817-.275-1.317-.275h-2.6v6.665h1.373Zm0-3.461h1.227c.363 0 .639-.086.828-.257.192-.17.288-.415.288-.732 0-.326-.096-.59-.288-.792-.192-.201-.458-.305-.796-.311h-1.26v2.092Z" clip-rule="evenodd"/></svg>
