<svg xmlns="http://www.w3.org/2000/svg" width="22" height="24" fill="none"><path fill="#EC5757" d="M5.616 12.298c0-.647-.449-1.032-1.24-1.032-.324 0-.542.03-.657.062v2.075c.135.031.302.042.531.042.845 0 1.366-.428 1.366-1.147ZM10.517 11.286a3.31 3.31 0 0 0-.72.062v4.598c.136.032.355.032.553.032 1.439.01 2.377-.782 2.377-2.461.01-1.46-.845-2.231-2.21-2.231Z"/><path fill="#EC5757" d="M19.91 8.584h-.577v-2.78c0-.018-.003-.035-.005-.053a.462.462 0 0 0-.111-.304L14.588.16l-.004-.004a.464.464 0 0 0-.217-.135l-.025-.009A.476.476 0 0 0 14.235 0H2.863a.942.942 0 0 0-.942.941v7.643h-.576C.602 8.584 0 9.186 0 9.93v6.995c0 .742.602 1.345 1.345 1.345h.576v4.789c0 .519.422.941.942.941h15.529a.942.942 0 0 0 .941-.941V18.27h.577c.742 0 1.345-.602 1.345-1.345V9.93c0-.743-.603-1.346-1.345-1.346ZM2.863.941h10.901v4.815c0 .26.211.47.47.47h4.158v2.358H2.862V.941Zm11.553 12.524c0 1.345-.49 2.273-1.168 2.846-.74.616-1.866.907-3.242.907a13.82 13.82 0 0 1-1.804-.104v-6.902a14.211 14.211 0 0 1 2.149-.146c1.333 0 2.199.24 2.877.75.73.543 1.188 1.408 1.188 2.649Zm-12.272 3.68v-6.934c.49-.082 1.178-.145 2.148-.145.98 0 1.678.187 2.147.563.449.354.75.938.75 1.626 0 .689-.228 1.273-.646 1.669-.542.51-1.345.74-2.283.74-.208 0-.397-.01-.542-.031v2.512H2.144Zm16.248 5.659H2.862V18.27h15.53v4.534Zm1.364-11.382h-2.701v1.605h2.523v1.293h-2.523v2.826H15.46v-7.028h4.296v1.303Z"/></svg>
