<svg width="13" height="14" fill="none" xmlns="http://www.w3.org/2000/svg"><path d="M12.797 7.125C12.797 3.672 9.953.828 6.5.828 3.021.828.203 3.672.203 7.125A6.296 6.296 0 006.5 13.422c3.453 0 6.297-2.819 6.297-6.297zM6.5 8.395c.635 0 1.168.533 1.168 1.168 0 .66-.533 1.167-1.168 1.167a1.15 1.15 0 01-1.168-1.168c0-.634.508-1.167 1.168-1.167zm-1.117-4.19c-.026-.178.127-.33.304-.33h1.6c.178 0 .33.152.305.33l-.178 3.453c-.025.178-.152.28-.305.28H5.865c-.152 0-.28-.102-.304-.28l-.178-3.453z" fill="#61656F"/></svg>
