<svg width="14" height="16" fill="none" xmlns="http://www.w3.org/2000/svg"><path d="M5.178 6.482v5.465a.296.296 0 0 1-.085.218.296.296 0 0 1-.218.085h-.607a.296.296 0 0 1-.218-.085.296.296 0 0 1-.086-.218V6.482c0-.088.029-.161.086-.218a.295.295 0 0 1 .218-.085h.607c.088 0 .161.028.218.085.057.057.085.13.085.218Zm2.429 0v5.465a.296.296 0 0 1-.085.218.296.296 0 0 1-.219.085h-.607a.296.296 0 0 1-.218-.085.296.296 0 0 1-.085-.218V6.482c0-.088.028-.161.085-.218a.295.295 0 0 1 .218-.085h.607c.089 0 .162.028.219.085.057.057.085.13.085.218Zm2.429 0v5.465a.296.296 0 0 1-.086.218.296.296 0 0 1-.218.085h-.607a.296.296 0 0 1-.218-.085.296.296 0 0 1-.086-.218V6.482c0-.088.029-.161.086-.218a.295.295 0 0 1 .218-.085h.607c.089 0 .161.028.218.085.057.057.086.13.086.218Zm1.214 6.869V4.357h-8.5v8.994a1.077 1.077 0 0 0 .204.64c.047.054.08.08.1.08h7.892c.02 0 .053-.026.1-.08a1.079 1.079 0 0 0 .204-.64ZM4.875 3.143h4.25l-.455-1.11a.268.268 0 0 0-.162-.104H5.501a.268.268 0 0 0-.161.104l-.465 1.11Zm8.803.304v.607a.295.295 0 0 1-.085.218.296.296 0 0 1-.218.085h-.91v8.994c0 .524-.15.978-.447 1.36-.297.383-.654.575-1.072.575H3.053c-.417 0-.774-.185-1.072-.555-.297-.37-.445-.818-.445-1.342V4.357H.625a.295.295 0 0 1-.218-.085.295.295 0 0 1-.086-.218v-.608c0-.088.029-.16.086-.218a.295.295 0 0 1 .218-.085h2.931l.664-1.584c.095-.234.266-.434.513-.598a1.34 1.34 0 0 1 .749-.247h3.036c.253 0 .503.083.75.247.246.164.417.364.511.598l.665 1.584h2.93c.09 0 .162.028.22.085.056.057.084.13.084.218Z" fill="#CCCCCC"/></svg>
