<svg xmlns="http://www.w3.org/2000/svg" width="22" height="26" fill="none"><path fill="#028DD8" d="M18.114 13.87a5.801 5.801 0 0 1 2.76-4.86 5.94 5.94 0 0 0-4.68-2.53c-2-.21-3.87 1.18-4.88 1.18-1.01 0-2.56-1.16-4.23-1.12a6.22 6.22 0 0 0-5.24 3.2c-2.27 3.92-.58 9.69 1.59 12.86 1.09 1.55 2.35 3.29 4 3.23 1.65-.06 2.23-1 4.19-1 1.96 0 2.51 1 4.21 1 1.7 0 2.84-1.56 3.89-3.13a12.82 12.82 0 0 0 1.78-3.62 5.61 5.61 0 0 1-3.39-5.21Zm-3.2-9.47a5.71 5.71 0 0 0 1.31-4.09 5.81 5.81 0 0 0-3.76 1.94 5.428 5.428 0 0 0-1.34 3.94 4.8 4.8 0 0 0 3.79-1.79Z"/></svg>
