<svg width="14" height="15" fill="none" xmlns="http://www.w3.org/2000/svg"><path d="M5.082 5.857V11a.278.278 0 01-.08.205.278.278 0 01-.205.08h-.572a.278.278 0 01-.205-.08.278.278 0 01-.08-.205V5.857c0-.083.026-.152.08-.205a.278.278 0 01.205-.08h.572c.083 0 .151.026.205.08.054.053.08.122.08.205zm2.286 0V11a.278.278 0 01-.08.205.278.278 0 01-.206.08h-.571a.278.278 0 01-.205-.08.278.278 0 01-.08-.205V5.857c0-.083.026-.152.08-.205a.278.278 0 01.205-.08h.571c.084 0 .152.026.206.08.053.053.08.122.08.205zm2.286 0V11a.278.278 0 01-.08.205.278.278 0 01-.206.08h-.571a.278.278 0 01-.206-.08.278.278 0 01-.08-.205V5.857c0-.083.027-.152.08-.205a.278.278 0 01.206-.08h.571c.083 0 .152.026.205.08.054.053.08.122.08.205zm1.143 6.464V3.857h-8v8.464a1.05 1.05 0 00.187.608c.048.047.08.071.098.071h7.429c.018 0 .048-.024.09-.071a.806.806 0 00.133-.242c.042-.113.063-.235.063-.366zm-6-9.607h4L8.368 1.67a.252.252 0 00-.152-.099h-2.83a.252.252 0 00-.152.099l-.437 1.044zM13.082 3v.571a.278.278 0 01-.08.206.278.278 0 01-.205.08h-.857v8.464c0 .495-.14.92-.42 1.277-.28.363-.616.545-1.009.545H3.082c-.392 0-.729-.176-1.009-.527-.28-.345-.42-.765-.42-1.259v-8.5H.798a.278.278 0 01-.206-.08.278.278 0 01-.08-.206V3c0-.083.027-.152.08-.205a.278.278 0 01.206-.08h2.759l.625-1.492c.089-.22.25-.408.482-.562a1.26 1.26 0 01.705-.232h2.857c.238 0 .473.077.706.232.232.154.392.342.482.562l.625 1.491h2.759c.083 0 .151.027.205.08.054.054.08.123.08.206z" fill="#5E7491"/></svg>
