<svg width="14" height="10" viewBox="0 0 14 10" fill="none" xmlns="http://www.w3.org/2000/svg"><path d="M12.5164 3.53631C13.9651 0.879774 13.6438 0.830006 14 0H11.2239C11.2239 0 11.0266 0.927807 10.9663 1.09389C10.4331 2.56279 9.23717 4.76678 8.51384 4.99204C7.80162 5.21398 7.89615 2.93417 7.94005 1.94661C7.98138 1.03125 7.97433 0.710938 7.95447 0.552807C7.92542 0.321759 7.78229 0.153212 7.61053 0.123843C7.25645 0.0630787 6.61398 -0.0228588 5.8945 0.0222801L5.25085 0.0512153C5.50464 0.820168 5.67607 0.584491 5.76953 1.4741C5.87506 2.51562 5.83351 5.04991 5.07622 5.04991C3.8622 5.04991 2.4995 0.111256 2.45613 0H0L0.224731 0.761719C2.03593 6.90321 4.30119 9.74769 7.40054 9.98423L7.80386 10L7.8327 9.46947C7.87628 8.65017 8.17973 7.47078 8.71796 7.47078C9.51317 7.47078 9.74292 7.78443 10.2674 8.66218C10.7716 9.50376 11.1191 10 11.9328 10H14L13.7052 9.19705C13.2448 7.94517 12.3215 6.87196 11.9609 6.24942C11.8302 6.01505 11.7016 5.64453 11.8347 5.19633C11.9436 4.80599 12.2676 3.9919 12.5164 3.53631Z" fill="#333333"/></svg>
