<svg width="24" height="24" fill="none" xmlns="http://www.w3.org/2000/svg"><path d="M4.011 20.918H19.99a1.5 1.5 0 0 0 1.32-2.211L13.321 3.87c-.567-1.052-2.075-1.052-2.642 0L2.691 18.707a1.5 1.5 0 0 0 1.32 2.211v0Z" stroke="#F60" stroke-linecap="round" stroke-linejoin="round"/><path d="M11.731 9.159 12 14.878l.269-5.717a.267.267 0 0 0-.165-.26.269.269 0 0 0-.107-.021v0a.27.27 0 0 0-.266.279v0Z" stroke="#F60" stroke-linecap="round" stroke-linejoin="round"/><path d="M12 17.946a.6.6 0 1 1 0-1.2.6.6 0 0 1 0 1.2Z" fill="#F60"/></svg>
