<svg width="73" height="72" fill="none" xmlns="http://www.w3.org/2000/svg"><path fill-rule="evenodd" clip-rule="evenodd" d="M.5 4.8A4.8 4.8 0 0 1 5.3 0h62.4a4.8 4.8 0 0 1 4.8 4.8v62.4a4.8 4.8 0 0 1-4.8 4.8H5.3a4.8 4.8 0 0 1-4.8-4.8V4.8Zm4.8-1.6c-.88 0-1.6.72-1.6 1.6v62.4c0 .88.72 1.6 1.6 1.6h62.4c.88 0 1.6-.72 1.6-1.6V4.8c0-.88-.72-1.6-1.6-1.6H5.3Z" fill="#DDE1ED"/><path d="M10.2 51.9h52V37.45L41.35 19.6 25.1 34.95l-4.9-5.35-10 10v12.3ZM19 19.6a4.4 4.4 0 1 1-8.8 0 4.4 4.4 0 0 1 8.8 0Z" fill="#DDE1ED"/></svg>
