<svg width="18" height="17" viewBox="0 0 18 17" fill="none" xmlns="http://www.w3.org/2000/svg"><path d="M0.665901 1.37143H2.5748L5.29391 11.4971C5.37159 11.7943 5.63795 12 5.9376 12H14.2947C14.561 12 14.7941 11.84 14.9051 11.5886L17.946 4.38857C18.0348 4.17144 18.0126 3.93144 17.8905 3.73714C17.7684 3.54284 17.5575 3.42857 17.3356 3.42857H8.10178C7.73554 3.42857 7.43588 3.73714 7.43588 4.11429C7.43588 4.49143 7.73554 4.8 8.10178 4.8H16.3146L13.8507 10.6286H6.43703L3.71796 0.502871C3.64028 0.205714 3.37392 3.63134e-08 3.07427 3.63134e-08H0.665901C0.299655 3.63134e-08 0 0.308571 0 0.685714C0 1.06286 0.299655 1.37143 0.665901 1.37143Z" fill="#0277BD"/>
<path d="M5.5 17C6.32721 17 7 16.3272 7 15.5C7 14.6728 6.32721 14 5.5 14C4.67279 14 4 14.6727 4 15.5C4 16.3272 4.67279 17 5.5 17Z" fill="#0277BD"/><path d="M14.4949 17C14.5281 17 14.5722 17 14.6054 17C15.0031 16.9669 15.3677 16.7907 15.6329 16.4822C15.898 16.1847 16.0196 15.7991 15.9974 15.3915C15.9422 14.5762 15.2241 13.9483 14.3955 14.0034C13.5669 14.0585 12.9482 14.7856 13.0034 15.6008C13.0586 16.383 13.7105 17 14.4949 17Z" fill="#0277BD"/></svg>
