<svg width="110" height="31" fill="none" xmlns="http://www.w3.org/2000/svg"><path d="M17.349 14.56a5.8 5.8 0 0 1 2.76-4.86 5.94 5.94 0 0 0-4.68-2.53c-2-.21-3.87 1.18-4.88 1.18-1.01 0-2.56-1.16-4.23-1.12a6.22 6.22 0 0 0-5.24 3.2c-2.27 3.92-.58 9.69 1.59 12.86 1.09 1.55 2.35 3.29 4 3.23 1.65-.06 2.23-1 4.19-1 1.96 0 2.51 1 4.21 1 1.7 0 2.84-1.56 3.89-3.13a12.82 12.82 0 0 0 1.78-3.62 5.61 5.61 0 0 1-3.39-5.21zM14.149 5.09A5.71 5.71 0 0 0 15.459 1a5.81 5.81 0 0 0-3.76 1.94 5.429 5.429 0 0 0-1.34 3.94 4.8 4.8 0 0 0 3.79-1.79zM40.889 26.28h-2.28l-1.24-3.91h-4.32l-1.19 3.91h-2.21l4.28-13.3h2.65l4.31 13.3zm-3.9-5.5l-1.12-3.47c-.12-.387-.337-1.23-.65-2.53-.133.567-.343 1.403-.63 2.51l-1.17 3.49h3.57zM51.88 21.37a5.43 5.43 0 0 1-1.33 3.87 3.9 3.9 0 0 1-3 1.26 3 3 0 0 1-2.74-1.36v5h-2.09v-10.3c0-1.027-.027-2.077-.08-3.15h1.88l.12 1.52a3.788 3.788 0 0 1 6.07-.38 5.31 5.31 0 0 1 1.17 3.54zm-2.17.08a4 4 0 0 0-.63-2.31 2.181 2.181 0 0 0-1.86-.95 2.22 2.22 0 0 0-1.43.52 2.42 2.42 0 0 0-.84 1.37c-.06.212-.093.43-.1.65v1.6a2.57 2.57 0 0 0 .64 1.77 2.128 2.128 0 0 0 1.67.72 2.18 2.18 0 0 0 1.87-.93 4.08 4.08 0 0 0 .68-2.44zM62.919 21.37a5.44 5.44 0 0 1-1.33 3.87 3.899 3.899 0 0 1-3 1.26 3 3 0 0 1-2.74-1.36v5h-2.09v-10.3c0-1.027-.027-2.077-.08-3.15h1.88l.12 1.52a3.79 3.79 0 0 1 6.07-.38 5.31 5.31 0 0 1 1.17 3.54zm-2.17.08a4 4 0 0 0-.63-2.31 2.18 2.18 0 0 0-1.9-.95 2.22 2.22 0 0 0-1.43.52 2.42 2.42 0 0 0-.84 1.37c-.059.212-.092.43-.1.65v1.6a2.57 2.57 0 0 0 .64 1.77 2.14 2.14 0 0 0 1.73.68 2.18 2.18 0 0 0 1.87-.93 4.09 4.09 0 0 0 .66-2.4zM75.219 22.55a3.55 3.55 0 0 1-1.18 2.76 5.24 5.24 0 0 1-3.62 1.17 6.33 6.33 0 0 1-3.45-.83l.49-1.78a5.93 5.93 0 0 0 3.08.83 2.9 2.9 0 0 0 1.87-.54 1.771 1.771 0 0 0 .67-1.45 1.861 1.861 0 0 0-.55-1.36 5.15 5.15 0 0 0-1.84-1c-2.314-.887-3.47-2.167-3.47-3.84a3.369 3.369 0 0 1 1.25-2.73 4.88 4.88 0 0 1 3.27-1 6.458 6.458 0 0 1 3 .63l-.52 1.74a5.28 5.28 0 0 0-2.56-.61 2.6 2.6 0 0 0-1.76.55 1.58 1.58 0 0 0-.54 1.21 1.63 1.63 0 0 0 .61 1.3 6.9 6.9 0 0 0 1.93 1 6.56 6.56 0 0 1 2.53 1.62c.547.65.83 1.481.79 2.33zM82.33 18.29h-2.35v4.66c0 1.187.412 1.78 1.24 1.78.319.008.638-.026.95-.1l.05 1.61a4.818 4.818 0 0 1-1.66.24 2.56 2.56 0 0 1-2-.77 3.78 3.78 0 0 1-.71-2.59v-4.84h-1.4v-1.6h1.4v-1.75l2.09-.63v2.38h2.35l.04 1.61zM92.909 21.41a5.26 5.26 0 0 1-1.26 3.63 4.51 4.51 0 0 1-3.51 1.46 4.289 4.289 0 0 1-3.37-1.4 5.1 5.1 0 0 1-1.25-3.53 5.23 5.23 0 0 1 1.29-3.65 4.48 4.48 0 0 1 3.49-1.42 4.39 4.39 0 0 1 3.4 1.4 5 5 0 0 1 1.21 3.51zm-2.21 0a4.3 4.3 0 0 0-.57-2.26 2.11 2.11 0 0 0-1.91-1.1 2.14 2.14 0 0 0-2 1.14 4.36 4.36 0 0 0-.57 2.3 4.28 4.28 0 0 0 .57 2.29 2.19 2.19 0 0 0 3.85 0 4.32 4.32 0 0 0 .63-2.32v-.05zM99.839 18.56a3.7 3.7 0 0 0-.67-.06 2 2 0 0 0-1.74.85 3.2 3.2 0 0 0-.53 1.89v5h-2.13v-6.53c0-1.1 0-2.11-.06-3h1.86l.08 1.84h.06a3.289 3.289 0 0 1 1.07-1.52 2.58 2.58 0 0 1 1.54-.51c.176-.013.354-.013.53 0v2l-.01.04zM109.379 21.03c.007.335-.02.67-.08 1h-6.4a2.771 2.771 0 0 0 .93 2.17 3.172 3.172 0 0 0 2.09.67 7.063 7.063 0 0 0 2.59-.45l.33 1.48a7.998 7.998 0 0 1-3.22.59 4.657 4.657 0 0 1-3.51-1.31 4.853 4.853 0 0 1-1.27-3.52 5.5 5.5 0 0 1 1.19-3.61 4.087 4.087 0 0 1 3.36-1.54 3.57 3.57 0 0 1 3.14 1.54c.581.883.878 1.923.85 2.98zm-2-.55a2.89 2.89 0 0 0-.41-1.64 1.864 1.864 0 0 0-1.7-.89 2.002 2.002 0 0 0-1.7.87 3.191 3.191 0 0 0-.63 1.66h4.44zM35.469 2.531c0 .466-.155.847-.464 1.143-.306.296-.73.485-1.275.566v.03c.626.074 1.1.26 1.426.556.329.293.493.677.493 1.153 0 .664-.26 1.183-.78 1.557-.518.374-1.235.562-2.15.562-.95 0-1.71-.129-2.28-.386v-1.02c.316.15.67.265 1.06.346a5.37 5.37 0 0 0 1.08.122c1.252 0 1.879-.41 1.879-1.23 0-.378-.189-.666-.566-.865-.375-.198-.931-.297-1.67-.297h-.86V3.83h.806c1.422 0 2.134-.38 2.134-1.138a.838.838 0 0 0-.367-.717c-.24-.176-.579-.264-1.015-.264-.345 0-.674.046-.986.137a3.699 3.699 0 0 0-.972.464l-.532-.791c.732-.508 1.595-.762 2.588-.762.755 0 1.352.16 1.792.483.439.322.659.752.659 1.29zM40.742 8l-.23-.752h-.039c-.26.329-.522.553-.786.674-.264.117-.602.176-1.015.176-.531 0-.946-.144-1.246-.43-.296-.286-.444-.692-.444-1.216 0-.556.207-.976.62-1.26.414-.283 1.043-.437 1.89-.463l.932-.03v-.288c0-.345-.081-.602-.244-.771-.16-.173-.408-.26-.747-.26-.276 0-.542.042-.796.123a6.007 6.007 0 0 0-.732.288l-.371-.82c.293-.153.613-.269.962-.347.348-.081.677-.122.986-.122.687 0 1.205.15 1.553.45.351.299.527.769.527 1.41V8h-.82zm-1.71-.781c.418 0 .751-.116 1.002-.347.254-.234.38-.561.38-.981v-.47l-.693.03c-.54.02-.934.11-1.181.274-.245.16-.367.405-.367.737 0 .24.072.428.215.561.144.13.358.196.645.196zM47.055 2.6v.898H44.71V8h-1.147V2.6h3.49zM51.234 8.098c-.683 0-1.214-.246-1.592-.738h-.068c.046.456.068.733.068.83v2.212h-1.147V2.6h.928c.026.1.08.341.16.722h.06c.358-.547.895-.82 1.61-.82.675 0 1.199.244 1.573.732.378.489.566 1.174.566 2.056 0 .882-.192 1.57-.576 2.065-.38.495-.908.743-1.582.743zm-.278-4.659c-.456 0-.79.134-1.001.4-.209.268-.313.694-.313 1.28v.171c0 .658.104 1.134.313 1.43.208.294.548.44 1.02.44.398 0 .703-.163.918-.488.215-.326.323-.79.323-1.392 0-.605-.108-1.063-.323-1.372-.211-.312-.524-.469-.937-.469zM54.305 2.6h1.25l1.099 3.061c.166.436.276.846.332 1.23h.039c.03-.178.083-.395.16-.649.08-.257.492-1.471 1.241-3.642h1.24l-2.31 6.118c-.42 1.123-1.119 1.684-2.099 1.684a3.3 3.3 0 0 1-.742-.083v-.908c.173.04.37.059.59.059.554 0 .943-.32 1.168-.962l.2-.508-2.168-5.4zM62.078 4.758c.524 0 .91-.057 1.157-.171.248-.117.371-.296.371-.537 0-.44-.39-.66-1.171-.66-.521 0-1.053.118-1.597.352l-.371-.854a5.441 5.441 0 0 1 2.08-.386c.67 0 1.191.124 1.562.371.372.244.557.596.557 1.055 0 .605-.347 1.002-1.04 1.191v.04c.433.116.742.284.928.502.189.218.283.488.283.81 0 .495-.218.891-.654 1.187-.433.293-1.039.44-1.817.44-.85 0-1.499-.113-1.948-.337V6.77c.596.28 1.212.42 1.85.42.46 0 .813-.064 1.06-.191.25-.13.376-.327.376-.59 0-.271-.125-.47-.376-.596-.25-.127-.638-.19-1.162-.19h-.66v-.865h.572zM67.58 2.6v2.768c0 .322-.025.796-.078 1.421l2.71-4.19h1.402V8H70.51V5.28c0-.15.008-.392.025-.727.02-.336.036-.58.049-.733L67.884 8h-1.402V2.6h1.099zM77.707 2.6v.898H75.95V8h-1.152V3.498H73.04V2.6h4.668zM81.506 8.098c-.84 0-1.498-.244-1.973-.733-.472-.491-.708-1.167-.708-2.026 0-.882.22-1.576.66-2.08.439-.505 1.043-.757 1.81-.757.714 0 1.277.216 1.69.65.414.432.62 1.028.62 1.786v.62h-3.598c.016.525.157.928.424 1.212.267.28.643.42 1.128.42.32 0 .616-.03.889-.088.277-.062.573-.163.889-.303v.932c-.28.134-.563.228-.85.284a5.209 5.209 0 0 1-.981.083zm-.21-4.727c-.365 0-.658.116-.88.347-.217.23-.347.568-.39 1.01h2.451c-.006-.445-.114-.782-.322-1.01-.208-.231-.495-.347-.86-.347zM92.994 3.981c0 .638-.373 1.024-1.118 1.158v.039c.417.049.736.18.957.395.221.215.332.493.332.835 0 .511-.195.905-.586 1.182-.387.273-.952.41-1.694.41h-2.578V2.6h2.568c1.413 0 2.12.46 2.12 1.381zM91.988 6.34c0-.26-.1-.444-.302-.552-.202-.11-.505-.166-.909-.166h-1.323V7.15h1.353c.787 0 1.181-.27 1.181-.81zm-.141-2.26c0-.216-.085-.37-.254-.465-.166-.097-.415-.146-.747-.146h-1.392v1.299h1.22c.385 0 .676-.05.875-.147.198-.1.298-.281.298-.542z" fill="#028DD8"/></svg>
