<svg width="7" height="12" viewBox="0 0 7 12" fill="none" xmlns="http://www.w3.org/2000/svg"><path d="M6.7364 0.0024968L5.05742 0C3.17114 0 1.95214 1.15914 1.95214 2.95322V4.31485H0.264004C0.118128 4.31485 0 4.42446 0 4.55966V6.53251C0 6.66771 0.118263 6.77719 0.264004 6.77719H1.95214V11.7553C1.95214 11.8905 2.07027 12 2.21615 12H4.41869C4.56457 12 4.6827 11.8904 4.6827 11.7553V6.77719H6.65653C6.8024 6.77719 6.92053 6.66771 6.92053 6.53251L6.92134 4.55966C6.92134 4.49474 6.89346 4.43257 6.84402 4.38663C6.79459 4.34069 6.72724 4.31485 6.6572 4.31485H4.6827V3.16058C4.6827 2.60579 4.82534 2.32415 5.60509 2.32415L6.73613 2.32377C6.88187 2.32377 7 2.21416 7 2.07909V0.247183C7 0.112231 6.88201 0.00274648 6.7364 0.0024968Z" fill="#333333"/></svg>
