<svg xmlns="http://www.w3.org/2000/svg" width="22" height="24" fill="none"><path fill="#4CAF50" fill-rule="evenodd" d="M19.84 8.58h.58c.74 0 1.34.6 1.34 1.35v7c0 .74-.6 1.34-1.34 1.34h-.58v4.79c0 .52-.42.94-.94.94H3.37a.94.94 0 0 1-.94-.94v-4.79h-.58c-.74 0-1.34-.6-1.34-1.35v-7c0-.73.6-1.34 1.34-1.34h.58V.94c0-.52.42-.94.94-.94h11.37a.47.47 0 0 1 .23.06l.03.02.1.08 4.63 5.29c.07.08.1.2.1.3v.01l.01.04v2.78ZM3.37.94h10.9v4.82c0 .26.21.47.47.47h4.16v2.35H3.37V.94ZM18.9 22.8H3.37v-4.53H18.9v4.53ZM8.47 16.07H7.12l-1.3-2.1-1.3 2.1H3.27l1.85-2.87-1.73-2.7h1.3l1.2 2 1.18-2h1.27L6.6 13.26l1.88 2.81Zm3.06 0-1.34-4.37h-.04l.02.47a36.83 36.83 0 0 1 .05 1.3v2.6H9.17V10.5h1.6l1.32 4.26h.03l1.4-4.26h1.6v5.57h-1.1v-2.64a27.5 27.5 0 0 1 .04-1.25l.02-.47h-.03l-1.44 4.36h-1.08Zm5-5.57v5.57h3.44v-.98h-2.26V10.5h-1.18Z" clip-rule="evenodd"/></svg>
