<svg width="12" height="13" fill="none" xmlns="http://www.w3.org/2000/svg"><path d="M6 .688c1.031 0 2.016.28 2.906.796a5.692 5.692 0 0 1 2.11 2.11c.515.89.796 1.875.796 2.906a5.7 5.7 0 0 1-.796 2.906 5.756 5.756 0 0 1-2.11 2.133A5.741 5.741 0 0 1 6 12.313a5.68 5.68 0 0 1-2.906-.774A5.818 5.818 0 0 1 .96 9.406 5.68 5.68 0 0 1 .188 6.5c0-1.031.257-2.016.773-2.906a5.755 5.755 0 0 1 2.133-2.11A5.7 5.7 0 0 1 6 .688zm0 10.5c.844 0 1.617-.211 2.344-.633a4.788 4.788 0 0 0 1.71-1.711c.423-.703.633-1.5.633-2.344 0-.844-.21-1.617-.632-2.344a4.981 4.981 0 0 0-1.711-1.71A4.569 4.569 0 0 0 6 1.811c-.844 0-1.64.211-2.344.633a4.788 4.788 0 0 0-1.71 1.711A4.569 4.569 0 0 0 1.312 6.5c0 .844.21 1.64.632 2.344a4.61 4.61 0 0 0 1.711 1.71c.703.423 1.5.633 2.344.633zM8.508 5.21a1.78 1.78 0 0 0-.352-1.055 2.54 2.54 0 0 0-.89-.75 2.496 2.496 0 0 0-1.125-.281c-.54 0-.985.117-1.36.328a2.93 2.93 0 0 0-1.008.938c-.046.07-.046.14-.046.21 0 .094.046.141.117.188l.656.492c.047.047.117.07.188.047.07 0 .14-.047.187-.094.188-.257.375-.445.516-.539.164-.093.375-.164.609-.164.234 0 .469.07.656.188.188.14.305.281.305.468 0 .141-.07.282-.164.375-.094.094-.258.188-.492.329l-.047.023c-.328.188-.563.352-.703.492a1.238 1.238 0 0 0-.375.914v.211c0 .094.023.164.07.211.047.047.117.07.21.07h1.08c.07 0 .14-.023.187-.07a.297.297 0 0 0 .093-.21V7.39c0-.094.047-.188.164-.282.047-.046.188-.14.375-.257.352-.188.61-.375.774-.563.234-.281.375-.656.375-1.078zM6.984 9.125a.963.963 0 0 0-.304-.68.963.963 0 0 0-.68-.304.974.974 0 0 0-.703.304.939.939 0 0 0-.281.68c0 .281.093.516.28.703A.954.954 0 0 0 6 10.11a.939.939 0 0 0 .68-.28.974.974 0 0 0 .304-.704z" fill="#5E7491"/></svg>
