<svg xmlns="http://www.w3.org/2000/svg" width="22" height="24" fill="none"><path fill="#06C" d="M19.91 8.585h-.576v-2.78c0-.018-.003-.036-.005-.053a.461.461 0 0 0-.112-.305L14.59.161l-.004-.003a.46.46 0 0 0-.094-.079l-.03-.018a.492.492 0 0 0-.093-.04c-.01-.001-.017-.005-.026-.007A.469.469 0 0 0 14.235 0H2.863a.942.942 0 0 0-.942.941v7.643h-.576C.602 8.584 0 9.186 0 9.93v6.996c0 .742.602 1.345 1.345 1.345h.576v4.789c0 .519.422.941.942.941h15.53a.942.942 0 0 0 .94-.941V18.27h.577c.742 0 1.345-.602 1.345-1.345V9.93c0-.743-.602-1.345-1.345-1.345ZM2.863.942h10.902v4.815c0 .26.21.47.47.47h4.157v2.358H2.863V.942Zm11.853 13.76c.344 0 .725-.075.949-.165l.171.888c-.209.104-.679.217-1.29.217-1.74 0-2.636-1.083-2.636-2.516 0-1.717 1.224-2.672 2.747-2.672.59 0 1.038.12 1.24.224l-.232.903a2.448 2.448 0 0 0-.956-.186c-.903 0-1.604.544-1.604 1.664-.002 1.007.595 1.642 1.61 1.642h.001Zm-3.322-1.703c0 1.65-1 2.65-2.47 2.65-1.494 0-2.367-1.127-2.367-2.56 0-1.508.963-2.636 2.448-2.636 1.546 0 2.389 1.158 2.389 2.546Zm-9.802 2.546v-4.942c.418-.067.963-.104 1.538-.104.955 0 1.575.171 2.06.537.522.388.851 1.008.851 1.896 0 .963-.35 1.627-.836 2.038-.53.44-1.336.65-2.322.65-.59 0-1.007-.038-1.291-.075Zm16.8 7.26H2.863V18.27h15.53v4.534Zm.863-7.238-.456-.91c-.186-.351-.305-.613-.447-.904h-.015c-.105.291-.231.553-.388.903l-.418.911h-1.3l1.456-2.546-1.403-2.485h1.307l.44.918c.15.306.261.552.38.836h.015c.12-.321.217-.545.344-.836l.425-.918h1.3l-1.419 2.455 1.493 2.576h-1.314Z"/><path fill="#06C" d="M4.832 12.97c.007-1.046-.605-1.598-1.583-1.598-.254 0-.418.022-.515.045v3.291c.097.023.254.023.396.023 1.03.007 1.702-.56 1.702-1.762ZM7.759 13.066c0 .985.463 1.68 1.224 1.68.769 0 1.209-.732 1.209-1.71 0-.903-.433-1.68-1.217-1.68-.769.001-1.216.732-1.216 1.71Z"/></svg>
