<svg width="18" height="18" fill="none" xmlns="http://www.w3.org/2000/svg"><path fill-rule="evenodd" clip-rule="evenodd" d="M8.997 17.363l1.763-1.593.078-.07c1.878-1.707 3.517-3.196 4.679-4.618C16.706 9.627 17.5 8.121 17.5 6.375a5.085 5.085 0 00-5.125-5.125A5.477 5.477 0 009 2.436 5.477 5.477 0 005.625 1.25 5.085 5.085 0 00.5 6.375c0 1.746.794 3.252 1.984 4.707 1.166 1.425 2.811 2.917 4.698 4.628l1.815 1.652z" fill="#fff"/><path d="M9 3.095a4.99 4.99 0 013.375-1.345A4.585 4.585 0 0117 6.375c0 1.582-.716 2.978-1.87 4.39-1.139 1.393-2.754 2.861-4.652 4.585l-.054.05-.001.001-1.088.983-.336.303-.336-.305-1.086-.99h-.001l-.035-.031c-1.906-1.728-3.528-3.2-4.67-4.596C1.716 9.353 1 7.957 1 6.375A4.585 4.585 0 015.625 1.75c1.266 0 2.482.51 3.375 1.345z" fill="#FFC107" stroke="#fff"/></svg>