<svg xmlns="http://www.w3.org/2000/svg" width="20" height="20" fill="none"><path fill="#08C" d="M14.11 14.4c.37-1.97 1.1-6.23 1.26-7.99V6a.44.44 0 0 0-.16-.3.74.74 0 0 0-.43-.13c-.42 0-1.06.22-4.14 1.5a499 499 0 0 0-6.48 2.8c-.52.2-.8.4-.82.6-.04.36.39.49.98.67l.22.07c.56.19 1.32.4 1.72.41.35.01.75-.14 1.2-.44a117.87 117.87 0 0 1 4.71-3.1c.07-.02.15-.03.21.02a.22.22 0 0 1 .06.2c-.05.18-1.85 1.86-2.68 2.62-.2.2-.36.33-.4.37l-.25.25c-.53.5-.94.89.01 1.51l1.22.83 1.26.84.36.25c.47.33.88.63 1.4.58.29-.03.6-.3.75-1.14Z"/><path fill="#08C" fill-rule="evenodd" d="M20 10a10 10 0 1 1-20 0 10 10 0 0 1 20 0Zm-1.5 0a8.5 8.5 0 1 1-17 0 8.5 8.5 0 0 1 17 0Z" clip-rule="evenodd"/></svg>
