<svg xmlns="http://www.w3.org/2000/svg" width="155" height="20" fill="none"><g clip-path="url(#a)"><path fill="#000" d="M35.06 8.08v4.88h-1.75V9.53h-1.69v3.43h-1.75V8.07h5.2Z"/><path fill="#000" fill-rule="evenodd" d="M26.27 13.14c1.57 0 2.73-.96 2.73-2.41 0-1.4-.86-2.32-2.3-2.32-.66 0-1.2.23-1.62.63.1-.83.8-1.43 1.58-1.43h1.53l.76-1.46s-1.7.04-2.48.04c-1.8.03-3 1.66-3 3.63 0 2.3 1.18 3.32 2.8 3.32Zm0-3.45c.6 0 1 .39 1 1.04 0 .58-.36 1.07-1 1.07-.6 0-1-.45-1-1.06 0-.65.4-1.05 1-1.05Z" clip-rule="evenodd"/><path fill="#000" d="M22.04 11.33s-.42.24-1.04.28c-.7.02-1.34-.43-1.34-1.22 0-.78.56-1.22 1.33-1.22.47 0 1.09.33 1.09.33s.45-.84.7-1.25c-.44-.33-1.02-.5-1.69-.5-1.69 0-3 1.09-3 2.63 0 1.56 1.24 2.63 3 2.6.5-.02 1.18-.2 1.6-.46l-.65-1.2Z"/><path fill="#5B57A2" d="m.48 4.35 2.43 4.33v2.64L.48 15.64V4.35Z"/><path fill="#D90751" d="m9.82 7.1 2.28-1.38h4.66L9.82 9.94V7.1Z"/><path fill="#FAB718" d="m9.8 4.33.02 5.73-2.44-1.5V0L9.8 4.33Z"/><path fill="#ED6F26" d="M16.76 5.71H12.1L9.8 4.34 7.38 0l9.38 5.71Z"/><path fill="#63B22F" d="M9.82 15.67v-2.78l-2.44-1.47V20l2.44-4.33Z"/><path fill="#1487C9" d="M12.1 14.29 2.9 8.69.48 4.34l16.27 9.93-4.66.01Z"/><path fill="#017F36" d="m7.38 20 2.44-4.33 2.27-1.38h4.66L7.38 20Z"/><path fill="#984995" d="m.48 15.64 6.92-4.22L5.08 10 2.9 11.32.48 15.64Z"/></g><g clip-path="url(#b)"><path fill="#4DB45E" d="M53.38 4.5s-1.52 0-1.93 1.45l-1.44 5.08h-.3l-1.44-5.09c-.4-1.44-1.93-1.44-1.93-1.44h-3.47v11h3.47V8.97h.3l2.02 6.53h2.4l2.03-6.53h.3v6.53h3.46v-11h-3.47Zm12.68 0s-1.02.1-1.5 1.15l-2.45 5.38h-.3V4.5h-3.46v11h3.27s1.07-.1 1.55-1.16l2.4-5.37h.3v6.53h3.47v-11h-3.28Zm4.82 5v6h3.47V12h3.76a3.75 3.75 0 0 0 3.54-2.5H70.88Z"/><path fill="url(#c)" d="M78.11 4.5H70.4a5.53 5.53 0 0 0 5.45 4.52h5.95a3.75 3.75 0 0 0-3.68-4.51Z"/></g><path fill="#FF5F00" d="M98.14 4.5h6.12v11h-6.12v-11Z"/><path fill="#EB001B" d="M98.52 10a7.02 7.02 0 0 1 2.67-5.5 7 7 0 1 0 0 11 6.99 6.99 0 0 1-2.67-5.5Z"/><path fill="#F79E1B" d="M112.52 10a7 7 0 0 1-11.31 5.5 7.02 7.02 0 0 0 0-11 7 7 0 0 1 11.32 5.5Z"/><g clip-path="url(#d)"><path fill="#1434CB" d="M142.88 4.51c-2.44 0-4.62 1.25-4.62 3.55 0 2.64 3.87 2.83 3.87 4.15 0 .56-.65 1.06-1.76 1.06-1.57 0-2.75-.7-2.75-.7l-.5 2.33s1.35.59 3.15.59c2.66 0 4.76-1.31 4.76-3.65 0-2.8-3.88-2.97-3.88-4.2 0-.44.53-.92 1.64-.92 1.25 0 2.26.5 2.26.5l.5-2.24s-1.11-.47-2.67-.47Zm-22.3.17-.06.34s1.03.19 1.95.56c1.2.42 1.28.67 1.48 1.43l2.18 8.3h2.92l4.5-10.63h-2.9l-2.9 7.23-1.19-6.13c-.1-.7-.65-1.1-1.33-1.1h-4.65Zm14.15 0-2.29 10.63h2.79l2.28-10.63h-2.78Zm15.52 0c-.67 0-1.02.36-1.28.98l-4.08 9.65h2.92l.56-1.6h3.56l.34 1.6h2.57L152.6 4.68h-2.35Zm.38 2.87.87 4h-2.32l1.45-4Z"/></g><defs><clipPath id="a"><path fill="#fff" d="M0 0h34.87v20H0z"/></clipPath><clipPath id="b"><path fill="#fff" d="M42.87 4.5h39v11h-39z"/></clipPath><clipPath id="d"><path fill="#fff" d="M120.52 4.5h34.32v11h-34.32z"/></clipPath><linearGradient id="c" x1="70.39" x2="81.87" y1="6.76" y2="6.76" gradientUnits="userSpaceOnUse"><stop offset=".3" stop-color="#00B4E6"/><stop offset="1" stop-color="#088CCB"/></linearGradient></defs></svg>