<svg width="20" height="19" fill="none" xmlns="http://www.w3.org/2000/svg"><path d="M6.642 8.714a.412.412 0 0 0-.127-.301.412.412 0 0 0-.302-.127.423.423 0 0 0-.429.429c0 .12.041.223.121.307.085.08.188.12.308.12a.423.423 0 0 0 .429-.428zm1.071-3.428V9.57a.412.412 0 0 1-.127.302.412.412 0 0 1-.301.127H5.356a.412.412 0 0 1-.301-.127.412.412 0 0 1-.127-.302V5.286c0-.116.042-.217.127-.302a.412.412 0 0 1 .301-.127h1.929c.116 0 .216.043.301.127a.412.412 0 0 1 .127.302zm7.929 0c0 .384-.123.716-.368.997.067.197.1.367.1.51a1.39 1.39 0 0 1-.288.917c.076.25.076.511 0 .783a1.303 1.303 0 0 1-.361.63c.04.5-.07.904-.329 1.212-.285.34-.725.513-1.319.522h-.864c-.294 0-.616-.036-.964-.107a7.515 7.515 0 0 1-.817-.194c-.192-.058-.46-.145-.803-.261-.55-.192-.902-.29-1.058-.295a.45.45 0 0 1-.302-.127.412.412 0 0 1-.127-.302V5.28c0-.112.04-.208.12-.288a.433.433 0 0 1 .288-.14c.108-.01.277-.141.51-.396.232-.254.457-.524.676-.81a9.88 9.88 0 0 1 .676-.803c.08-.08.15-.188.208-.322.058-.134.096-.241.114-.321.022-.085.053-.221.093-.409.031-.174.058-.31.08-.408.027-.099.072-.215.135-.349.062-.133.138-.245.227-.334a.412.412 0 0 1 .302-.128c.205 0 .388.025.549.074.165.045.299.103.402.174a.852.852 0 0 1 .267.268 1.343 1.343 0 0 1 .241.636c.023.134.034.235.034.302.004.067.007.154.007.26 0 .17-.023.34-.067.51-.04.17-.083.303-.128.401a4.435 4.435 0 0 1-.247.496A1.128 1.128 0 0 0 12.5 4h1.855c.348 0 .65.127.904.382.255.254.382.556.382.904z" fill="#fff" filter="url(#filter0_d)"/><defs><filter id="filter0_d" x=".928" y=".571" width="18.714" height="18.286" filterUnits="userSpaceOnUse" color-interpolation-filters="sRGB"><feFlood flood-opacity="0" result="BackgroundImageFix"/><feColorMatrix in="SourceAlpha" values="0 0 0 0 0 0 0 0 0 0 0 0 0 0 0 0 0 0 127 0"/><feOffset dy="4"/><feGaussianBlur stdDeviation="2"/><feColorMatrix values="0 0 0 0 0 0 0 0 0 0 0 0 0 0 0 0 0 0 0.25 0"/><feBlend in2="BackgroundImageFix" result="effect1_dropShadow"/><feBlend in="SourceGraphic" in2="effect1_dropShadow" result="shape"/></filter></defs></svg>