<svg width="16" height="16" fill="none" xmlns="http://www.w3.org/2000/svg"><path d="M8 0C3.58 0 0 3.613 0 8c0 4.42 3.58 8 8 8 4.387 0 8-3.58 8-8 0-4.387-3.613-8-8-8Zm0 14.452A6.43 6.43 0 0 1 1.548 8 6.45 6.45 0 0 1 8 1.548c3.548 0 6.452 2.904 6.452 6.452A6.45 6.45 0 0 1 8 14.452Zm3.452-8.226c0-1.613-1.71-2.871-3.29-2.871-1.517 0-2.485.645-3.227 1.774A.364.364 0 0 0 5 5.645l.903.678c.162.129.42.096.549-.065.483-.613.838-.968 1.58-.968.58 0 1.29.355 1.29.936 0 .42-.354.613-.935.935-.645.387-1.516.839-1.516 2v.258c0 .226.161.387.387.387H8.71a.373.373 0 0 0 .387-.387v-.193c0-.807 2.355-.839 2.355-3Zm-2.097 5.387c0-.742-.613-1.355-1.355-1.355-.774 0-1.355.613-1.355 1.355 0 .774.58 1.355 1.355 1.355.742 0 1.355-.58 1.355-1.355Z" fill="#028DD8"/></svg>
