<svg width="10" height="15" viewBox="0 0 10 15" fill="none" xmlns="http://www.w3.org/2000/svg">
<path d="M8.0625 0.75C8.41797 0.75 8.71875 0.886719 8.99219 1.13281C9.23828 1.40625 9.375 1.70703 9.375 2.0625V13.4375C9.375 13.8203 9.23828 14.1211 8.99219 14.3672C8.71875 14.6406 8.41797 14.75 8.0625 14.75H1.9375C1.55469 14.75 1.25391 14.6406 1.00781 14.3672C0.734375 14.1211 0.625 13.8203 0.625 13.4375V2.0625C0.625 1.70703 0.734375 1.40625 1.00781 1.13281C1.25391 0.886719 1.55469 0.75 1.9375 0.75H8.0625ZM5 13.875C5.21875 13.875 5.4375 13.793 5.60156 13.6289C5.76562 13.4648 5.875 13.2461 5.875 13C5.875 12.7812 5.76562 12.5625 5.60156 12.3984C5.4375 12.2344 5.21875 12.125 5 12.125C4.75391 12.125 4.53516 12.2344 4.37109 12.3984C4.20703 12.5625 4.125 12.7812 4.125 13C4.125 13.2461 4.20703 13.4648 4.37109 13.6289C4.53516 13.793 4.75391 13.875 5 13.875ZM8.0625 10.9219V2.39062C8.0625 2.30859 8.00781 2.22656 7.95312 2.17188C7.89844 2.11719 7.81641 2.0625 7.73438 2.0625H2.26562C2.15625 2.0625 2.07422 2.11719 2.01953 2.17188C1.96484 2.22656 1.9375 2.30859 1.9375 2.39062V10.9219C1.9375 11.0312 1.96484 11.1133 2.01953 11.168C2.07422 11.2227 2.15625 11.25 2.26562 11.25H7.73438C7.81641 11.25 7.89844 11.2227 7.95312 11.168C8.00781 11.1133 8.0625 11.0312 8.0625 10.9219Z" fill="#028DD8"/>
</svg>
