<svg width="18" height="12" viewBox="0 0 18 12" fill="none" xmlns="http://www.w3.org/2000/svg"><path d="M0.665901 1.37143H2.5748L5.29391 11.4971C5.37159 11.7943 5.63795 12 5.9376 12H14.2947C14.561 12 14.7941 11.84 14.9051 11.5886L17.946 4.38857C18.0348 4.17144 18.0126 3.93144 17.8905 3.73714C17.7684 3.54284 17.5575 3.42857 17.3356 3.42857H8.10178C7.73554 3.42857 7.43588 3.73714 7.43588 4.11429C7.43588 4.49143 7.73554 4.8 8.10178 4.8H16.3146L13.8507 10.6286H6.43703L3.71796 0.502871C3.64028 0.205714 3.37392 3.63134e-08 3.07427 3.63134e-08H0.665901C0.299655 3.63134e-08 0 0.308571 0 0.685714C0 1.06286 0.299655 1.37143 0.665901 1.37143Z" fill="#0277BD"/></svg>
