<svg width="11" height="11" xmlns="http://www.w3.org/2000/svg" xmlns:xlink="http://www.w3.org/1999/xlink"><use xlink:href="#path0_fill" transform="translate(-7 -7)" fill="#{$color}"/><defs><path id="path0_fill" d="M16.969 15.209a.812.812 0 0 0-.234-.57l-2.461-2.46 2.46-2.461a.812.812 0 0 0 0-1.139l-1.138-1.138a.812.812 0 0 0-1.138 0L11.997 9.9l-2.461-2.46a.812.812 0 0 0-1.138 0L7.259 8.579a.812.812 0 0 0 0 1.139l2.461 2.46-2.46 2.461a.812.812 0 0 0 0 1.139l1.138 1.138a.812.812 0 0 0 1.138 0l2.46-2.46 2.462 2.46a.812.812 0 0 0 1.138 0l1.139-1.138c.15-.15.234-.36.234-.57z"/></defs></svg>
