<svg width="16" height="12" fill="none" xmlns="http://www.w3.org/2000/svg"><path d="M15.525.616A7.177 7.177 0 0012.6 0C9.525 0 6.45 1.688 3.375 1.688a7.04 7.04 0 01-2.325-.375.837.837 0 00-.25-.054c-.425 0-.8.375-.8.857v8.518c0 .321.175.643.45.777.975.428 1.95.589 2.925.589 3.075 0 6.15-1.66 9.225-1.66.775 0 1.55.106 2.325.374a.796.796 0 00.25.027.832.832 0 00.825-.83V1.393c0-.322-.2-.643-.475-.777zM1.2 2.706c.5.133 1.025.187 1.55.24-.15.777-.775 1.366-1.55 1.366V2.705zm0 7.633V9.054c.85 0 1.55.723 1.575 1.633A5.203 5.203 0 011.2 10.34zM8 8.571C6.875 8.571 6 7.446 6 6c0-1.42.875-2.571 2-2.571 1.1 0 2 1.151 2 2.571 0 1.446-.9 2.571-2 2.571zm6.8.75a7.77 7.77 0 00-1.375-.214c.15-.696.7-1.232 1.375-1.312V9.32zM14.8 3c-.775-.107-1.375-.804-1.4-1.634.475.054.95.16 1.4.321V3z" fill="#028DD8"/></svg>
