<svg width="17" height="17" fill="none" xmlns="http://www.w3.org/2000/svg"><path fill-rule="evenodd" clip-rule="evenodd" d="M.57.1a1.03 1.03 0 0 1 1.39.47l1 2h11.72a2.31 2.31 0 0 1 2.25 2.88l-1 3.84a2.32 2.32 0 0 1-2.25 1.74H5.54c-.98 0-1.85-.61-2.18-1.53L1.37 4 .11 1.47C-.15.98.06.36.57.11ZM3.8 4.63l1.5 4.19c.05.1.14.17.25.17h8.14c.12 0 .22-.08.25-.2l1-3.84a.26.26 0 0 0-.25-.32H3.78Z" fill="#028DD8"/><path d="M15.22 14.49a1.93 1.93 0 0 1-3.87 0c0-1.06.87-1.92 1.94-1.92 1.06 0 1.93.86 1.93 1.92ZM7.48 14.49a1.93 1.93 0 0 1-3.87 0c0-1.06.87-1.92 1.94-1.92 1.07 0 1.93.86 1.93 1.92Z" fill="#028DD8"/></svg>